<svg width="117" height="101" viewBox="0 0 117 101" fill="none" xmlns="http://www.w3.org/2000/svg">
<path d="M88.753 30.6464C80.6085 23.4528 69.0525 18.9375 55.433 18.9375C48.1133 18.8752 40.8591 20.3009 34.1227 23.1258C32.1483 24.0415 31.5092 23.8296 31.0298 23.6982L29.3824 23.2454C26.9154 22.5065 24.3993 21.9378 21.8522 21.5434C19.6582 21.1974 17.4393 21.0284 15.2174 21.038C14.893 21.0473 14.5754 21.1328 14.2911 21.2874C14.0068 21.442 13.7639 21.6612 13.5827 21.9268C13.4014 22.1925 13.287 22.4969 13.2488 22.8149C13.2107 23.1329 13.25 23.4553 13.3634 23.7553C14.4047 26.5931 17.7061 33.9516 17.7061 33.9516C17.9051 34.3093 17.9884 34.7185 17.9447 35.1243C17.901 35.5301 17.7325 35.9129 17.4618 36.2215C14.7565 39.3201 11.0887 44.233 10.3458 45.3345L9.27415 46.9223C8.97705 47.3597 8.51885 47.6658 7.99677 47.7755C7.08581 47.9675 6.23453 48.1614 5.26572 48.3833C4.73905 48.4636 4.23871 48.6643 3.80468 48.9693C3.33845 49.342 3.03585 49.8776 2.95984 50.4648C2.23896 58.4799 1.52636 66.6265 3.34462 74.5004C3.3814 74.775 3.50032 75.0327 3.68622 75.2404C3.91151 75.416 4.17867 75.5317 4.4622 75.5764C6.50704 76.0756 8.58707 76.4223 10.6847 76.6135C11.3762 76.6769 12.8069 76.7521 13.4332 77.8816L13.4919 77.9885C20.1956 91.2762 35.3156 98.487 55.4312 98.487C87.6978 98.487 101.6 83.1124 101.6 58.3441C101.574 53.0925 100.415 47.9067 98.1995 43.1311C95.9845 38.3556 92.7643 34.0997 88.753 30.6464Z" fill="white"/>
<path d="M42.798 11.3996C40.4893 14.8186 39.2618 18.8367 39.2707 22.9446C39.2654 25.1945 39.6419 27.4294 40.3846 29.5567C51.0416 27.1782 67.1369 28.0785 78.7048 33.3338C81.443 28.6443 82.2243 23.0881 80.8834 17.8406C79.5425 12.5931 76.1847 8.06586 71.5202 5.21664C66.8557 2.36743 61.2504 1.41971 55.8901 2.57398C50.5299 3.72824 45.8351 6.89396 42.7989 11.4014L42.798 11.3996Z" fill="#FCDC4A"/>
<path d="M103.54 52.1857C103.602 52.1305 104.253 51.6187 103.965 51.8234C104.183 51.6692 104.409 51.5264 104.642 51.3959C104.743 51.3397 105.457 51.0508 104.943 51.2301C105.158 51.1549 105.371 51.0825 105.592 51.0272C105.699 51.001 105.805 50.9774 105.912 50.9575C106.161 50.9158 106.126 50.9185 105.806 50.9638C106.033 50.9117 106.268 50.8995 106.499 50.9276C106.641 50.9276 106.782 50.9376 106.923 50.9512C106.67 50.914 106.667 50.9176 106.913 50.9602C107.024 50.9838 107.132 51.01 107.24 51.0408C107.485 51.1223 107.433 51.0922 107.082 50.9502C107.243 51.0684 107.418 51.1656 107.604 51.2392C107.8 51.3751 107.788 51.3606 107.565 51.1966C107.656 51.2709 107.741 51.3479 107.824 51.4294C107.908 51.5113 107.988 51.5975 108.063 51.6875C107.898 51.4774 107.882 51.4738 108.015 51.6767C107.919 51.4158 107.912 51.3995 107.992 51.6287C108.048 51.8741 108.052 51.8415 108.004 51.5381C108.012 51.6439 108.012 51.7502 108.004 51.856C108.058 51.5396 108.058 51.501 108.004 51.7401C107.927 51.9674 107.941 51.9375 108.048 51.6495C107.92 51.8482 107.943 51.8282 108.118 51.5897C107.944 51.7516 107.97 51.7434 108.195 51.5653C107.977 51.686 108.007 51.6878 108.287 51.5707C107.875 51.6903 108.762 51.6151 108.195 51.5852C108.025 51.5761 108.093 51.5852 108.398 51.6087C108.168 51.5372 108.197 51.5571 108.49 51.6703C108.397 51.6251 108.307 51.573 108.221 51.5145C108.46 51.7041 108.493 51.7174 108.321 51.5544C108.505 51.8008 108.536 51.8234 108.413 51.6223C108.521 51.8578 108.532 51.8442 108.443 51.5798C108.46 51.8213 108.46 51.8144 108.443 51.5589C108.456 51.299 108.45 51.3017 108.423 51.5653C108.451 51.4391 108.488 51.3147 108.532 51.193C108.44 51.4031 108.449 51.3895 108.566 51.1522C108.628 51.0398 108.697 50.9309 108.771 50.8262C108.623 51.0115 108.632 51.0097 108.798 50.8207C108.858 50.7673 109.45 50.2383 109.091 50.5191C109.299 50.3618 109.516 50.2152 109.74 50.0798C109.976 49.9303 110.578 49.4458 110.871 49.4621C110.573 49.5828 110.536 49.6006 110.76 49.5155C110.852 49.482 110.95 49.4503 111.046 49.4204C111.244 49.36 111.443 49.3084 111.645 49.2655C111.767 49.2383 112.464 49.0545 111.87 49.2103C112.105 49.1683 112.345 49.1489 112.584 49.1523C113.135 49.1233 113.686 49.1315 114.237 49.1523C114.82 49.1478 115.378 48.9173 115.79 48.5106C116.203 48.1039 116.436 47.5536 116.441 46.9784C116.429 46.4055 116.193 45.8593 115.782 45.4541C115.372 45.0489 114.818 44.8162 114.237 44.8046C111.924 44.6147 109.607 45.1287 107.599 46.2774C106.371 46.95 105.354 47.9435 104.661 49.1487C104.267 49.8767 104.058 50.6886 104.054 51.514C104.05 52.3394 104.251 53.1532 104.638 53.8849C105.019 54.5127 105.562 55.0293 106.212 55.3821C106.861 55.7349 107.594 55.911 108.336 55.8926C109.077 55.8742 109.8 55.6618 110.431 55.2772C111.062 54.8926 111.578 54.3496 111.927 53.7038C113.304 50.8859 111.438 47.9666 108.675 46.935C105.756 45.848 102.592 47.1831 100.422 49.1088C100.012 49.5185 99.7828 50.0706 99.7828 50.6459C99.7828 51.2212 100.012 51.7734 100.422 52.183C100.841 52.5789 101.4 52.7998 101.98 52.7998C102.561 52.7998 103.119 52.5789 103.539 52.183L103.54 52.1857Z" fill="#211715"/>
<path d="M31.6763 95.1736C31.7837 96.0241 32.1903 96.8104 32.8251 97.3955C33.1496 97.7828 33.5113 98.1383 33.905 98.4571C34.8483 99.2584 35.9541 99.8519 37.1485 100.198C39.3146 100.754 41.5993 100.666 43.7144 99.9434C43.9935 99.8676 44.2548 99.7382 44.4832 99.5627C44.7116 99.3872 44.9028 99.1691 45.0457 98.9208C45.1887 98.6725 45.2807 98.3988 45.3164 98.1154C45.3521 97.832 45.3309 97.5445 45.254 97.2691C45.177 96.9938 45.0459 96.7362 44.868 96.5109C44.6901 96.2856 44.4689 96.097 44.2172 95.956C43.9654 95.815 43.6879 95.7243 43.4006 95.6891C43.1133 95.6538 42.8218 95.6747 42.5427 95.7506C42.1849 95.8742 41.82 95.9768 41.4499 96.0577L41.1633 96.1147C41.1202 96.122 40.6418 96.1872 41.0192 96.1455C41.3626 96.1066 41.0128 96.1455 40.943 96.1519C40.8447 96.1618 40.7455 96.17 40.6463 96.1772C40.2491 96.2069 39.8504 96.212 39.4526 96.1926C39.3534 96.1872 39.2551 96.1809 39.1568 96.1727C39.0852 96.1673 38.7427 96.1202 39.0843 96.1727C39.4259 96.2252 39.0843 96.1727 39.0173 96.1591C38.8988 96.1392 38.7813 96.1166 38.6637 96.0912C38.4801 96.0501 38.2964 96.0021 38.1127 95.9472C38.0209 95.92 37.9373 95.8874 37.8492 95.8566C37.6088 95.7673 37.3427 95.7732 37.1066 95.873C36.8706 95.9729 36.6828 96.1589 36.5827 96.3923C36.4826 96.6256 36.4779 96.8881 36.5696 97.1247C36.6613 97.3614 36.8422 97.5539 37.0746 97.6619C37.3069 97.7699 37.5726 97.7851 37.8161 97.7042C38.0595 97.6233 38.2618 97.4527 38.3805 97.2281C38.4992 97.0034 38.5252 96.7421 38.4531 96.499C38.3809 96.2558 38.2162 96.0497 37.9933 95.9236C37.6618 95.7035 37.2798 95.5486 36.9446 95.3231C36.66 95.1311 37.019 95.3231 37.0172 95.3802C37.0172 95.3476 36.8106 95.2072 36.7803 95.1809C36.6076 95.0296 36.4423 94.8702 36.2844 94.7054C36.1475 94.5622 36.0226 94.4101 35.8913 94.2624C35.7003 94.0469 36.1264 94.5994 35.974 94.3648C35.9124 94.2697 35.8418 94.1782 35.7784 94.0831L36.0796 95.1809V95.1709C36.0796 94.5944 35.8474 94.0415 35.4341 93.6338C35.0208 93.2261 34.4602 92.9971 33.8757 92.9971C33.2911 92.9971 32.7305 93.2261 32.3172 93.6338C31.9039 94.0415 31.6717 94.5944 31.6717 95.1709L31.6763 95.1736Z" fill="#211715"/>
<path d="M72.003 99.3683C74.6207 100.408 77.5398 100.434 80.176 99.4407C81.3876 98.9423 82.4734 98.1873 83.3564 97.229C84.2393 96.2708 84.8979 95.1328 85.2855 93.8956C85.4354 93.3399 85.3581 92.7483 85.0703 92.2482C84.7824 91.7481 84.307 91.3795 83.7463 91.2217C83.1832 91.0805 82.5865 91.1597 82.0812 91.4427C81.5759 91.7256 81.2012 92.1905 81.0355 92.7398C80.9942 92.873 80.9437 93.0043 80.9024 93.1384C80.8206 93.4273 81.0713 92.8105 80.9354 93.0704C80.8261 93.2815 80.7242 93.4925 80.5993 93.6954C80.5323 93.8041 80.4533 93.9055 80.3872 94.0151C80.2366 94.2615 80.6461 93.7208 80.4551 93.9345C80.3064 94.1012 80.1622 94.2697 80.0024 94.4264C79.8426 94.5831 79.6755 94.718 79.5102 94.862C79.3073 95.0432 79.8839 94.6057 79.5524 94.8258C79.4725 94.8784 79.3945 94.9336 79.3146 94.9852C79.1162 95.1126 78.9127 95.2316 78.7039 95.3421C78.6213 95.3856 78.5368 95.4245 78.455 95.4689C78.1199 95.6501 78.8114 95.3602 78.5469 95.4327C78.1153 95.5532 77.6956 95.6718 77.2613 95.7705C76.9637 95.8376 77.68 95.7361 77.3678 95.7588C77.23 95.7687 77.0923 95.7859 76.9536 95.7941C76.6956 95.8104 76.4366 95.8149 76.1777 95.8104C75.9187 95.8059 75.6404 95.785 75.3714 95.7642C75.1023 95.7434 75.2299 95.785 75.4081 95.7733C75.2524 95.7634 75.0984 95.736 74.9489 95.6917C74.345 95.57 73.7526 95.3976 73.1784 95.1763C72.6149 95.0252 72.0137 95.1 71.5059 95.3844C70.998 95.6688 70.6248 96.1397 70.4676 96.6944C70.3284 97.2497 70.4104 97.8365 70.6967 98.334C70.9831 98.8314 71.4519 99.2016 72.0067 99.3683H72.003Z" fill="#211715"/>
<path d="M27.0278 44.7203C24.721 44.7203 23.1268 46.7538 23.1268 49.1315C23.1268 51.885 24.6384 53.6241 27.0315 53.6232C29.4806 53.6232 30.9334 51.8823 30.9325 49.1287C30.9315 46.7348 29.3273 44.7194 27.0278 44.7203Z" fill="#211715"/>
<path d="M80.2568 27.2851C91.7623 33.841 99.4733 45.4757 99.3943 58.757C99.4398 63.3138 98.8172 67.8531 97.5458 72.234C97.2397 73.2533 96.8938 74.2587 96.5081 75.2503C96.1697 76.1143 95.7869 76.9608 95.3611 77.7864C94.8812 78.7302 94.3553 79.6502 93.7835 80.5463C93.5196 80.9587 93.2466 81.3645 92.9643 81.7637C92.8339 81.9448 92.7017 82.1275 92.5676 82.3117C92.5006 82.4023 92.4326 82.4928 92.3647 82.5834C91.9285 83.1604 92.4822 82.4412 92.2251 82.7646C86.5848 89.8749 78.2264 93.5143 69.2784 95.1737C63.299 96.2275 57.2133 96.572 51.1509 96.1999C45.1159 95.9395 39.161 94.7362 33.5083 92.6348C28.7563 90.852 24.4451 88.0887 20.8632 84.5299C19.1405 82.7863 17.643 80.8392 16.4048 78.733C15.6876 77.5156 15.1926 76.1488 13.9493 75.3381C12.6636 74.4994 11.1135 74.503 9.63778 74.3318C8.78742 74.234 7.94258 74.0936 7.10232 73.9324C6.31273 73.8599 5.53875 73.6703 4.80655 73.3699L5.59722 74.1498C5.31401 73.4721 5.14256 72.7541 5.08939 72.023C4.93327 71.1559 4.80777 70.2845 4.71288 69.4089C4.51322 67.4829 4.41177 65.5481 4.40892 63.612C4.39056 59.7942 4.68442 55.9827 5.01868 52.1802C5.01129 51.6701 5.06649 51.161 5.18306 50.664C5.6064 50.2953 6.88835 50.2455 7.43842 50.1205C8.27539 49.9928 9.08522 49.7296 9.83521 49.3415C10.6067 48.7925 11.2444 48.0808 11.7021 47.2583C12.7692 45.6713 13.9134 44.1415 15.0806 42.6252C15.9652 41.4779 16.8689 40.3433 17.7915 39.2213C18.8604 37.9288 20.1442 36.745 20.1662 34.9542C20.1864 33.3999 19.0192 31.5123 18.3994 30.1056C17.5068 28.0776 16.6546 26.1365 15.841 24.0777C15.7292 23.7647 15.5998 23.4581 15.4534 23.1593C15.4534 23.1593 15.4296 23.1076 15.447 23.1366C15.4645 23.1656 15.2551 23.1937 15.2285 23.2181C15.3203 23.1276 15.9429 23.2109 16.0834 23.2118C17.8933 23.2491 19.6986 23.4047 21.4877 23.6774C24.5484 24.1049 27.4567 25.0804 30.4467 25.7942C31.5707 26.0705 32.7536 25.9993 33.8353 25.5904C35.8776 24.8458 37.8418 23.9699 39.9292 23.3305C42.629 22.5026 41.4765 18.3043 38.7574 19.1385C37.3221 19.5778 35.9051 20.0679 34.5139 20.6276C33.8435 20.8994 33.1888 21.2164 32.5074 21.4546C32.3301 21.5171 32.1492 21.5687 31.9674 21.6158C31.6723 21.6762 31.6589 21.6844 31.927 21.6403C31.846 21.6457 31.7647 21.6457 31.6836 21.6403C31.477 21.7481 32.1612 21.7662 31.8205 21.6548C31.7443 21.6294 31.6635 21.6149 31.5863 21.5905C31.3274 21.5071 31.0583 21.4483 30.7966 21.3776C29.8287 21.1158 28.8626 20.8468 27.8938 20.5914C24.9632 19.8277 21.9738 19.3033 18.9559 19.0235C16.279 18.7635 12.9097 18.3777 11.4928 21.2028C10.4946 23.1901 11.5387 25.1483 12.3137 26.9997C13.0695 28.8113 13.851 30.6083 14.6417 32.4027C14.885 32.9561 15.8456 34.5584 15.7859 34.9941C15.8391 34.6046 15.2 35.5095 15.0962 35.6336C14.7381 36.0599 14.3836 36.4898 14.0328 36.9234C13.1999 37.9496 12.3799 38.9904 11.5736 40.0356C10.5285 41.3852 9.47708 42.7394 8.50826 44.1451C8.21532 44.5708 7.90676 45.4132 7.47974 45.6704C6.96355 45.8468 6.42768 45.9612 5.88373 46.011C5.17121 46.1443 4.46815 46.3228 3.77896 46.5454C0.427124 47.7736 0.66589 51.3931 0.427129 54.3305C0.181941 57.3449 -0.00539139 60.3666 0.000118467 63.3928C-0.00564534 66.5262 0.250196 69.6547 0.765064 72.7467C0.99005 74.0728 1.1131 75.7666 2.1361 76.7756C3.1591 77.7846 5.00031 77.9531 6.34839 78.194C7.78647 78.454 9.23739 78.6379 10.692 78.7801C11.3468 78.8435 11.4514 78.8109 11.8555 79.579C12.7649 81.2949 13.8257 82.9286 15.0255 84.4611C26.5641 99.2804 47.766 102.173 65.4352 100.103C73.2473 99.188 81.1236 97.1319 87.7098 92.7371C93.4307 88.9051 97.8678 83.4824 100.458 77.1578C103.281 70.1077 104.373 62.4988 103.644 54.9528C102.618 44.7169 97.6227 35.2676 89.7016 28.5776C87.4605 26.6763 85.0433 24.9869 82.4818 23.5315C80.0208 22.1294 77.7984 25.8865 80.2568 27.2851Z" fill="#211715"/>
<path d="M41.9541 27.1075C41.2818 24.2141 41.3188 21.2043 42.0619 18.3278C42.805 15.4513 44.2327 12.7911 46.2268 10.5678C48.2208 8.34447 50.7236 6.62221 53.5275 5.5439C56.3314 4.46559 59.3556 4.0623 62.3492 4.36751C65.3427 4.67271 68.2193 5.6776 70.7403 7.29881C73.2613 8.92001 75.3541 11.1108 76.8449 13.6894C78.3357 16.268 79.1817 19.1601 79.3125 22.1257C79.4434 25.0913 78.8554 28.0449 77.5974 30.7415C77.3188 31.2429 77.2455 31.8305 77.3925 32.3836C77.5396 32.9366 77.8958 33.4131 78.388 33.7152C78.8938 34.0018 79.4936 34.0806 80.0579 33.9347C80.6221 33.7888 81.1056 33.4298 81.4037 32.9353C84.0089 27.6062 84.4344 21.4926 82.5921 15.8624C80.7498 10.2322 76.781 5.51746 71.509 2.69606C66.5129 0.092174 60.7354 -0.65677 55.2269 0.585408C49.7184 1.82759 44.8447 4.97839 41.4921 9.4649C39.5357 12.1494 38.1852 15.2163 37.5318 18.459C36.8784 21.7017 36.9371 25.0449 37.7041 28.2633C38.335 30.9906 42.5859 29.8357 41.9541 27.1075Z" fill="#211715"/>
<path d="M67.4317 14.7383L67.5593 14.7909L67.0322 14.5717C67.5807 14.807 68.0981 15.1072 68.5731 15.4657L68.1268 15.126C68.6656 15.5417 69.1496 16.0222 69.5676 16.5562L69.2233 16.1169C69.7221 16.7666 70.1364 17.4753 70.4566 18.2265L70.2353 17.7066C70.2849 17.8261 70.3335 17.9457 70.3804 18.0689C70.5488 18.607 70.9072 19.0679 71.3905 19.3677C71.9054 19.6589 72.5159 19.7376 73.0894 19.5869C73.6421 19.4346 74.1138 19.0777 74.4062 18.5906C74.5575 18.3413 74.6553 18.064 74.6935 17.7759C74.7318 17.4879 74.7096 17.1951 74.6285 16.9158C74.092 15.4644 73.2819 14.1263 72.2409 12.9721C71.7365 12.4422 71.1762 11.967 70.5695 11.5545C69.9537 11.146 69.2917 10.8095 68.597 10.5518C68.3135 10.4748 68.0172 10.4545 67.7256 10.4921C67.434 10.5298 67.1529 10.6246 66.8991 10.771C66.3944 11.062 66.0276 11.5387 65.8794 12.0964C65.7311 12.654 65.8134 13.2469 66.1084 13.7447L66.4527 14.1849C66.7221 14.4515 67.0573 14.6441 67.4252 14.7438L67.4317 14.7383Z" fill="#211715"/>
<path d="M84.1963 33.7993C78.5815 30.4709 72.3633 28.2531 65.8888 27.2696C59.5376 26.1379 53.0612 25.8516 46.6328 26.4182C43.098 26.6993 39.6073 27.3773 36.2283 28.439C33.5533 29.3239 34.7003 33.5249 37.4001 32.6318C42.9109 30.9604 48.6725 30.2385 54.432 30.4978C60.6237 30.5912 66.7701 31.5578 72.6843 33.3682C75.9496 34.3642 79.0713 35.771 81.9721 37.5538C84.3763 39.0546 86.5894 35.2939 84.1963 33.7993Z" fill="#211715"/>
</svg>
