<svg width="44" height="55" viewBox="0 0 44 55" fill="none" xmlns="http://www.w3.org/2000/svg">
<g clip-path="url(#clip0_108_5053)">
<path d="M11.4044 39.7899C9.96295 39.8209 8.56182 39.3158 7.47557 38.3734C6.36231 37.4199 5.57353 36.147 5.2177 34.7297C4.9461 33.5141 4.86954 32.2635 4.99086 31.0242C5.08077 29.9934 5.59218 27.9718 5.90734 26.9864C6.15403 26.2151 6.34412 25.359 5.82929 24.6306C5.64425 24.3655 5.39287 24.153 5.09996 24.014C4.80705 23.875 4.48275 23.8144 4.15905 23.838C3.45956 23.9088 2.80578 24.2163 2.30715 24.7091C1.84925 25.2113 1.50843 25.8077 1.30898 26.4558C0.129838 30.1436 0.203777 35.635 2.36466 38.855C4.34298 41.804 7.46621 43.5487 10.5993 45.2398L11.7083 45.828" fill="#C6C6C6"/>
<path d="M11.4044 39.2456C10.5742 39.2547 9.75243 39.0789 8.99956 38.7309C8.25312 38.3543 7.59357 37.8277 7.06277 37.1843C5.85875 35.7597 5.47537 33.9404 5.48815 32.1205C5.49796 30.58 5.86218 29.0848 6.30079 27.5779C6.53858 26.7613 6.84118 25.934 6.62781 25.0745C6.51145 24.6352 6.27143 24.2381 5.93592 23.9297C5.60041 23.6213 5.18334 23.4144 4.7337 23.3335C4.28003 23.2762 3.81935 23.3135 3.38096 23.4428C2.94258 23.5722 2.53609 23.7909 2.18737 24.085C1.45323 24.6657 1.00549 25.5785 0.73689 26.4528C0.275399 28.0069 0.0292553 29.6162 0.00526073 31.2365C-0.048736 32.9183 0.149466 34.5988 0.593348 36.2227C1.04762 37.8136 1.85831 39.2817 2.96464 40.5168C5.13853 42.977 8.13237 44.5483 10.9975 46.0684L11.4311 46.2982C12.053 46.628 12.6068 45.6884 11.984 45.3581C9.48792 44.0338 6.89755 42.732 4.79554 40.8176C3.62302 39.7492 2.5938 38.488 2.00937 37.0042C1.45864 35.5436 1.15534 34.0024 1.11183 32.4433C1.03971 30.8803 1.17521 29.3146 1.51485 27.7868C1.83319 26.3872 2.41786 24.5536 4.12119 24.3853C4.29725 24.3639 4.47585 24.3777 4.64645 24.426C4.81705 24.4743 4.97618 24.5561 5.11445 24.6665C5.25272 24.7769 5.36733 24.9138 5.4515 25.069C5.53568 25.2242 5.58771 25.3946 5.60453 25.5701C5.65633 26.2813 5.32224 26.9945 5.13671 27.6698C4.71658 29.1949 4.37792 30.7374 4.39207 32.3253C4.40827 34.1609 4.81014 35.9897 5.92105 37.4892C6.93269 38.8545 8.36925 39.9082 10.0714 40.2113C10.5116 40.2889 10.9576 40.3303 11.4046 40.3349C12.1098 40.3433 12.1102 39.2545 11.4046 39.2461L11.4044 39.2456Z" fill="#211715"/>
<path d="M43.1082 38.7965C42.4409 35.5027 41.2268 32.8006 39.6534 29.5252C38.6319 27.399 38.0915 25.971 37.1098 23.6919C36.592 22.4896 36.2583 21.0514 35.1269 20.0513C35.3631 19.9284 35.5901 19.7885 35.8058 19.6328C36.5645 19.0643 37.2555 18.4117 37.8654 17.6876C38.5236 16.9392 38.9774 16.0352 39.183 15.0623C39.1855 15.0573 39.1855 15.0523 39.188 15.0474C39.7612 12.2509 39.317 9.34291 37.9347 6.84152C38.0821 5.21127 38.2064 3.57928 38.3074 1.94556C38.3481 1.65139 38.3155 1.35177 38.2122 1.07312C38.1439 0.924112 38.0336 0.797924 37.8948 0.709746C37.756 0.621568 37.5945 0.575157 37.4297 0.576102C37.0547 0.556787 36.6789 0.562547 36.3047 0.593342C34.5742 0.743018 32.8755 1.14696 31.2643 1.79198C30.5964 1.48217 29.8833 1.28002 29.1515 1.19312C28.4152 1.08931 27.6721 1.04002 26.9283 1.04567C26.0227 1.03483 25.1173 1.08386 24.2182 1.19244C23.4806 1.24881 22.762 1.45274 22.1057 1.79198C20.4942 1.14722 18.7956 0.743287 17.065 0.593342C16.6908 0.562592 16.315 0.556832 15.94 0.576102C15.7749 0.575128 15.613 0.621496 15.4738 0.70965C15.3346 0.797803 15.2239 0.924001 15.1549 1.07312C15.0523 1.35191 15.0202 1.65154 15.0616 1.94556C15.1593 3.56371 15.2818 5.17997 15.4293 6.79433L15.4334 6.84152C14.0511 9.34319 13.6072 12.2514 14.1807 15.048C14.1832 15.053 14.1832 15.058 14.1858 15.063C14.3915 16.0356 14.8453 16.9394 15.5034 17.6876C16.1133 18.4117 16.8043 19.0643 17.563 19.6328C17.8092 19.8104 18.0698 19.9675 18.3421 20.1023C17.2538 21.1004 16.9226 22.5096 16.4133 23.6919C15.432 25.971 14.8911 27.399 13.8697 29.5252C13.5203 30.2524 13.1887 30.9516 12.8768 31.6348C11.7841 34.0294 10.934 36.2338 10.4149 38.7963C9.94682 41.1071 9.89342 44.2453 10.6602 46.4758C11.5132 48.958 13.6143 51.1592 16.3688 51.1409H18.2932C18.1016 51.4524 17.9918 51.8069 17.9738 52.1716C17.9966 53.1366 18.5062 53.873 19.2843 54.1357C20.1059 54.4131 21.8964 54.5072 22.7469 54.4095C23.3821 54.2743 23.9679 53.9691 24.4411 53.5268C24.8681 53.0457 25.021 52.4779 25.1383 51.8073C25.1726 51.5869 25.1799 51.3631 25.16 51.1409H28.5258C28.5058 51.3631 28.5131 51.5869 28.5475 51.8073C28.6648 52.4779 28.8174 53.0457 29.2444 53.5268C29.7176 53.9691 30.3035 54.2743 30.9386 54.4095C31.7891 54.5072 33.579 54.4131 34.4014 54.1357C35.1794 53.873 35.688 53.1375 35.712 52.1716C35.6938 51.8069 35.5839 51.4525 35.3925 51.1409H37.154C39.9085 51.1592 42.0096 48.958 42.8628 46.4758C43.6289 44.2455 43.5755 41.1074 43.1082 38.7965Z" fill="#C6C6C6"/>
<path d="M33.9377 21.0998C35.0072 20.785 35.9949 20.2427 36.8325 19.5105C37.7157 18.7884 38.4673 17.9206 39.0545 16.9452C39.5755 15.9332 39.8766 14.8237 39.9381 13.6886C40.0338 12.5462 39.9705 11.3962 39.7499 10.271C39.4955 8.97529 39.0426 7.72605 38.4071 6.56686L38.4819 6.84157C38.5732 5.82259 38.6564 4.80285 38.7316 3.78236C38.7693 3.26319 38.8046 2.74372 38.8373 2.22394C38.8685 1.72738 38.9094 1.21744 38.6657 0.762164C38.2047 -0.0998408 37.1399 -0.0113718 36.3042 0.0489685C35.4395 0.116953 34.5813 0.250499 33.7371 0.44844C32.7964 0.65844 31.8762 0.950537 30.9872 1.32133H31.5399C30.0246 0.624924 28.3516 0.499026 26.7001 0.500841C25.0584 0.503563 23.3183 0.574338 21.8281 1.32133H22.3811C20.7817 0.656246 19.0902 0.235897 17.3642 0.0746018C16.5513 -0.00456654 15.4315 -0.169709 14.8519 0.544395C14.5712 0.936198 14.4498 1.41892 14.5118 1.89593C14.5397 2.42062 14.5771 2.94485 14.6138 3.46863C14.6928 4.594 14.7889 5.71779 14.8863 6.84157L14.9612 6.56686C13.8308 8.62592 13.2916 10.9542 13.4025 13.2973C13.4324 14.4367 13.6828 15.5596 14.1399 16.6049C14.6136 17.6091 15.4012 18.458 16.2058 19.2136C17.1138 20.0896 18.2198 20.7365 19.4311 21.1C20.1079 21.3017 20.3971 20.2512 19.7222 20.05C18.7382 19.7584 17.8361 19.2425 17.0881 18.5433C16.3021 17.8249 15.5445 17.0234 15.0858 16.0555C14.6433 15.1214 14.5153 14.0243 14.4856 13.0033C14.4536 11.9212 14.5757 10.84 14.8484 9.79189C14.9881 9.24893 15.1661 8.71641 15.3811 8.19832C15.4781 7.96671 15.5851 7.73873 15.6976 7.51416C15.8272 7.25578 15.9851 7.03461 15.9714 6.73813C15.9149 5.47937 15.7576 4.22017 15.6748 2.96118C15.6536 2.64164 15.6332 2.32186 15.6136 2.00186C15.6006 1.77978 15.5452 1.47717 15.6663 1.27596C15.7018 1.22346 15.7506 1.18115 15.8077 1.15328C15.8648 1.12541 15.9283 1.11296 15.9918 1.11717C16.2837 1.09774 16.5767 1.10032 16.8683 1.12489C17.9096 1.19617 18.941 1.37095 19.9473 1.64663C20.4473 1.7782 20.9429 1.92814 21.4285 2.10621C21.6404 2.21841 21.869 2.29615 22.1056 2.33646C22.3583 2.33646 22.6141 2.13956 22.8475 2.05063C23.8081 1.68496 24.9048 1.63982 25.9219 1.60398C26.9688 1.54836 28.0186 1.58922 29.0579 1.72602C29.5513 1.79344 30.0372 1.90737 30.5089 2.06629C30.6942 2.13162 30.8688 2.22508 31.0529 2.28927C31.3542 2.39566 31.6221 2.22485 31.9014 2.12118C32.8825 1.76367 33.8939 1.49409 34.9233 1.31566C35.4121 1.22626 35.9057 1.16461 36.4016 1.13101C36.6743 1.11332 36.9493 1.10266 37.2213 1.1106C37.3745 1.0909 37.5297 1.12569 37.6595 1.20882C37.8117 1.35922 37.7736 1.65774 37.7649 1.84602C37.7503 2.17608 37.7245 2.50614 37.7026 2.83574C37.6603 3.46667 37.6147 4.09737 37.5657 4.72784C37.5167 5.35831 37.4639 5.98864 37.4073 6.61881C37.3949 6.92055 37.4794 7.21839 37.6485 7.46924C37.777 7.72285 37.8984 7.98078 38.0064 8.24391C38.8521 10.2727 39.0955 12.4998 38.7079 14.6618C38.5294 15.6809 38.0714 16.6314 37.3843 17.4084C36.6962 18.1797 35.9527 18.9559 35.0454 19.4745C34.6034 19.7193 34.1342 19.9122 33.6474 20.0493C32.974 20.2501 33.2608 21.3012 33.9388 21.0994L33.9377 21.0998Z" fill="#211715"/>
<path d="M27.3129 15.7595C26.8627 15.8979 25.828 15.811 25.7422 14.9656C25.752 13.8493 27.0035 13.786 27.5907 14.161C28.0715 14.4686 28.2693 15.3727 27.3129 15.7595Z" fill="#211715"/>
<path d="M21.1043 11.3136C20.9218 11.9034 21.0359 13.2583 22.1554 13.3709C23.6351 13.3579 23.718 11.719 23.2216 10.95C22.8154 10.32 21.6171 10.061 21.1043 11.3136Z" fill="#211715"/>
<path d="M32.2641 11.3137C32.4466 11.9034 32.3325 13.2586 31.2143 13.3709C29.7346 13.358 29.6518 11.719 30.1479 10.9498C30.553 10.3201 31.7515 10.061 32.2641 11.3137Z" fill="#211715"/>
<path d="M24.4069 17.0913C24.582 17.3191 24.8046 17.5064 25.0596 17.6404C25.3145 17.7744 25.5956 17.8519 25.8836 17.8675C26.1827 17.8951 26.4833 17.8332 26.7467 17.6897C27.0101 17.5462 27.2244 17.3277 27.3619 17.0622H26.416C26.5501 17.3235 26.7591 17.5394 27.0166 17.6826C27.2742 17.8258 27.5687 17.8899 27.8628 17.8666C28.1498 17.8487 28.4294 17.7688 28.6821 17.6325C28.9349 17.4962 29.1547 17.3068 29.3263 17.0774C29.3988 16.9526 29.4187 16.8044 29.382 16.665C29.3452 16.5255 29.2546 16.4062 29.1298 16.3327C29.0036 16.2634 28.8553 16.245 28.7158 16.2813C28.5763 16.3177 28.4562 16.406 28.3804 16.528C28.416 16.4827 28.3804 16.5251 28.3605 16.5421C28.3332 16.5661 28.3083 16.5929 28.28 16.616C28.3357 16.5707 28.2572 16.6294 28.2343 16.6428C28.2029 16.6621 28.1702 16.6791 28.1376 16.6968C28.0584 16.7397 28.1999 16.6764 28.1161 16.7084C28.0817 16.7217 28.0465 16.7329 28.0112 16.7431C27.9758 16.7533 27.9404 16.7624 27.9046 16.7698C27.8831 16.7744 27.7677 16.7839 27.8633 16.778C27.7939 16.7828 27.7243 16.7828 27.6549 16.778C27.7574 16.7857 27.5865 16.7612 27.55 16.7451C27.6024 16.7678 27.5326 16.7306 27.5219 16.7224C27.5648 16.7567 27.4762 16.6848 27.4687 16.6771C27.4265 16.6275 27.3907 16.5727 27.3624 16.5142C27.3134 16.433 27.2441 16.3657 27.1612 16.319C27.0783 16.2723 26.9847 16.2478 26.8894 16.2478C26.7941 16.2478 26.7005 16.2723 26.6176 16.319C26.5347 16.3657 26.4654 16.433 26.4165 16.5142C26.3881 16.5728 26.3523 16.6275 26.3099 16.6771C26.2996 16.6873 26.2334 16.7433 26.2499 16.7308C26.2864 16.7036 26.1627 16.7751 26.2286 16.7465C26.1967 16.7603 26.1602 16.7642 26.1289 16.7755C26.0335 16.8093 26.1732 16.7776 26.1104 16.7807C26.0342 16.7844 25.9603 16.7841 25.8841 16.7807C25.8396 16.7785 25.8181 16.768 25.8738 16.7807C25.8391 16.7735 25.8053 16.7669 25.7699 16.758C25.7266 16.7472 25.6839 16.7354 25.6415 16.7202C25.6319 16.7168 25.5392 16.6784 25.5824 16.6975C25.6348 16.7217 25.5153 16.6598 25.5048 16.6537C25.4744 16.636 25.4445 16.6174 25.4158 16.5972C25.5043 16.6594 25.285 16.4548 25.3532 16.5439C25.2768 16.4227 25.1567 16.335 25.0174 16.2987C24.8782 16.2624 24.7303 16.2803 24.6038 16.3486C24.4791 16.4221 24.3885 16.5415 24.3518 16.6809C24.315 16.8203 24.335 16.9684 24.4073 17.0933L24.4069 17.0913Z" fill="#211715"/>
<path d="M26.3412 15.9233V16.5619C26.3452 16.705 26.4041 16.8412 26.506 16.9425C26.6079 17.0437 26.7449 17.1024 26.8889 17.1063C27.0341 17.106 27.1735 17.049 27.2768 16.9475C27.3774 16.8438 27.4345 16.7059 27.4366 16.5619V15.9233C27.4327 15.7802 27.3738 15.6439 27.2719 15.5426C27.17 15.4413 27.0329 15.3827 26.8889 15.3789C26.7436 15.3792 26.6043 15.4362 26.5009 15.5377C26.4003 15.6414 26.3432 15.7793 26.3412 15.9233Z" fill="#211715"/>
<path d="M35.1666 4.16544C35.0305 3.93073 34.8752 3.70752 34.7024 3.49807C34.6257 3.40121 34.5458 3.30639 34.461 3.2161C34.39 3.14057 34.2996 3.07591 34.235 2.99629L34.3758 3.23652C34.3917 3.29225 34.3942 3.35091 34.3832 3.40779C34.3722 3.46467 34.3479 3.51819 34.3124 3.56408C34.2806 3.60219 34.2779 3.60711 34.3042 3.57883L34.2227 3.64302C34.2517 3.63067 34.2794 3.61547 34.3053 3.59765C34.3345 3.58291 34.3646 3.57021 34.3941 3.55614C34.4511 3.52869 34.2594 3.60968 34.3407 3.57883L34.4 3.55614C34.5805 3.48948 34.7648 3.43365 34.9521 3.38896C35.0531 3.36431 35.1547 3.34215 35.2569 3.32249C35.3114 3.31206 35.3659 3.3023 35.4206 3.29323C35.4479 3.28869 35.4751 3.28484 35.5025 3.28053C35.5785 3.2685 35.4756 3.28393 35.4548 3.2862C35.6577 3.26054 35.8623 3.24925 36.0668 3.2524C36.2117 3.25121 36.3503 3.19347 36.4528 3.09163C36.5553 2.98979 36.6133 2.852 36.6145 2.70797C36.6117 2.56448 36.5531 2.42764 36.451 2.32616C36.3489 2.22467 36.2112 2.16639 36.0668 2.16355C35.7525 2.15916 35.4384 2.18591 35.1294 2.2434C34.85 2.28845 34.5744 2.35373 34.3046 2.43871C34.0257 2.50465 33.7641 2.62884 33.5372 2.80302C33.4275 2.89886 33.3504 3.02606 33.3164 3.1672C33.2823 3.30833 33.2931 3.45647 33.3471 3.5913C33.4426 3.75025 33.5648 3.8918 33.7083 4.00983C33.7654 4.07183 33.8205 4.1355 33.8736 4.20083L33.9064 4.24121C33.9521 4.29656 33.9002 4.23531 33.885 4.21308C33.9078 4.2462 33.934 4.2775 33.9578 4.30994C34.0538 4.43938 34.1416 4.5747 34.2207 4.71509C34.295 4.83871 34.4151 4.92842 34.5552 4.96494C34.6954 5.00146 34.8443 4.98188 34.9701 4.9104C35.0932 4.83549 35.1824 4.71614 35.2191 4.57733C35.2557 4.43852 35.2369 4.29078 35.1666 4.16544Z" fill="#211715"/>
<path d="M17.5534 3.25235C17.7526 3.24773 17.9518 3.25835 18.1493 3.28411C18.2177 3.29205 18.0023 3.26143 18.1178 3.28048L18.1833 3.29046C18.2378 3.29931 18.2926 3.30884 18.3469 3.31927C18.4546 3.33969 18.5616 3.3629 18.668 3.38891C18.8509 3.43278 19.0312 3.487 19.2079 3.55133C19.228 3.55882 19.2479 3.56698 19.2679 3.57402C19.3592 3.60827 19.2223 3.56336 19.2155 3.55133C19.2234 3.56676 19.2962 3.58808 19.3147 3.5967C19.3401 3.6094 19.3643 3.62596 19.39 3.63753C19.4391 3.66022 19.2741 3.53092 19.3332 3.59557C19.2891 3.54787 19.2578 3.48985 19.2423 3.42691C19.2268 3.36397 19.2275 3.29815 19.2444 3.23557L19.3852 2.99534C19.3204 3.07519 19.2303 3.13961 19.1593 3.21515C19.0744 3.30589 18.9946 3.40025 18.9177 3.49712C18.7449 3.70657 18.5897 3.92978 18.4537 4.16449C18.3816 4.28908 18.3621 4.43694 18.3992 4.57583C18.4364 4.71471 18.5273 4.83335 18.6522 4.90587C18.777 4.97838 18.9256 4.9989 19.0656 4.96294C19.2056 4.92698 19.3255 4.83746 19.3994 4.71391C19.4643 4.59814 19.5355 4.48599 19.6128 4.37795C19.6357 4.34528 19.6591 4.313 19.6828 4.28109C19.6949 4.26476 19.7652 4.17288 19.7136 4.23958C19.6621 4.30627 19.7465 4.19965 19.7577 4.18627C19.783 4.15542 19.8086 4.12502 19.8348 4.09553C19.9219 3.99546 20.0148 3.90062 20.1132 3.81152C20.2303 3.70493 20.3047 3.55989 20.3228 3.4031C20.3409 3.2463 20.3014 3.08829 20.2116 2.95814C20.0043 2.71364 19.7233 2.54213 19.4101 2.46906C19.1475 2.3804 18.8785 2.3114 18.6055 2.26263C18.2595 2.19139 17.9067 2.15792 17.5534 2.16282C17.4082 2.16282 17.2689 2.22018 17.1662 2.32228C17.0634 2.42438 17.0057 2.56286 17.0057 2.70725C17.0057 2.85164 17.0634 2.99011 17.1662 3.09221C17.2689 3.19431 17.4082 3.25167 17.5534 3.25167V3.25235Z" fill="#211715"/>
<path d="M10.9466 16.2873C12.0216 16.0963 13.0958 15.9048 14.1855 15.8173C15.1369 15.7408 16.0949 15.7286 17.0488 15.7352C17.7537 15.7399 17.7544 14.6511 17.0488 14.6463C16.0785 14.6397 15.1033 14.6518 14.1357 14.7325C12.9657 14.8305 11.8101 15.0322 10.6554 15.2372C10.5159 15.2767 10.3977 15.369 10.3261 15.4943C10.2545 15.6196 10.2353 15.7679 10.2727 15.9071C10.314 16.0446 10.4072 16.1609 10.5328 16.2318C10.6583 16.3026 10.8066 16.3225 10.9466 16.2873Z" fill="#211715"/>
<path d="M13.6315 20.1468C14.7986 19.0979 16.1451 18.2652 17.6073 17.6878C17.7452 17.6461 17.8618 17.5534 17.933 17.4288C18.0042 17.3042 18.0245 17.1572 17.9898 17.0181C17.9502 16.8795 17.8573 16.762 17.7313 16.6908C17.6053 16.6196 17.4562 16.6006 17.3161 16.6377C15.6761 17.2767 14.1655 18.2046 12.857 19.3768C12.7555 19.4796 12.6986 19.6178 12.6986 19.7618C12.6986 19.9058 12.7555 20.044 12.857 20.1468C12.961 20.2463 13.0998 20.3019 13.2442 20.3019C13.3886 20.3019 13.5275 20.2463 13.6315 20.1468Z" fill="#211715"/>
<path d="M42.6113 15.2382C41.4564 15.0341 40.301 14.8313 39.131 14.7335C38.1634 14.6527 37.1883 14.6407 36.2179 14.6473C35.5134 14.6521 35.5118 15.7409 36.2179 15.7361C37.1718 15.7296 38.1298 15.7418 39.081 15.8183C40.1709 15.9058 41.2448 16.0973 42.3202 16.2883C42.4601 16.3226 42.6079 16.3023 42.7332 16.2316C42.8585 16.1609 42.9518 16.0451 42.9938 15.9081C43.0312 15.7689 43.0121 15.6206 42.9405 15.4953C42.869 15.37 42.7508 15.2777 42.6113 15.2382Z" fill="#211715"/>
<path d="M40.4099 19.3768C39.1097 18.1935 37.597 17.2643 35.9507 16.6377C35.8107 16.6006 35.6616 16.6197 35.5356 16.6908C35.4096 16.762 35.3167 16.8795 35.2771 17.0181C35.2416 17.1572 35.2615 17.3046 35.3328 17.4294C35.4041 17.5542 35.5212 17.6467 35.6596 17.6877C36.3864 17.9679 37.0823 18.3216 37.7362 18.7434C38.41 19.154 39.0454 19.6236 39.6349 20.1467C39.7392 20.246 39.8779 20.3014 40.0223 20.3014C40.1666 20.3014 40.3054 20.246 40.4097 20.1467C40.511 20.0439 40.5677 19.9057 40.5677 19.7617C40.5677 19.6178 40.511 19.4796 40.4097 19.3768H40.4099Z" fill="#211715"/>
<path d="M23.8391 1.27042V2.94906C23.8391 3.11751 23.9064 3.27907 24.0263 3.39818C24.1461 3.5173 24.3086 3.58422 24.4781 3.58422C24.6476 3.58422 24.8101 3.5173 24.9299 3.39818C25.0497 3.27907 25.1171 3.11751 25.1171 2.94906V1.27042C25.1171 1.10196 25.0497 0.940404 24.9299 0.821288C24.8101 0.702173 24.6476 0.635254 24.4781 0.635254C24.3086 0.635254 24.1461 0.702173 24.0263 0.821288C23.9064 0.940404 23.8391 1.10196 23.8391 1.27042Z" fill="#211715"/>
<path d="M26.0454 1.18545V3.55801C26.0454 3.72647 26.1127 3.88802 26.2326 4.00714C26.3524 4.12625 26.5149 4.19317 26.6844 4.19317C26.8539 4.19317 27.0164 4.12625 27.1362 4.00714C27.256 3.88802 27.3234 3.72647 27.3234 3.55801V1.18545C27.3234 1.017 27.256 0.855443 27.1362 0.736327C27.0164 0.617212 26.8539 0.550293 26.6844 0.550293C26.5149 0.550293 26.3524 0.617212 26.2326 0.736327C26.1127 0.855443 26.0454 1.017 26.0454 1.18545Z" fill="#211715"/>
<path d="M28.252 1.27042V2.94906C28.252 3.11751 28.3193 3.27907 28.4391 3.39818C28.5589 3.5173 28.7215 3.58422 28.8909 3.58422C29.0604 3.58422 29.2229 3.5173 29.3428 3.39818C29.4626 3.27907 29.5299 3.11751 29.5299 2.94906V1.27042C29.5299 1.187 29.5134 1.10441 29.4813 1.02735C29.4492 0.950288 29.4021 0.880269 29.3428 0.821288C29.2834 0.762308 29.213 0.715523 29.1355 0.683603C29.0579 0.651683 28.9748 0.635254 28.8909 0.635254C28.807 0.635254 28.7239 0.651683 28.6464 0.683603C28.5689 0.715523 28.4984 0.762308 28.4391 0.821288C28.3798 0.880269 28.3327 0.950288 28.3006 1.02735C28.2685 1.10441 28.252 1.187 28.252 1.27042Z" fill="#211715"/>
<path d="M36.3099 38.3752C35.8156 41.4095 34.8065 44.336 34.3786 47.3809C34.3214 47.7872 34.2709 48.1946 34.231 48.6029C34.1559 49.0287 34.1361 49.4622 34.1723 49.893C34.2753 50.4909 34.7116 50.9982 34.9784 51.5296C35.1083 51.7769 35.1685 52.0545 35.1524 52.3331C35.1363 52.6116 35.0446 52.8806 34.8871 53.1114C34.5813 53.5706 34.0758 53.6872 33.561 53.7727C32.9284 53.8708 32.2885 53.9141 31.6484 53.9022C31.5099 53.9022 31.3713 53.8974 31.2328 53.8895C31.1719 53.8861 31.1107 53.882 31.0502 53.8766C30.8704 53.8602 31.1532 53.9049 30.9731 53.8661C30.6781 53.7949 30.3961 53.6781 30.1374 53.52C29.883 53.3721 29.6644 53.1705 29.4971 52.9293C29.3297 52.6881 29.2178 52.4134 29.1691 52.1244C28.9879 51.3661 29.1559 50.6831 29.2346 49.924C29.438 47.9675 29.4211 45.9799 29.4966 44.0155C29.6146 40.9519 29.7705 37.8975 29.7657 34.8306C29.7657 34.1301 28.6703 34.1287 28.6703 34.8306C28.6748 37.6765 28.547 40.5116 28.4282 43.3542C28.3387 45.4952 28.3369 47.6488 28.1523 49.7845C28.089 50.5154 27.8989 51.2137 28.0199 51.9516C28.1427 52.7002 28.3944 53.5188 28.9868 54.0374C29.497 54.4923 30.1211 54.802 30.7935 54.9339C31.4472 55.0148 32.1081 55.0206 32.7632 54.9511C33.4178 54.9331 34.0659 54.8172 34.6858 54.6072C35.025 54.4682 35.3291 54.2565 35.5765 53.9872C35.824 53.718 36.0086 53.3978 36.1173 53.0495C36.2316 52.6966 36.2704 52.3238 36.2311 51.9551C36.1918 51.5865 36.0753 51.23 35.8891 50.9088C35.734 50.6121 35.5484 50.3321 35.3898 50.0372C35.3335 49.941 35.2886 49.8386 35.2561 49.7321C35.2477 49.7065 35.2415 49.6801 35.2376 49.6534C35.2376 49.6634 35.2451 49.7353 35.2463 49.6747C35.2488 49.5595 35.2591 49.4438 35.267 49.3286C35.4898 46.1351 36.5076 43.1131 37.1283 39.9915C37.2159 39.5505 37.2957 39.108 37.3677 38.664C37.4019 38.5249 37.3813 38.3781 37.3101 38.2536C37.239 38.1291 37.1227 38.0364 36.985 37.9944C36.845 37.9571 36.6958 37.976 36.5697 38.0472C36.4437 38.1183 36.3509 38.2359 36.3113 38.3745L36.3099 38.3752Z" fill="#211715"/>
<path d="M16.3197 38.6649C16.8318 41.8087 17.9112 44.8416 18.2944 48.0067C18.3476 48.4464 18.3895 48.8873 18.4201 49.3295C18.4276 49.4368 18.4375 49.5445 18.4406 49.6518C18.4406 49.6591 18.4406 49.7385 18.4454 49.6768C18.4507 49.6087 18.4363 49.7167 18.4311 49.733C18.3985 49.8395 18.3537 49.9419 18.2976 50.0381C17.9635 50.6588 17.5217 51.2436 17.4393 51.9634C17.4072 52.3315 17.4506 52.7022 17.567 53.0532C17.6833 53.4041 17.8702 53.7279 18.1161 54.0049C18.5621 54.5054 19.1887 54.7159 19.8336 54.8216C20.5373 54.9369 21.2496 54.9935 21.9628 54.9906C22.6022 55.0119 23.2376 54.8816 23.8163 54.6104C24.4857 54.3189 25.0245 53.7938 25.3309 53.1343C25.6748 52.3305 25.783 51.4464 25.6428 50.5841C25.3441 48.482 25.369 46.3304 25.2923 44.2098C25.1946 41.5331 25.0354 38.862 25.0185 36.1832C25.0154 35.7323 25.0145 35.2813 25.0157 34.8303C25.0157 34.1296 23.9203 34.1287 23.9203 34.8303C23.916 37.5524 24.0299 40.2628 24.1467 42.9806C24.2394 45.1322 24.2695 47.2886 24.4126 49.4379C24.4931 50.6431 24.9329 52.0046 24.1132 53.0717C23.7461 53.4812 23.2543 53.7601 22.7129 53.8657C22.5328 53.9045 22.8158 53.8598 22.636 53.8761C22.5751 53.8815 22.5139 53.8856 22.4534 53.889C22.3151 53.897 22.1764 53.9006 22.0379 53.9017C21.6937 53.9049 21.3491 53.8927 21.0057 53.8686C20.4703 53.831 19.8546 53.7994 19.356 53.5821C19.1089 53.4582 18.9008 53.2693 18.7543 53.0359C18.6079 52.8025 18.5287 52.5335 18.5255 52.2585C18.492 51.6768 18.9349 51.1442 19.2102 50.6497C19.3534 50.4159 19.4564 50.16 19.5148 49.8925C19.5511 49.4618 19.5314 49.0282 19.4562 48.6024C19.1171 45.1236 17.9377 41.8148 17.3774 38.3748C17.3378 38.2361 17.245 38.1185 17.1189 38.0474C16.9928 37.9762 16.8436 37.9573 16.7035 37.9946C16.5654 38.0359 16.4486 38.1285 16.3773 38.2532C16.3061 38.3779 16.286 38.5251 16.3211 38.6642L16.3197 38.6649Z" fill="#211715"/>
<path d="M34.7275 20.4263C35.5422 21.1581 35.9265 22.1557 36.3073 23.1523C36.7359 24.2738 37.2311 25.3731 37.6978 26.4794C38.6718 28.7886 39.8247 31.0162 40.7971 33.3255C41.7313 35.5438 42.5271 37.8939 42.7904 40.2955C43.0264 42.4467 43.0164 44.861 42.1232 46.8765C41.2389 48.8727 39.4584 50.5931 37.1535 50.5967C36.4488 50.5967 36.4475 51.6867 37.1535 51.6855C39.4299 51.6821 41.363 50.2984 42.536 48.4269C43.7966 46.4157 44.0739 43.954 43.9844 41.6303C43.8868 39.0896 43.2416 36.6093 42.3375 34.2408C41.379 31.7285 40.1143 29.3524 39.0513 26.8854C38.5091 25.6283 37.9518 24.3695 37.4538 23.0946C36.9682 21.8513 36.5271 20.5767 35.5029 19.6564C34.981 19.1877 34.204 19.9554 34.7284 20.4263H34.7275Z" fill="#211715"/>
<path d="M18.021 19.6564C17.1082 20.4758 16.6449 21.5885 16.2182 22.7068C15.7816 23.8531 15.2798 24.9752 14.8033 26.1067C13.7798 28.5365 12.5578 30.877 11.553 33.3147C10.5797 35.6757 9.81997 38.1519 9.5961 40.7034C9.39071 43.0479 9.5322 45.5758 10.5911 47.7192C11.683 49.9301 13.8088 51.6817 16.3686 51.6856C17.0735 51.6856 17.0746 50.5968 16.3686 50.5968C14.3307 50.5936 12.6789 49.2357 11.7255 47.5287C10.6584 45.6173 10.5219 43.3026 10.6568 41.1639C10.8076 38.77 11.492 36.4313 12.3668 34.2062C13.2946 31.845 14.4891 29.6013 15.4884 27.2702C16.0203 26.0298 16.5637 24.7897 17.0653 23.5368C17.5121 22.4208 17.8699 21.2571 18.7949 20.4264C19.3197 19.9557 18.5425 19.1876 18.0201 19.6564H18.021Z" fill="#211715"/>
<path d="M21.6689 52.6446C21.6102 52.7625 21.5668 52.8875 21.54 53.0164C21.5122 53.1596 21.499 53.3052 21.5005 53.451C21.5039 53.709 21.5549 53.9642 21.6511 54.2039C21.6943 54.338 21.783 54.453 21.9021 54.5292C22.0275 54.602 22.1769 54.6224 22.3174 54.5858C22.4579 54.5491 22.578 54.4585 22.6513 54.3339C22.6894 54.2716 22.714 54.2022 22.7235 54.13C22.733 54.0577 22.7272 53.9843 22.7065 53.9144C22.6486 53.776 22.6093 53.6305 22.5897 53.4818L22.6091 53.6266C22.5909 53.4888 22.5903 53.3494 22.6073 53.2115L22.5877 53.3562C22.5994 53.2655 22.6224 53.1766 22.6561 53.0914L22.6009 53.2214C22.6048 53.2124 22.609 53.2033 22.6132 53.1942C22.6525 53.1337 22.6749 53.0638 22.678 52.9919C22.6944 52.9199 22.691 52.8448 22.6682 52.7745C22.6491 52.7056 22.6165 52.6411 22.5723 52.5847C22.5281 52.5283 22.4732 52.481 22.4106 52.4457C22.348 52.4104 22.2791 52.3877 22.2077 52.3789C22.1363 52.3701 22.0639 52.3753 21.9945 52.3944C21.9261 52.4123 21.8619 52.4436 21.8057 52.4864C21.7495 52.5293 21.7025 52.5828 21.6673 52.6439L21.6689 52.6446Z" fill="#211715"/>
<path d="M19.4934 52.6253C19.409 52.859 19.3771 53.1083 19.4 53.3555C19.4096 53.5091 19.4318 53.6624 19.4566 53.814C19.468 53.9631 19.5115 54.108 19.584 54.2391C19.6588 54.3591 19.7752 54.4479 19.9112 54.4886C20.0536 54.5263 20.2053 54.5065 20.3332 54.4337C20.456 54.3616 20.546 54.245 20.5842 54.1084C20.6038 54.0384 20.609 53.9652 20.5995 53.8931C20.59 53.8211 20.566 53.7516 20.529 53.689C20.5214 53.6795 20.5154 53.6688 20.5112 53.6574L20.5664 53.7877C20.5317 53.6672 20.5083 53.5438 20.4963 53.419L20.516 53.5638C20.488 53.3826 20.4839 53.1986 20.5036 53.0164L20.484 53.1611C20.4955 53.0764 20.5173 52.9935 20.549 52.9141C20.5685 52.844 20.5736 52.7709 20.5641 52.6988C20.5546 52.6268 20.5307 52.5574 20.4938 52.4946C20.4575 52.4329 20.4094 52.3789 20.352 52.3356C20.2947 52.2924 20.2294 52.2608 20.1598 52.2427C20.0902 52.2245 20.0177 52.2202 19.9464 52.2299C19.8752 52.2396 19.8065 52.2632 19.7444 52.2993L19.6337 52.3844C19.5666 52.451 19.518 52.5338 19.4927 52.6246L19.4934 52.6253Z" fill="#211715"/>
<path d="M31.2533 53.1948C31.2574 53.2039 31.2615 53.213 31.2654 53.222L31.2101 53.092C31.244 53.1771 31.267 53.266 31.2786 53.3568L31.259 53.212C31.2759 53.3499 31.2753 53.4894 31.2571 53.6272L31.2768 53.4824C31.257 53.6311 31.2176 53.7766 31.1597 53.915C31.1403 53.9851 31.1352 54.0583 31.1446 54.1303C31.1541 54.2023 31.178 54.2718 31.2149 54.3345C31.2512 54.3962 31.2994 54.4503 31.3567 54.4935C31.414 54.5367 31.4793 54.5683 31.5489 54.5865C31.6185 54.6046 31.691 54.6089 31.7623 54.5992C31.8336 54.5895 31.9022 54.5659 31.9643 54.5298L32.075 54.4447C32.1422 54.3781 32.1908 54.2954 32.2161 54.2045C32.3121 53.9648 32.3631 53.7096 32.3664 53.4516C32.3677 53.3086 32.3549 53.1659 32.3283 53.0254C32.302 52.8935 32.2583 52.7657 32.1983 52.6452C32.1258 52.5229 32.0084 52.4334 31.8708 52.3956C31.7283 52.358 31.5767 52.3777 31.4488 52.4505C31.3261 52.5227 31.2361 52.6393 31.1978 52.7758L31.1782 52.9208C31.1782 53.0173 31.204 53.1121 31.253 53.1955L31.2533 53.1948Z" fill="#211715"/>
<path d="M33.3181 52.9149C33.3499 52.9943 33.3717 53.0772 33.3832 53.1619L33.3635 53.0172C33.3833 53.1994 33.3791 53.3834 33.3512 53.5645L33.3708 53.4198C33.3589 53.5446 33.3354 53.668 33.3008 53.7884L33.356 53.6582C33.3519 53.6697 33.3459 53.6804 33.3382 53.6898C33.2832 53.7832 33.2575 53.8909 33.2644 53.9989C33.2713 54.107 33.3104 54.2105 33.3768 54.2964C33.4432 54.3822 33.5338 54.4464 33.6371 54.4808C33.7404 54.5152 33.8516 54.5182 33.9566 54.4894C34.0917 54.4467 34.2075 54.3584 34.2841 54.2399C34.3565 54.1088 34.3999 53.9639 34.4112 53.8148C34.4378 53.663 34.4567 53.51 34.4678 53.3563C34.4908 53.109 34.459 52.8598 34.3745 52.6261C34.331 52.4921 34.2424 52.3772 34.1235 52.3008C34.0614 52.2647 33.9927 52.2411 33.9214 52.2314C33.8501 52.2217 33.7776 52.226 33.708 52.2441C33.6384 52.2623 33.5731 52.2938 33.5158 52.3371C33.4585 52.3803 33.4103 52.4344 33.374 52.4961C33.3361 52.5584 33.3117 52.6279 33.3022 52.7001C33.2927 52.7723 33.2983 52.8456 33.3188 52.9155L33.3181 52.9149Z" fill="#211715"/>
</g>
<defs>
<clipPath id="clip0_108_5053">
<rect width="44" height="55" fill="white"/>
</clipPath>
</defs>
</svg>
