<svg width="32" height="60" viewBox="0 0 32 60" fill="none" xmlns="http://www.w3.org/2000/svg">
<g clip-path="url(#clip0_108_5122)">
<path d="M2.25515 54.7259C3.26014 54.4719 4.26722 54.3418 5.22481 53.9813C6.2607 53.5913 6.46095 53.4247 7.28616 52.8773L9.10571 51.6282C9.04442 52.5734 9.10903 53.5227 9.29781 54.4506C9.43037 55.1652 9.78801 55.8175 10.3176 56.3109C9.56196 56.4669 8.72422 56.6409 8.72422 56.6409C6.54782 57.0107 3.4205 57.2685 1.54499 57.1898C1.25149 57.1739 0.97305 57.0538 0.759038 56.8507C0.642041 56.6934 0.561835 56.5114 0.524411 56.3185C0.486988 56.1255 0.493316 55.9265 0.542922 55.7363C0.616669 55.5559 0.730202 55.3948 0.874916 55.2652C1.01963 55.1355 1.19172 55.0408 1.37815 54.9882C1.67048 54.8844 1.96282 54.7998 2.25515 54.7259Z" fill="white"/>
<path d="M17.6349 57.2509L17.685 57.5139C17.8245 57.6001 17.9392 57.7216 18.0176 57.8664C18.096 58.0111 18.1354 58.1741 18.1318 58.3389C18.1116 58.5013 18.0551 58.6569 17.9664 58.794C17.8778 58.9311 17.7594 59.046 17.6203 59.1303C17.3497 59.2751 17.0528 59.3632 16.7475 59.3891C14.9933 59.5147 13.233 59.5288 11.4771 59.4312C11.3096 59.4177 11.1466 59.3696 10.9982 59.29C10.8499 59.2103 10.7194 59.1008 10.6148 58.9682C10.5304 58.844 10.4716 58.704 10.4419 58.5566C10.4121 58.4091 10.412 58.2571 10.4415 58.1095C10.4866 57.9263 10.5754 57.7569 10.7002 57.616C10.8251 57.4752 10.9821 57.3672 11.1577 57.3014L11.26 56.8741C10.2055 56.4743 9.55611 55.6324 9.29719 54.4496C8.89419 52.6144 9.1552 50.7161 9.38071 48.8767C9.77536 45.6545 9.95285 42.4387 10.1053 39.1976C10.3057 34.8642 11.07 20.1552 11.5544 17.1919C11.6212 16.7815 11.6901 14.538 11.0929 13.2058L11.0992 13.2016C10.7463 12.5113 10.3872 11.5726 10.3872 11.5684C9.87976 9.48699 10.2514 7.55708 11.1263 5.74502L11.0762 5.55981C10.8925 4.23181 10.6858 2.62179 11.5836 1.49373C12.0357 0.942124 12.6856 0.592693 13.3919 0.521402C14.509 0.40144 15.4466 1.00967 16.3695 1.55265L16.3737 1.56739C17.3801 1.28958 18.7687 1.22434 19.8065 1.22434C20.8888 1.23934 21.9663 1.37271 23.02 1.62211L23.0367 1.55265C23.9597 1.00967 24.8972 0.40144 26.0164 0.521402C26.7118 0.595063 27.3653 0.832882 27.8038 1.38429C28.7017 2.51446 28.5138 4.23181 28.33 5.55981L28.2799 5.74502C29.1548 7.55708 29.5265 9.48699 29.0191 11.5684C29.0191 11.5726 28.6599 12.5113 28.307 13.2016L28.3133 13.2058C27.7161 14.538 27.785 16.7815 27.8518 17.1919C28.3363 20.1552 29.1005 34.8642 29.3031 39.1976C29.4534 42.4387 29.6309 45.6545 30.0255 48.8767C30.251 50.7161 30.5121 52.6144 30.1091 54.4496C29.8126 55.8008 29.0086 56.7079 27.6681 57.0194L28.1922 57.3014C28.3678 57.3672 28.5248 57.4752 28.6496 57.616C28.7744 57.7569 28.8633 57.9263 28.9084 58.1095C28.9373 58.2571 28.9369 58.409 28.9072 58.5564C28.8774 58.7038 28.8189 58.8438 28.7351 58.9682C28.6302 59.101 28.4994 59.2107 28.3507 59.2904C28.2019 59.37 28.0385 59.418 27.8706 59.4312C26.1154 59.5288 24.3559 59.5147 22.6024 59.3891C22.2971 59.3635 22.0001 59.2754 21.7296 59.1303C21.5904 59.046 21.4721 58.9311 21.3834 58.794C21.2948 58.6569 21.2382 58.5013 21.218 58.3389C21.2141 58.174 21.2533 58.0109 21.3317 57.8661C21.4102 57.7212 21.5251 57.5998 21.6649 57.5139L21.7171 57.2382C21.2634 57.1507 20.8168 57.0297 20.3807 56.8762C20.1693 56.7737 19.9377 56.7205 19.7031 56.7205C19.4685 56.7205 19.2369 56.7737 19.0255 56.8762C18.572 57.0362 18.1071 57.1614 17.6349 57.2509Z" fill="white"/>
<path d="M20.1708 11.9216C19.8353 12.0268 19.0641 11.9603 19.0002 11.3224C19.0076 10.4789 19.9399 10.4318 20.3784 10.7146C20.7369 10.9461 20.8843 11.6293 20.1708 11.9216Z" fill="#211715"/>
<path d="M15.5453 8.56221C15.4087 9.00775 15.4946 10.0316 16.3285 10.1167C17.431 10.107 17.4929 8.86864 17.1231 8.28756C16.8203 7.81171 15.9272 7.61577 15.5453 8.56221Z" fill="#211715"/>
<path d="M23.8611 8.56207C23.9976 9.00762 23.9118 10.0317 23.0778 10.1165C21.9753 10.1068 21.9135 8.8685 22.2833 8.28721C22.5859 7.81136 23.479 7.61563 23.8611 8.56207Z" fill="#211715"/>
<path d="M17.9259 12.975C18.0652 13.1606 18.2429 13.3133 18.4467 13.4226C18.6505 13.5319 18.8754 13.5951 19.1059 13.6079C19.3451 13.629 19.5851 13.578 19.7955 13.4614C20.0059 13.3448 20.1772 13.1678 20.2877 12.9529H19.4231C19.531 13.1646 19.6985 13.3396 19.9045 13.456C20.1106 13.5723 20.346 13.625 20.5815 13.6073C20.8114 13.5929 21.0354 13.5279 21.2377 13.4168C21.44 13.3058 21.6156 13.1514 21.7523 12.9645C21.8191 12.8488 21.8376 12.7111 21.8039 12.5816C21.7702 12.452 21.687 12.3412 21.5725 12.2734C21.4569 12.2097 21.3214 12.193 21.194 12.2267C21.0665 12.2604 20.9566 12.3419 20.8868 12.4546C20.9495 12.3731 20.8532 12.4779 20.8265 12.5021C20.8774 12.4561 20.8524 12.4811 20.811 12.5076C20.7878 12.5221 20.7611 12.5329 20.739 12.5484C20.6839 12.5867 20.8089 12.5274 20.745 12.5484C20.7189 12.5567 20.6933 12.5668 20.6667 12.5745C20.6402 12.5823 20.6141 12.5891 20.5876 12.5956C20.5488 12.604 20.4809 12.5933 20.5815 12.5985C20.5483 12.5968 20.4529 12.6206 20.4262 12.5985C20.4396 12.6095 20.5206 12.6221 20.4494 12.5985C20.4239 12.5905 20.3978 12.5855 20.3727 12.576C20.4189 12.5933 20.4132 12.5918 20.374 12.5682C20.4531 12.616 20.3681 12.5569 20.3531 12.5472C20.3042 12.5175 20.374 12.5926 20.3448 12.5434C20.3239 12.5099 20.3057 12.4781 20.2882 12.4432C20.2434 12.3678 20.18 12.3055 20.1042 12.2621C20.0283 12.2188 19.9427 12.196 19.8555 12.196C19.7684 12.196 19.6827 12.2188 19.6069 12.2621C19.531 12.3055 19.4676 12.3678 19.4229 12.4432C19.4091 12.4708 19.3947 12.4977 19.379 12.5242C19.326 12.6139 19.4018 12.5205 19.3581 12.5472C19.3512 12.5514 19.2782 12.608 19.3228 12.5804C19.3675 12.5529 19.2519 12.608 19.3387 12.5754C19.3145 12.5844 19.2884 12.5884 19.2644 12.5964C19.1809 12.6276 19.3316 12.6004 19.2752 12.5964C19.2189 12.5924 19.1625 12.5987 19.1065 12.5964C19.0439 12.5933 19.089 12.5884 19.1239 12.599C19.0988 12.5914 19.0717 12.5884 19.0464 12.5819C19.014 12.5739 18.9821 12.5642 18.9508 12.5533C18.9374 12.5487 18.8631 12.5112 18.9178 12.5417C18.9804 12.5756 18.8829 12.5207 18.871 12.5133C18.8482 12.4998 18.8267 12.4849 18.8046 12.4712C18.8582 12.5059 18.8436 12.4994 18.801 12.4636C18.7814 12.4472 18.7223 12.3731 18.7914 12.4636C18.7219 12.3506 18.6121 12.2688 18.4845 12.2351C18.3568 12.2014 18.2213 12.2183 18.1057 12.2824C17.9004 12.4159 17.756 12.7488 17.9259 12.9736V12.975Z" fill="#211715"/>
<path d="M19.3546 12.0451V12.5275C19.3581 12.6604 19.4121 12.7868 19.5053 12.8807C19.5985 12.9747 19.724 13.0291 19.8558 13.0326L19.989 13.0145C20.0726 12.9913 20.1488 12.9465 20.2101 12.8847L20.2884 12.7824C20.3334 12.7051 20.357 12.6171 20.3569 12.5275V12.0451C20.3535 11.9123 20.2996 11.7858 20.2064 11.6918C20.1131 11.5978 19.9876 11.5434 19.8558 11.54L19.7225 11.5579C19.6389 11.5812 19.5627 11.6259 19.5014 11.6878L19.4231 11.7901C19.378 11.8674 19.3544 11.9555 19.3546 12.0451Z" fill="#211715"/>
<path d="M8.03905 12.5955C8.83252 12.4526 9.62599 12.3088 10.4316 12.2434C11.1392 12.1859 11.8515 12.1769 12.5614 12.1817C13.2064 12.1859 13.207 11.1757 12.5614 11.1715C11.8383 11.1667 11.1117 11.1759 10.3898 11.2365C9.50969 11.3108 8.64021 11.4649 7.77157 11.6213C7.64404 11.6579 7.5359 11.7436 7.47044 11.8598C7.40499 11.9761 7.38745 12.1136 7.42161 12.2428C7.45945 12.3705 7.54485 12.4786 7.65993 12.5443C7.77502 12.61 7.91086 12.6284 8.03905 12.5955Z" fill="#211715"/>
<path d="M10.0806 15.4865C10.2093 15.3739 10.3385 15.2622 10.4701 15.1529C10.5231 15.109 10.5765 15.0655 10.6302 15.0222C10.6273 15.0246 10.7332 14.9414 10.6968 14.9694C10.6636 14.9951 10.7363 14.9397 10.743 14.9347C10.9788 14.7575 11.2234 14.5923 11.4757 14.4397C11.7216 14.2905 11.9691 14.1425 12.2226 14.0066C12.3449 13.9411 12.4688 13.8786 12.5947 13.8203C12.6335 13.8022 12.6724 13.7847 12.7116 13.7675C12.726 13.761 12.7857 13.7361 12.7385 13.7557C12.8256 13.7195 12.9137 13.6858 13.0021 13.6528C13.1302 13.6172 13.2391 13.5317 13.3048 13.4152C13.3704 13.2986 13.3875 13.1606 13.3521 13.0314C13.3168 12.9022 13.232 12.7925 13.1164 12.7263C13.0008 12.6601 12.8638 12.643 12.7356 12.6786C11.4985 13.1668 10.3591 13.876 9.37194 14.7722C9.27857 14.8673 9.2262 14.9956 9.2262 15.1294C9.2262 15.2631 9.27857 15.3915 9.37194 15.4865C9.46741 15.5784 9.59431 15.6296 9.72628 15.6296C9.85826 15.6296 9.98516 15.5784 10.0806 15.4865Z" fill="#211715"/>
<path d="M31.6344 11.6213C30.7658 11.4649 29.8963 11.3108 29.0162 11.2365C28.295 11.1759 27.5687 11.1667 26.8446 11.1715C26.2 11.1757 26.1985 12.1859 26.8446 12.1817C27.5545 12.1769 28.2668 12.1859 28.9744 12.2434C29.7796 12.3088 30.5728 12.4526 31.3669 12.5955C31.495 12.6273 31.6303 12.6085 31.745 12.5429C31.8597 12.4773 31.945 12.3699 31.9836 12.2428C32.0177 12.1136 32.0002 11.9761 31.9347 11.8598C31.8693 11.7436 31.7611 11.6579 31.6336 11.6213H31.6344Z" fill="#211715"/>
<path d="M30.0345 14.7721C29.0538 13.8673 27.9126 13.1571 26.6708 12.6785C26.5427 12.6436 26.406 12.661 26.2906 12.7271C26.1751 12.7932 26.0903 12.9026 26.0544 13.0314C26.0225 13.1605 26.0411 13.2969 26.1062 13.4125C26.1714 13.5282 26.2781 13.6142 26.4044 13.6527C26.6658 13.7466 26.9201 13.8596 27.1653 13.9907C27.4271 14.1286 27.6796 14.2832 27.9299 14.4409C28.173 14.5941 28.4137 14.7511 28.6459 14.9209L28.724 14.9788C28.7326 14.9853 28.8284 15.0592 28.7913 15.0297C28.7601 15.0055 28.833 15.0632 28.8399 15.0685L28.9205 15.1339C29.0587 15.2478 29.1932 15.3654 29.3258 15.4864C29.42 15.5799 29.5471 15.632 29.6793 15.6315C29.8115 15.6309 29.9381 15.5778 30.0316 15.4835C30.1251 15.3893 30.1779 15.2617 30.1784 15.1284C30.1789 14.9952 30.1272 14.8671 30.0345 14.7721Z" fill="#211715"/>
<path d="M28.8134 5.6936C29.0329 4.0941 29.2666 2.0095 27.9417 0.795143C27.5934 0.49705 27.1879 0.274474 26.7505 0.141296C26.3131 0.00811727 25.8532 -0.0328082 25.3994 0.0210714C24.4339 0.132615 23.6066 0.631405 22.7831 1.11546C22.2264 1.44294 22.7302 2.31635 23.289 1.98761C23.9572 1.59468 24.66 1.11862 25.4475 1.02475C26.0703 0.950462 26.831 1.10894 27.2898 1.56353C28.2515 2.51649 28.0125 4.21743 27.8469 5.42463C27.816 5.55364 27.835 5.68967 27.9 5.80509C27.965 5.92051 28.0711 6.00668 28.1968 6.04612C28.325 6.08077 28.4615 6.0632 28.5769 5.99719C28.6923 5.93118 28.7773 5.82226 28.8134 5.6936Z" fill="#211715"/>
<path d="M27.8472 6.0003C28.5347 7.36876 28.834 8.90195 28.7121 10.4309C28.5848 11.4558 28.2308 12.4387 27.6762 13.3073C27.3421 13.865 28.2076 14.3732 28.5415 13.8172C28.8545 13.2638 29.1247 12.6868 29.3496 12.0914C29.5519 11.5593 29.6748 11 29.7144 10.4315C29.8795 8.71608 29.4481 7.02861 28.7121 5.49099C28.6441 5.37626 28.5342 5.29299 28.406 5.2591C28.2777 5.22522 28.1414 5.24342 28.0263 5.30979C27.9137 5.37936 27.8321 5.49012 27.7986 5.61893C27.7651 5.74773 27.7823 5.88461 27.8466 6.00094L27.8472 6.0003Z" fill="#211715"/>
<path d="M10.6937 5.4904C9.95823 7.02802 9.52684 8.71549 9.69138 10.4309C9.73091 10.9994 9.85384 11.5588 10.0562 12.0908C10.281 12.6862 10.5512 13.2632 10.8642 13.8166C11.1983 14.372 12.0647 13.8648 11.7295 13.3067C11.1745 12.4384 10.8205 11.4553 10.6937 10.4303C10.5724 8.9014 10.8717 7.36838 11.5585 5.99972C11.6222 5.88324 11.639 5.74659 11.6055 5.61797C11.5721 5.48936 11.4909 5.3786 11.3788 5.30857C11.2637 5.2422 11.1274 5.224 10.9991 5.25788C10.8709 5.29177 10.761 5.37504 10.693 5.48977L10.6937 5.4904Z" fill="#211715"/>
<path d="M25.315 3.50224C25.1718 3.35049 25.0716 3.25389 24.9373 3.10089C24.895 3.04515 24.8669 2.97985 24.8554 2.91066C24.8439 2.84147 24.8493 2.7705 24.8712 2.7039C24.8931 2.63731 24.9308 2.57712 24.981 2.52856C25.0313 2.48001 25.0925 2.44457 25.1595 2.42531C25.5123 2.30885 25.8807 2.24767 26.2519 2.2439C26.8329 2.31188 27.0005 2.88601 27.0467 3.08026C27.1551 3.52583 27.126 3.99416 26.9631 4.42258C26.9329 4.49278 26.8815 4.55164 26.8163 4.59084C26.7511 4.63003 26.6753 4.64759 26.5996 4.64103C26.52 4.61334 26.4496 4.56403 26.396 4.49855C26.0171 4.18718 25.6558 3.85455 25.314 3.50224" fill="#F8B8B4"/>
<path d="M14.0914 3.50224C14.2346 3.35049 14.3348 3.25389 14.4691 3.10089C14.5114 3.04514 14.5395 2.97982 14.551 2.91062C14.5625 2.84142 14.5571 2.77043 14.5351 2.70384C14.5132 2.63724 14.4755 2.57705 14.4252 2.52851C14.3749 2.47997 14.3137 2.44454 14.2467 2.42531C13.8941 2.30888 13.5259 2.24769 13.1549 2.2439C12.574 2.31188 12.4063 2.88601 12.3601 3.08026C12.2517 3.52583 12.2808 3.99416 12.4437 4.42258C12.4739 4.49278 12.5253 4.55164 12.5905 4.59084C12.6557 4.63003 12.7315 4.64759 12.8072 4.64103C12.8868 4.61334 12.9572 4.56403 13.0108 4.49855C13.3897 4.18718 13.751 3.85455 14.0928 3.50224" fill="#F8B8B4"/>
<path d="M13.1642 2.74896C13.2964 2.74593 13.4286 2.75388 13.5595 2.77274L13.4263 2.75485C13.556 2.77295 13.6848 2.79694 13.8122 2.82725C13.9347 2.85153 14.055 2.88617 14.1717 2.9308L14.0519 2.87987C14.0819 2.89393 14.1105 2.91092 14.1373 2.93059L14.0358 2.85166C14.0651 2.87494 14.0917 2.90149 14.1151 2.9308L14.0368 2.82851C14.0589 2.85816 14.0776 2.89012 14.0928 2.92385L14.0423 2.80326C14.0583 2.84226 14.0694 2.88312 14.0753 2.9249L14.0573 2.79063C14.0614 2.82756 14.0614 2.86483 14.0573 2.90175L14.0753 2.76748C14.0696 2.80516 14.0597 2.84209 14.0458 2.87755L14.0964 2.75696C14.0454 2.85249 13.9864 2.9434 13.9199 3.02866C13.8617 3.11642 13.8055 3.20566 13.755 3.29805C13.6879 3.41373 13.6691 3.55154 13.7028 3.68115C13.7365 3.81077 13.82 3.92158 13.9347 3.9892C14.0495 4.05682 14.1862 4.07572 14.3148 4.04174C14.4434 4.00776 14.5534 3.92367 14.6205 3.80799C14.6622 3.72928 14.7102 3.65331 14.7591 3.57838C14.8159 3.49146 14.8831 3.41001 14.9353 3.31952C15.0004 3.20768 15.0417 3.08348 15.0567 2.95476C15.0718 2.82603 15.0603 2.69555 15.0228 2.57154C14.9786 2.4331 14.9057 2.30575 14.8088 2.19798C14.7057 2.08949 14.5788 2.00701 14.4382 1.95721C14.2606 1.89144 14.077 1.84337 13.8901 1.81368C13.6515 1.76217 13.4081 1.73726 13.1642 1.73938C13.0317 1.74164 12.9049 1.79426 12.8093 1.8867C12.7389 1.95735 12.691 2.04746 12.6716 2.14561C12.6521 2.24375 12.6621 2.3455 12.7001 2.43795C12.7381 2.5304 12.8025 2.60938 12.8852 2.66486C12.9678 2.72035 13.0649 2.74984 13.1642 2.74959V2.74896Z" fill="#211715"/>
<path d="M26.2519 1.73889C26.0343 1.73699 25.8171 1.75723 25.6036 1.79929C25.4115 1.83161 25.2218 1.8774 25.036 1.9363C24.9121 1.97172 24.7968 2.03253 24.6972 2.11491C24.5977 2.19729 24.516 2.29948 24.4574 2.4151C24.3924 2.54711 24.3568 2.69184 24.353 2.83918C24.3541 2.988 24.3888 3.13462 24.4545 3.26788C24.5058 3.36327 24.5648 3.45422 24.631 3.5398C24.6892 3.62756 24.7454 3.71658 24.7957 3.80919C24.8637 3.92388 24.9736 4.00711 25.1018 4.04099C25.2301 4.07487 25.3663 4.05671 25.4814 3.99039C25.5941 3.92086 25.6758 3.81009 25.7093 3.68127C25.7428 3.55245 25.7256 3.41556 25.6612 3.29924C25.6109 3.20685 25.5545 3.11761 25.4962 3.02985C25.4298 2.94458 25.3709 2.85368 25.32 2.75815L25.3703 2.87874C25.3564 2.8433 25.3466 2.80637 25.3411 2.76867L25.3589 2.90295C25.3548 2.86602 25.3548 2.82875 25.3589 2.79182L25.3409 2.9261C25.3468 2.88432 25.3579 2.84345 25.3739 2.80445L25.3234 2.92504C25.3386 2.89136 25.3574 2.8594 25.3793 2.8297L25.301 2.93199C25.3244 2.90268 25.351 2.87613 25.3804 2.85286L25.2791 2.93178C25.3058 2.91207 25.3343 2.89508 25.3643 2.88106L25.2446 2.93199C25.3613 2.88733 25.4815 2.85269 25.604 2.82844C25.7314 2.79856 25.8602 2.77414 25.9899 2.75604L25.8567 2.77393C25.9875 2.75508 26.1197 2.74712 26.2519 2.75015C26.3845 2.74911 26.5114 2.69555 26.6051 2.60105C26.6989 2.50655 26.752 2.37869 26.7531 2.24505C26.7504 2.11193 26.6967 1.98501 26.6033 1.89086C26.5099 1.79671 26.384 1.74263 26.2519 1.73994V1.73889Z" fill="#211715"/>
<path d="M16.5036 2.05657C17.5595 1.76971 18.6789 1.73057 19.7672 1.72993C20.824 1.72845 21.877 1.85687 22.9029 2.11234C23.5293 2.27018 23.7956 1.29618 23.1693 1.13833C22.0563 0.860308 20.9139 0.719741 19.7672 0.719727C18.5925 0.719727 17.3766 0.772973 16.2371 1.08256C15.6151 1.25093 15.879 2.2262 16.5036 2.05657Z" fill="#211715"/>
<path d="M11.5596 5.42489C11.3871 4.17118 11.1566 2.54348 12.186 1.58316C12.4359 1.35855 12.7325 1.1931 13.0541 1.09894C13.3756 1.00477 13.714 0.984258 14.0444 1.03891C14.8022 1.16518 15.4674 1.60504 16.1183 1.98787C16.6764 2.31619 17.1815 1.44362 16.6242 1.11572C15.8435 0.656922 15.0502 0.168444 14.1403 0.0392221C13.6766 -0.0267572 13.2043 0.00833538 12.7552 0.142129C12.3062 0.275923 11.8908 0.505301 11.5373 0.814767C10.1456 2.03207 10.3679 4.05122 10.593 5.69365C10.6291 5.82237 10.7141 5.93157 10.8295 5.9976C10.9449 6.06362 11.0815 6.08115 11.2096 6.04638C11.3359 6.00774 11.4426 5.9217 11.5077 5.80605C11.5728 5.6904 11.5914 5.55395 11.5596 5.42489Z" fill="#211715"/>
<path d="M1.039 57.0524C0.934569 57.0025 0.839816 56.9342 0.759193 56.8508C0.64216 56.6935 0.561916 56.5115 0.524456 56.3186C0.486997 56.1256 0.493291 55.9266 0.542868 55.7364C0.616615 55.556 0.730148 55.3948 0.874861 55.2652C1.01957 55.1356 1.19167 55.0408 1.3781 54.9882C2.04655 54.7681 2.72895 54.5937 3.42066 54.4661C3.64317 55.3499 3.79146 56.251 3.86396 57.1599C3.00116 57.2046 2.19725 57.2178 1.54494 57.1905C1.36882 57.1791 1.19676 57.1321 1.039 57.0524Z" fill="#211715"/>
<path d="M11.0251 56.8137C10.6384 56.9477 10.3159 57.2234 10.1216 57.586C9.92726 57.9486 9.87537 58.3716 9.97622 58.771C10.0334 58.9753 10.1314 59.1656 10.2642 59.3303C10.3971 59.4949 10.562 59.6304 10.7488 59.7284C11.171 59.9574 11.6327 59.9471 12.0996 59.9652C13.0979 60.0037 14.0975 60.0129 15.096 59.9826C15.595 59.9672 16.0935 59.9416 16.5915 59.9058C17.0629 59.8942 17.5243 59.7652 17.9343 59.5304C18.1326 59.3983 18.2986 59.2224 18.4195 59.0162C18.5405 58.8099 18.6134 58.5786 18.6326 58.3398C18.6357 58.0867 18.5731 57.8372 18.4511 57.616C18.329 57.3948 18.1518 57.2096 17.9368 57.0787C17.3939 56.7245 16.8907 57.5988 17.4309 57.9509C17.4827 57.982 17.5269 58.0246 17.5599 58.0755C17.593 58.1264 17.6141 58.1842 17.6216 58.2446C17.6291 58.3049 17.6229 58.3662 17.6034 58.4238C17.5839 58.4814 17.5516 58.5337 17.509 58.5768C17.321 58.8135 16.923 58.8714 16.643 58.8925C15.7335 58.9602 14.8214 58.9905 13.9095 58.9912C13.4443 58.9912 12.9791 58.9841 12.5139 58.9701C12.3067 58.9638 12.0995 58.9562 11.8922 58.9474C11.697 58.9597 11.5012 58.9389 11.3128 58.8859C11.2019 58.8457 11.1056 58.7725 11.0368 58.676C10.9681 58.5795 10.9299 58.4642 10.9275 58.3454C10.9252 58.2265 10.9586 58.1098 11.0234 58.0105C11.0882 57.9113 11.1814 57.8342 11.2907 57.7894C11.4168 57.7506 11.5233 57.6646 11.5884 57.549C11.6535 57.4335 11.6722 57.2972 11.6406 57.1682C11.6044 57.0395 11.5195 56.9304 11.4042 56.8644C11.2888 56.7984 11.1523 56.7808 11.0242 56.8154L11.0251 56.8137Z" fill="#211715"/>
<path d="M28.0582 57.7878C28.1675 57.8325 28.2608 57.9096 28.3257 58.0088C28.3906 58.1081 28.4241 58.2249 28.4217 58.3438C28.4193 58.4626 28.3811 58.578 28.3122 58.6745C28.2434 58.771 28.1471 58.8442 28.036 58.8843C27.8645 58.9329 27.6863 58.9529 27.5084 58.9435C27.2838 58.9532 27.0593 58.9615 26.8348 58.9685C26.3697 58.9826 25.9045 58.9896 25.4393 58.9896C24.5272 58.9896 23.6151 58.9586 22.7058 58.8909C22.4256 58.8698 22.0286 58.8132 21.8399 58.5752C21.7972 58.5321 21.7649 58.4798 21.7454 58.4222C21.7259 58.3647 21.7196 58.3034 21.7271 58.243C21.7346 58.1827 21.7557 58.1249 21.7887 58.0739C21.8218 58.023 21.8659 57.9804 21.9177 57.9493C22.4575 57.5974 21.9555 56.7225 21.4118 57.0771C21.2292 57.19 21.0742 57.343 20.9586 57.5248C20.8429 57.7066 20.7696 57.9124 20.7441 58.1268C20.7186 58.3412 20.7416 58.5587 20.8113 58.7629C20.881 58.9671 20.9956 59.1527 21.1466 59.3059C21.7952 60.005 22.9749 59.9299 23.8402 59.9661C24.8377 60.0082 25.8369 60.0082 26.8348 59.9779C27.7117 59.9512 28.7547 60.0023 29.2444 59.1007C29.734 58.1991 29.2218 57.1609 28.3246 56.813C28.1965 56.7784 28.06 56.796 27.9447 56.862C27.8293 56.928 27.7444 57.0371 27.7082 57.1657C27.6759 57.2948 27.6942 57.4314 27.7594 57.5472C27.8246 57.6629 27.9316 57.7489 28.0582 57.787V57.7878Z" fill="#211715"/>
<path d="M27.8013 57.5074C28.5954 57.3317 29.3076 56.8914 29.823 56.2577C30.4114 55.5044 30.6298 54.595 30.7438 53.66C31.0203 51.3885 30.5208 49.0766 30.3028 46.82C29.9773 43.4527 29.8513 40.0733 29.6812 36.6969C29.5438 33.975 29.3952 31.2544 29.2354 28.5353C29.0746 25.8136 28.9075 23.0915 28.6852 20.3743C28.6117 19.4752 28.5367 18.5748 28.4229 17.6804C28.3997 17.4988 28.3761 17.3171 28.3479 17.1363C28.3433 17.1075 28.3396 17.0785 28.3342 17.0501C28.3431 17.0974 28.3442 17.1656 28.3375 17.0572C28.3304 16.9452 28.3216 16.8337 28.3166 16.7215C28.2834 15.9982 28.3268 15.2733 28.4459 14.5593C28.5026 14.1829 28.6028 13.8144 28.7445 13.4615C28.8074 13.3449 28.8239 13.2084 28.7904 13.08C28.757 12.9516 28.6763 12.8408 28.5647 12.7704C28.4497 12.7037 28.3133 12.6854 28.1851 12.7193C28.0568 12.7532 27.9469 12.8366 27.8792 12.9516C27.5594 13.7442 27.3768 14.5863 27.3392 15.4411C27.2842 16.0326 27.2891 16.6282 27.3538 17.2186C27.3734 17.366 27.397 17.5133 27.4181 17.6619C27.3916 17.4758 27.4267 17.7309 27.4329 17.7816C27.4445 17.8759 27.4556 17.9703 27.4661 18.0647C27.5146 18.4932 27.5559 18.9225 27.5948 19.3519C27.8261 21.906 27.9852 24.466 28.142 27.0269C28.314 29.833 28.4715 32.6401 28.6146 35.448C28.7664 38.3818 28.8756 41.3199 29.0854 44.2493C29.169 45.399 29.2663 46.5475 29.3888 47.6934C29.5091 48.8173 29.6764 49.9367 29.7647 51.0639C29.8839 52.1738 29.8314 53.2956 29.6091 54.3892C29.4783 55.0788 29.094 55.6932 28.5331 56.1095C28.2285 56.3099 27.8906 56.4534 27.5355 56.5332C26.909 56.6855 27.1742 57.66 27.8019 57.5072L27.8013 57.5074Z" fill="#211715"/>
<path d="M11.8715 56.5334C11.5276 56.464 11.2011 56.3255 10.9114 56.1262C10.6217 55.9268 10.3748 55.6707 10.1854 55.3732C9.71308 54.5928 9.62163 53.6078 9.59448 52.7144C9.58516 51.5954 9.6609 50.4773 9.82104 49.37C9.9601 48.2304 10.0864 47.0899 10.1862 45.946C10.4654 42.7435 10.583 39.53 10.7467 36.32C10.8859 33.5819 11.0365 30.8445 11.1985 28.1077C11.3577 25.4392 11.5224 22.7702 11.7456 20.1064C11.7861 19.6223 11.8291 19.1383 11.8774 18.6542C11.8977 18.452 11.9191 18.2499 11.9417 18.0477C11.9512 17.9635 11.961 17.8793 11.9711 17.7951C11.9759 17.756 11.9809 17.7171 11.9857 17.6779C11.9947 17.6061 12.0045 17.5441 11.9878 17.6604C12.1588 16.4794 12.1263 15.2774 11.8918 14.1075C11.8114 13.7095 11.6889 13.3215 11.5264 12.9499C11.4587 12.835 11.3488 12.7515 11.2205 12.7176C11.0922 12.6836 10.9558 12.702 10.8409 12.7687C10.7285 12.8386 10.6472 12.9493 10.6137 13.078C10.5802 13.2067 10.5972 13.3434 10.6611 13.4599C10.9636 14.1556 11.0442 14.9659 11.0808 15.7168C11.0971 16.0508 11.1017 16.3859 11.0889 16.7199C11.0849 16.8268 11.0783 16.9333 11.0703 17.04C11.0643 17.1242 11.0561 17.1412 11.0737 17.0385C11.0676 17.0743 11.0622 17.1101 11.0568 17.1459C10.9315 17.9574 10.8592 18.7771 10.7872 19.5946C10.5575 22.2095 10.3944 24.831 10.2357 27.451C10.0659 30.2501 9.91006 33.0502 9.76821 35.8511C9.60951 38.9421 9.49676 42.037 9.25224 45.1229C9.15974 46.2899 9.04866 47.4557 8.91043 48.618C8.77616 49.7471 8.61705 50.8756 8.59032 52.014C8.54856 53.8261 8.77825 55.9862 10.451 57.0356C10.8084 57.2535 11.198 57.4126 11.6051 57.5068C12.2315 57.6594 12.4992 56.686 11.8715 56.5328V56.5334Z" fill="#211715"/>
<path d="M7.03353 52.4409C6.64589 52.7167 6.24077 52.9666 5.82077 53.1891C5.26387 53.4544 4.68061 53.6594 4.08078 53.8007C3.40716 53.9672 2.72353 54.0831 2.05054 54.2572C1.48363 54.4045 0.830476 54.5615 0.413069 55.0077C0.2106 55.2334 0.0749684 55.5119 0.0215624 55.8114C-0.0318436 56.111 -0.000885428 56.4196 0.110924 56.7023C0.222574 56.9873 0.414791 57.2329 0.66372 57.4088C0.912648 57.5846 1.20733 57.6829 1.51119 57.6915C2.6115 57.7477 3.71449 57.7185 4.81035 57.6041C6.16489 57.5041 7.51859 57.353 8.8583 57.1272C8.98582 57.0907 9.094 57.0052 9.15951 56.889C9.22502 56.7729 9.2426 56.6354 9.20847 56.5064C9.17044 56.3789 9.08514 56.2711 8.9703 56.2054C8.85546 56.1397 8.71992 56.1212 8.59186 56.1536C6.51669 56.5077 4.41622 56.6897 2.31155 56.6979C1.97558 56.6979 1.43999 56.7821 1.16311 56.5404C1.10657 56.48 1.06257 56.4088 1.03366 56.331C1.00475 56.2533 0.991526 56.1705 0.994754 56.0875C0.997981 56.0045 1.0176 55.923 1.05246 55.8477C1.08732 55.7724 1.13672 55.7049 1.19777 55.6491C1.57362 55.3431 2.18188 55.2585 2.65044 55.1487C3.27687 55.0014 3.91164 54.8909 4.5341 54.7278C5.14187 54.5675 5.73305 54.349 6.29957 54.0753C6.72979 53.8501 7.14432 53.5956 7.54031 53.3137C8.07673 52.9574 7.57518 52.0821 7.03457 52.4413L7.03353 52.4409Z" fill="#211715"/>
<path d="M22.004 29.4779C21.4626 30.1266 21.0335 30.8624 20.7346 31.6547C20.4045 32.5728 20.1784 33.7528 20.6407 34.6609C21.1013 35.5659 22.176 36.0611 23.1599 36.0009C23.704 35.9756 24.2294 35.7935 24.6738 35.4763C25.0507 35.1718 25.3611 34.792 25.5854 34.3608C26.0001 33.6307 26.4267 32.8575 27.0538 32.2876C27.534 31.8513 26.8241 31.1387 26.3451 31.5733C25.8418 32.0712 25.4089 32.6367 25.0588 33.2538C24.694 33.845 24.4397 34.5637 23.7538 34.8478C23.0877 35.1237 22.1982 35.0111 21.7056 34.4503C21.1744 33.8454 21.3978 32.8767 21.6145 32.18C21.8576 31.4556 22.2297 30.7818 22.7125 30.1918C22.8029 30.0952 22.8532 29.9675 22.8532 29.8347C22.8532 29.7019 22.8029 29.5741 22.7125 29.4775C22.618 29.3837 22.4907 29.3311 22.3581 29.3311C22.2255 29.3311 22.0982 29.3837 22.0038 29.4775L22.004 29.4779Z" fill="#211715"/>
<path d="M22.8949 34.0706C22.7431 34.2354 22.6309 34.433 22.5669 34.6483C22.538 34.7441 22.5178 34.8423 22.5067 34.9417C22.4908 35.0428 22.4846 35.1452 22.4883 35.2475C22.4909 35.381 22.5431 35.5087 22.6345 35.6053C22.7285 35.7 22.856 35.7532 22.9889 35.7532C23.1218 35.7532 23.2492 35.7 23.3432 35.6053C23.3897 35.5583 23.4265 35.5025 23.4516 35.4411C23.4767 35.3797 23.4895 35.3139 23.4894 35.2475C23.485 35.1678 23.4881 35.0879 23.4988 35.0089L23.4808 35.1431C23.4956 35.0348 23.5236 34.9288 23.5643 34.8274L23.5138 34.9482C23.544 34.8745 23.5832 34.8049 23.6305 34.7409L23.5522 34.843C23.5679 34.8232 23.5842 34.8041 23.6015 34.786C23.6938 34.6899 23.7461 34.5619 23.7477 34.4282C23.7471 34.2943 23.6947 34.1659 23.6015 34.0704C23.5071 33.976 23.3795 33.923 23.2465 33.9231C23.1138 33.9244 22.9867 33.9772 22.8916 34.0704L22.8949 34.0706Z" fill="#211715"/>
<path d="M21.6312 33.5038C21.479 33.6796 21.3682 33.8878 21.3069 34.1129C21.2841 34.1919 21.2656 34.2721 21.2514 34.3532C21.2069 34.5161 21.1987 34.6868 21.2272 34.8533C21.2447 34.9172 21.2745 34.9771 21.3149 35.0294C21.3554 35.0818 21.4056 35.1256 21.4629 35.1583C21.5201 35.1911 21.5832 35.2121 21.6485 35.2203C21.7138 35.2285 21.7801 35.2236 21.8436 35.206C21.9693 35.1705 22.0766 35.0876 22.1432 34.9745C22.2087 34.856 22.2267 34.7168 22.1935 34.5853L22.1902 34.5725L22.2082 34.7068C22.2066 34.6875 22.2073 34.668 22.2102 34.6489L22.1925 34.7832C22.2138 34.5934 22.2591 34.4071 22.3272 34.2288L22.2766 34.3494C22.3055 34.2795 22.3428 34.2135 22.3877 34.1528L22.3094 34.2551C22.3192 34.2427 22.3303 34.2305 22.3399 34.2187C22.4314 34.1221 22.4836 33.9944 22.4861 33.8609C22.4854 33.727 22.433 33.5987 22.3399 33.5032C22.2459 33.4084 22.1185 33.3552 21.9856 33.3552C21.8527 33.3552 21.7252 33.4084 21.6312 33.5032V33.5038Z" fill="#211715"/>
<path d="M16.7749 30.3062C17.1807 30.8184 17.5017 31.3935 17.7252 32.009C17.9386 32.648 18.18 33.5641 17.8612 34.2018C17.5544 34.8153 16.782 35.0813 16.1366 34.9986C15.793 34.9619 15.4684 34.8214 15.2055 34.5953C14.9595 34.3343 14.7549 34.0367 14.5988 33.7129C14.1484 32.9051 13.7136 31.9957 12.9596 31.4305C12.8446 31.3637 12.7082 31.3454 12.5799 31.3793C12.4515 31.4132 12.3416 31.4967 12.2739 31.6117C12.2099 31.7281 12.1929 31.8648 12.2264 31.9935C12.2599 32.1223 12.3413 32.233 12.4537 32.3028C12.7605 32.5805 13.0133 32.9134 13.1991 33.2844C13.4497 33.7009 13.6712 34.1332 13.9199 34.5501C14.1384 34.9483 14.4416 35.2927 14.8078 35.5588C15.2201 35.8236 15.6918 35.9796 16.1796 36.0126C16.6404 36.052 17.1035 35.9728 17.5256 35.7824C17.9476 35.592 18.3148 35.2966 18.5926 34.9241C19.1727 34.1132 19.0363 32.9822 18.7922 32.0724C18.5286 31.1642 18.0832 30.32 17.4836 29.5919C17.3893 29.4978 17.262 29.4451 17.1293 29.4451C16.9966 29.4451 16.8693 29.4978 16.7749 29.5919C16.684 29.6882 16.6332 29.8161 16.6332 29.949C16.6332 30.082 16.684 30.2099 16.7749 30.3062Z" fill="#211715"/>
<path d="M15.7721 34.81C15.7868 34.8258 15.8007 34.8422 15.8139 34.8593L15.7356 34.757C15.78 34.8172 15.8169 34.8827 15.8456 34.9519L15.7951 34.8313C15.8364 34.9325 15.865 35.0386 15.8801 35.147L15.8621 35.0127C15.8741 35.1006 15.8769 35.1896 15.8707 35.2781C15.8705 35.3782 15.8997 35.4761 15.9548 35.5594C16.0098 35.6426 16.0882 35.7076 16.1799 35.7459C16.2716 35.7842 16.3726 35.7943 16.4699 35.7747C16.5673 35.7551 16.6567 35.7068 16.7268 35.6359L16.8051 35.5336C16.85 35.4563 16.8736 35.3683 16.8736 35.2787C16.8795 35.1991 16.8777 35.1191 16.8684 35.0398C16.8575 34.9177 16.8357 34.7967 16.8032 34.6785C16.7419 34.4614 16.6316 34.2615 16.4808 34.0945C16.3869 33.9997 16.2594 33.9465 16.1265 33.9465C15.9936 33.9465 15.8661 33.9997 15.7721 34.0945C15.6786 34.1897 15.626 34.3182 15.626 34.4522C15.6293 34.5856 15.6814 34.713 15.7721 34.81Z" fill="#211715"/>
<path d="M17.0459 34.2652C17.0538 34.2745 17.0613 34.2837 17.0688 34.2932L16.9905 34.1909C17.0334 34.2487 17.069 34.3116 17.0966 34.3782L17.0461 34.2574C17.1101 34.4247 17.1523 34.5996 17.1714 34.7779L17.1534 34.6436C17.1608 34.6814 17.1636 34.7199 17.1618 34.7583L17.1795 34.6238L17.176 34.6367C17.1419 34.7681 17.1601 34.9078 17.2265 35.026C17.2597 35.0833 17.3038 35.1335 17.3562 35.1736C17.4087 35.2137 17.4684 35.243 17.5321 35.2598C17.5958 35.2766 17.6621 35.2807 17.7274 35.2716C17.7926 35.2626 17.8554 35.2407 17.9122 35.2072C18.0233 35.1387 18.1051 35.0311 18.1419 34.9052C18.1711 34.7429 18.1649 34.5762 18.1237 34.4165C18.1106 34.3314 18.0929 34.2471 18.0707 34.164C18.0383 34.05 17.9964 33.939 17.9454 33.8321C17.8946 33.73 17.8302 33.6354 17.7539 33.5509C17.6839 33.48 17.5944 33.4317 17.4971 33.4121C17.3997 33.3925 17.2987 33.4025 17.207 33.4409C17.1153 33.4792 17.0369 33.5441 16.9819 33.6274C16.9268 33.7107 16.8976 33.8086 16.8978 33.9087L16.9158 34.043C16.9389 34.1272 16.9833 34.204 17.0446 34.2658L17.0459 34.2652Z" fill="#211715"/>
<path d="M2.94185 54.6168C3.0425 55.0212 3.12825 55.4289 3.1991 55.8398C3.21511 55.9345 3.2305 56.0295 3.24525 56.1246C3.2536 56.18 3.26175 56.2355 3.26968 56.2911L3.2797 56.3624C3.2726 56.3077 3.27302 56.3106 3.28096 56.3712C3.30713 56.5779 3.32975 56.7851 3.34882 56.9927C3.35169 57.1258 3.40541 57.2526 3.49878 57.3467C3.59215 57.4408 3.71795 57.4949 3.84996 57.4978C3.98241 57.4964 4.10903 57.4427 4.2027 57.3483C4.29636 57.2538 4.34963 57.1262 4.3511 56.9927C4.27102 56.1011 4.12302 55.217 3.90842 54.3483C3.89093 54.2843 3.86111 54.2245 3.82066 54.1721C3.78021 54.1198 3.72992 54.076 3.67267 54.0432C3.61543 54.0104 3.55234 53.9893 3.48701 53.9812C3.42168 53.973 3.35539 53.9778 3.29192 53.9955C3.22845 54.0131 3.16905 54.0432 3.11711 54.0839C3.06517 54.1247 3.02171 54.1754 2.9892 54.2331C2.9567 54.2908 2.93578 54.3544 2.92766 54.4202C2.91954 54.4861 2.92436 54.5529 2.94185 54.6168Z" fill="#211715"/>
<path d="M17.5341 57.779C17.9405 57.7112 18.3424 57.6182 18.7374 57.5003C19.0442 57.4081 19.3789 57.2267 19.7032 57.2267C20.0274 57.2267 20.3615 57.4081 20.6691 57.5003C21.0641 57.6183 21.466 57.7113 21.8725 57.779C22.0005 57.8106 22.1357 57.7917 22.2504 57.726C22.365 57.6604 22.4504 57.5531 22.4891 57.426C22.5233 57.2969 22.5058 57.1593 22.4403 57.0431C22.3748 56.9268 22.2665 56.8412 22.1389 56.8048C21.7033 56.7323 21.273 56.6306 20.8508 56.5004C20.4722 56.3826 20.107 56.2163 19.7023 56.2163C19.2977 56.2163 18.9333 56.383 18.5539 56.5004C18.1317 56.6306 17.7014 56.7323 17.2657 56.8048C17.1381 56.8412 17.0299 56.9268 16.9644 57.0431C16.8988 57.1593 16.8813 57.2969 16.9156 57.426C16.9535 57.5535 17.0388 57.6614 17.1536 57.7272C17.2685 57.7929 17.4041 57.8115 17.5322 57.779H17.5341Z" fill="#211715"/>
</g>
<defs>
<clipPath id="clip0_108_5122">
<rect width="32" height="60" fill="white"/>
</clipPath>
</defs>
</svg>
