<svg width="50" height="50" viewBox="0 0 50 50" fill="none" xmlns="http://www.w3.org/2000/svg">
<g clip-path="url(#clip0_107_4202)">
<path d="M0.485718 49.5351C0.934369 48.6533 1.31691 47.7404 1.83343 46.8897C2.29037 46.1371 3.13214 44.3307 4.84795 42.8884C5.75618 42.1242 7.98833 40.5752 11.3905 39.0723C12.1503 38.7366 13.0289 38.3343 13.8915 37.9684C17.1647 40.0871 21.0352 41.2201 24.9975 41.2195C28.9599 41.2189 32.83 40.0846 36.1024 37.9648C36.9675 38.3328 37.8493 38.7359 38.6115 39.0726C42.0139 40.5756 44.2459 42.1245 45.1543 42.8887C46.869 44.3312 47.7104 46.1371 48.1677 46.89C48.6837 47.7407 49.0668 48.6536 49.5149 49.5354L0.485718 49.5351Z" fill="white"/>
<path d="M37.4331 19.2436C37.6314 19.0803 37.8647 18.9596 38.1167 18.8896C38.3688 18.8196 38.6339 18.8021 38.8938 18.8382C39.1488 18.8723 39.3925 18.9603 39.607 19.0956C39.8214 19.2309 40.0012 19.4101 40.1331 19.62C40.2859 19.9096 40.3729 20.2265 40.3883 20.5501C40.4997 21.816 40.2421 23.0866 39.6437 24.2231C39.3616 24.7974 38.9521 25.3072 38.4434 25.7177C38.0301 26.0357 37.537 26.2465 37.0123 26.3297C37.0123 26.3297 36.9241 26.3426 36.7672 26.3658C36.6498 26.7828 36.5178 27.134 36.4531 27.3205C36.054 28.3483 33.8969 31.7988 31.1373 33.2776C31.1805 33.7541 31.2487 34.2309 31.3355 34.7014C31.4777 35.4758 31.4343 36.1651 32.5629 36.5525C32.6185 36.57 34.35 37.3503 35.3176 37.7845C35.3176 37.7845 35.8805 38.0208 36.2872 38.1928C35.4271 39.8244 31.8 43.485 25.3329 43.485C18.2151 43.485 14.3179 39.6777 13.8024 38.1996C14.1485 38.0385 15.2787 37.565 15.2787 37.565C16.3392 37.1046 17.5512 36.5677 17.5944 36.5531C18.726 36.1658 18.6796 35.4765 18.8249 34.7021C18.9222 34.169 18.9939 33.6845 19.0364 33.1499C17.9531 32.5185 16.99 31.718 16.1878 30.7821C15.0821 29.495 14.2755 28.0007 13.821 26.3972C13.5304 26.3554 13.3545 26.3303 13.3545 26.3303C12.8297 26.2472 12.3366 26.0363 11.9234 25.7183C11.4147 25.3078 11.0053 24.798 10.7231 24.2237C10.1247 23.0873 9.86708 21.8167 9.97843 20.5508C9.99385 20.2272 10.0808 19.9103 10.2337 19.6206C10.3655 19.4107 10.5453 19.2315 10.7598 19.0962C10.9743 18.961 11.218 18.873 11.473 18.8389C11.7329 18.8028 11.9979 18.8203 12.25 18.8903C12.5021 18.9602 12.7353 19.081 12.9337 19.2443C12.9337 19.2443 12.9626 10.1099 25.2839 10.1099C37.9259 10.1092 37.4331 19.2436 37.4331 19.2436Z" fill="white"/>
<path d="M20.118 0.860975C17.94 1.32277 15.7905 2.26594 13.9785 3.99655L15.3851 4.70556C13.3772 5.72984 11.7901 7.97227 11.0823 9.94423C10.2918 12.1465 10.0572 15.2826 11.0014 18.9879C11.1356 18.9336 11.2766 18.8958 11.4209 18.8755C11.705 18.8351 11.9951 18.8597 12.2671 18.9472C12.5392 19.0346 12.7853 19.1825 12.9849 19.3784C16.5163 16.1727 19.5934 14.2707 22.6984 11.957C22.716 12.153 23.3778 13.7219 23.5326 13.7816C23.7393 13.8614 25.9685 12.5369 27.5746 11.5966C27.7229 11.6215 30.2027 12.1765 30.2027 12.1765C31.2923 12.55 32.3004 13.1101 33.1769 13.829C34.9838 15.3042 36.4371 17.4402 37.3233 19.3408C37.5214 19.1571 37.7616 19.0195 38.0252 18.9388C38.2887 18.8581 38.5684 18.8364 38.8422 18.8755C38.9506 18.8908 39.0571 18.9157 39.1606 18.9499C40.068 16.7384 40.2007 13.5338 39.0548 10.4932C38.2488 8.35529 36.2395 6.11521 34.8127 5.49117L32.7524 4.0862C30.9964 1.80431 28.3427 0.602227 24.598 0.493175C23.0944 0.438201 21.5894 0.561758 20.118 0.860975Z" fill="#734E30"/>
<path d="M15.4752 38.0059C16.1098 37.73 16.7438 37.4525 17.3771 37.1734C17.5149 37.1235 17.649 37.0651 17.7787 36.9987C17.6494 37.0488 17.6373 37.0548 17.7422 37.0165C17.8039 36.9931 17.8653 36.9689 17.9263 36.944C18.007 36.9116 18.0859 36.8752 18.1627 36.8349C18.2975 36.7615 18.4239 36.6751 18.5399 36.577C18.9364 36.2453 19.0979 35.7678 19.1777 35.2883C19.2929 34.5972 19.4164 33.9082 19.4762 33.2103C19.4751 33.0864 19.4227 32.9679 19.3304 32.8803C19.2381 32.7927 19.1132 32.743 18.9826 32.7419C18.8525 32.7443 18.7283 32.7944 18.6363 32.8817C18.5443 32.969 18.4915 33.0868 18.489 33.2103C18.4361 33.8251 18.3272 34.4312 18.2258 35.0392C18.1989 35.2316 18.1516 35.421 18.0848 35.6044C18.12 35.5172 18.0483 35.6728 18.0384 35.6895C18.0157 35.7282 17.9906 35.7656 17.9631 35.8014C18.0128 35.7377 17.9113 35.8516 17.8975 35.8646C17.8838 35.8777 17.7815 35.9591 17.8133 35.9369C17.5191 36.1436 17.1162 36.2602 16.7834 36.4064C16.1812 36.6705 15.5788 36.9341 14.9761 37.1972C14.864 37.2607 14.7826 37.3634 14.7497 37.4833C14.7167 37.6032 14.7347 37.7306 14.7998 37.8379C14.8681 37.9429 14.9764 38.0189 15.1022 38.05C15.2279 38.0812 15.3615 38.0651 15.4752 38.0052V38.0059Z" fill="#211715"/>
<path d="M30.5917 33.319C30.6516 33.9571 30.7646 34.5863 30.8654 35.219C30.9088 35.6639 31.0851 36.0878 31.3735 36.441C31.5491 36.6299 31.7632 36.7831 32.003 36.8911C32.0924 36.9326 32.185 36.9689 32.2773 37.004C32.3018 37.0134 32.4608 37.0756 32.3311 37.0219C32.2142 36.9734 32.3523 37.0326 32.3826 37.0458C32.7404 37.2027 33.0962 37.3636 33.4525 37.5237C33.9737 37.7578 34.495 37.992 35.0163 38.2262C35.1301 38.2856 35.2635 38.3013 35.3891 38.2702C35.5148 38.2391 35.623 38.1635 35.6917 38.0589C35.7567 37.9515 35.7746 37.8242 35.7416 37.7043C35.7087 37.5845 35.6274 37.4817 35.5154 37.4181C34.6017 37.0082 33.6957 36.5753 32.7702 36.1898C32.5227 36.111 32.2957 35.983 32.1044 35.8145C32.0665 35.7715 32.0619 35.7676 32.091 35.8024C32.0729 35.7783 32.0556 35.7537 32.0392 35.7285C32.0069 35.6789 31.9785 35.6272 31.9542 35.5738C31.9935 35.6609 31.9311 35.4977 31.926 35.4811C31.9084 35.4246 31.8936 35.3672 31.8805 35.3095C31.7372 34.6526 31.6367 33.9878 31.5798 33.3191C31.5765 33.1959 31.5235 33.0786 31.4316 32.9914C31.3397 32.9043 31.216 32.8539 31.0862 32.8508C30.9555 32.8517 30.8306 32.9014 30.7382 32.989C30.6458 33.0766 30.5935 33.1952 30.5926 33.3191L30.5917 33.319Z" fill="#211715"/>
<path d="M36.4476 25.0775C36.4171 25.5926 36.3153 26.1017 36.1449 26.5916C36.0867 26.7746 36.0229 26.9556 35.9589 27.1367C35.9431 27.1814 35.9277 27.226 35.9103 27.2705C35.9024 27.2903 35.8927 27.3097 35.8856 27.3296C35.8574 27.4084 35.9401 27.2155 35.8925 27.3139C35.6499 27.8083 35.3732 28.2869 35.0639 28.7466C34.1811 30.0754 33.1315 31.3142 31.8014 32.301C31.0985 32.8454 30.2785 33.2372 29.3989 33.4489C28.7798 33.5827 29.0418 34.4859 29.6614 34.3521C31.4802 33.9583 33.003 32.7084 34.2008 31.4083C35.2102 30.3482 36.054 29.1561 36.7062 27.8685C37.1368 26.992 37.384 26.0446 37.4343 25.0788C37.4537 24.4767 36.4665 24.4767 36.4471 25.0788L36.4476 25.0775Z" fill="#211715"/>
<path d="M12.9 24.8972C13.1859 26.6073 13.8054 28.2517 14.7267 29.7462C15.786 31.4074 17.3322 32.9086 19.1556 33.8132C20.111 34.2885 21.1536 34.5857 22.2269 34.6888C22.3575 34.688 22.4825 34.6384 22.5749 34.5508C22.6673 34.4631 22.7196 34.3445 22.7205 34.2205C22.7176 34.0972 22.6647 33.9796 22.5727 33.8923C22.4808 33.8051 22.3569 33.7549 22.2269 33.7522C20.491 33.5836 18.9019 32.7518 17.631 31.6364C16.2084 30.3881 15.1333 28.8252 14.5018 27.087C14.2159 26.2922 13.9986 25.4767 13.852 24.6485C13.8162 24.5293 13.7325 24.4282 13.6189 24.367C13.5053 24.3058 13.3709 24.2894 13.2447 24.3214C13.12 24.3568 13.0146 24.4365 12.9504 24.5438C12.8862 24.6512 12.8682 24.7779 12.9 24.8976V24.8972Z" fill="#211715"/>
<path d="M37.7299 19.6118C37.9385 19.4489 38.1948 19.3506 38.4641 19.33C38.7334 19.3094 39.0029 19.3676 39.2363 19.4968C39.7861 19.8039 39.847 20.3983 39.8655 20.9564C39.9097 22.3002 39.5163 23.7439 38.6539 24.8276C38.2172 25.4009 37.5627 25.7907 36.8287 25.9148C36.7031 25.9486 36.5965 26.028 36.532 26.1358C36.4675 26.2436 36.4503 26.3711 36.4841 26.4908C36.5215 26.609 36.6054 26.709 36.7185 26.7699C36.8316 26.8308 36.9651 26.8481 37.0912 26.818C38.9121 26.5283 39.9982 24.8972 40.507 23.3454C40.7766 22.5251 40.8914 21.6662 40.846 20.8081C40.798 19.9559 40.5549 19.1457 39.7354 18.6876C39.3124 18.4583 38.8244 18.3603 38.3398 18.4072C37.8552 18.4541 37.3981 18.6435 37.0325 18.949C36.9411 19.0374 36.8899 19.1563 36.8899 19.2802C36.8899 19.404 36.9411 19.5229 37.0325 19.6113C37.1263 19.697 37.2514 19.7448 37.3816 19.7448C37.5117 19.7448 37.6368 19.697 37.7306 19.6113L37.7299 19.6118Z" fill="#211715"/>
<path d="M13.2306 18.9502C12.911 18.6817 12.5197 18.5017 12.0995 18.4301C11.6794 18.3584 11.2465 18.3978 10.8484 18.5439C10.4511 18.6927 10.1068 18.9458 9.85589 19.2737C9.61549 19.6264 9.47499 20.0319 9.44796 20.4512C9.24611 22.0975 9.71151 23.9612 10.7562 25.3016C11.349 26.0617 12.1688 26.6601 13.1713 26.8197C13.2974 26.849 13.4305 26.8314 13.5434 26.7706C13.6563 26.7097 13.7404 26.6103 13.7785 26.4925C13.8122 26.3728 13.795 26.2452 13.7305 26.1375C13.6659 26.0297 13.5593 25.9503 13.4336 25.9165C12.033 25.6937 11.2159 24.5001 10.781 23.3103C10.5359 22.6488 10.4049 21.9541 10.3932 21.253C10.3862 20.6949 10.377 19.9867 10.8651 19.6017C11.1021 19.4218 11.397 19.3246 11.7005 19.3267C12.004 19.3287 12.2975 19.4297 12.5318 19.6127C12.6258 19.6977 12.7508 19.7452 12.8807 19.7452C13.0106 19.7452 13.1356 19.6977 13.2297 19.6127C13.3212 19.5243 13.3725 19.4054 13.3725 19.2815C13.3725 19.1577 13.3212 19.0387 13.2297 18.9504L13.2306 18.9502Z" fill="#211715"/>
<path d="M34.5629 5.89541C35.2753 6.2132 35.8287 6.71045 36.3678 7.26491C37.0281 7.9462 37.5951 8.70391 38.0552 9.52005C39.057 11.2913 39.442 13.4085 39.3773 15.4042C39.3505 16.4216 39.1713 17.4303 38.8451 18.3999C38.648 18.9745 39.6011 19.2207 39.7971 18.649C40.4747 16.6728 40.5135 14.5142 40.125 12.481C39.9293 11.3952 39.5747 10.3406 39.0713 9.34794C38.5981 8.45416 38.0079 7.62059 37.3148 6.86701C36.6868 6.17674 35.9417 5.47961 35.0615 5.08672C34.9477 5.02735 34.8143 5.0116 34.6887 5.04271C34.5631 5.07382 34.4548 5.14943 34.3861 5.25397C34.3211 5.36138 34.3031 5.48872 34.3361 5.60858C34.3691 5.72843 34.4503 5.8312 34.5624 5.89474L34.5629 5.89541Z" fill="#211715"/>
<path d="M27.73 10.9555C26.6739 11.5703 25.6269 12.2005 24.5553 12.7913C24.3437 12.9084 24.1322 13.0226 23.9164 13.1317C23.8353 13.1726 23.7539 13.2129 23.6712 13.2511C23.6391 13.266 23.6061 13.2795 23.5742 13.2946C23.4736 13.3419 23.6782 13.2665 23.5636 13.2989C23.4767 13.3235 23.4027 13.3156 23.5617 13.3156C23.6652 13.3383 23.764 13.377 23.8542 13.4304C23.8339 13.4113 23.9247 13.5443 23.8667 13.4392C23.7773 13.2768 23.6885 13.1164 23.6098 12.9487C23.5847 12.8949 23.5599 12.8411 23.5356 12.7871C23.5659 12.854 23.4944 12.6924 23.4847 12.67C23.4358 12.5565 23.3882 12.4424 23.3428 12.3276C23.3029 12.2273 23.264 12.1278 23.2291 12.0266C23.2074 11.964 23.1633 11.7432 23.191 11.9567C23.1873 11.8656 23.1562 11.7775 23.1014 11.7027C23.0465 11.628 22.9702 11.5697 22.8815 11.5348C22.7928 11.5 22.6954 11.49 22.6009 11.5061C22.5064 11.5221 22.4188 11.5636 22.3483 11.6255C19.9647 13.4003 17.4766 15.0446 15.1576 16.8981C14.4125 17.4938 13.6843 18.1078 12.9732 18.7403C12.5087 19.1534 13.2078 19.8148 13.6711 19.4026C15.9775 17.3514 18.4935 15.5574 21.0182 13.7599C21.6992 13.2748 22.3767 12.7864 23.0464 12.288L22.2038 11.9568C22.2605 12.3934 22.4858 12.8182 22.6646 13.219C22.8128 13.55 22.9962 14.134 23.4156 14.2361C23.8022 14.3302 24.2633 14.0208 24.5835 13.8534C25.1453 13.5595 25.6941 13.2424 26.2406 12.9253C26.9045 12.5406 27.5645 12.15 28.2275 11.764C28.7682 11.4494 28.2728 10.6388 27.7293 10.9553L27.73 10.9555Z" fill="#211715"/>
<path d="M30.0709 12.628C31.2785 13.0678 32.3812 13.7319 33.3146 14.5814C34.2646 15.4639 35.0905 16.4589 35.7721 17.5419C36.1543 18.1378 36.4998 18.7543 36.8067 19.3882C36.8736 19.4946 36.9819 19.5718 37.1083 19.6031C37.2346 19.6344 37.3689 19.6173 37.4821 19.5555C37.5928 19.4908 37.6729 19.388 37.7057 19.2687C37.7385 19.1493 37.7216 19.0225 37.6584 18.9147C37.0882 17.7314 36.3811 16.6118 35.5501 15.5768C34.6629 14.4774 33.6425 13.4596 32.4142 12.6999C31.7574 12.308 31.0598 11.9812 30.3326 11.7248C30.2063 11.6927 30.0719 11.7091 29.9582 11.7703C29.8446 11.8315 29.7609 11.9327 29.7252 12.052C29.6935 12.1716 29.7116 12.2983 29.7759 12.4056C29.8401 12.5129 29.9455 12.5926 30.0701 12.628H30.0709Z" fill="#211715"/>
<path d="M15.9556 3.95208C13.7728 4.72464 12.1526 6.60194 11.162 8.54431C10.1924 10.4459 9.85096 12.5719 9.89627 14.6713C9.93762 16.1594 10.1462 17.6391 10.5186 19.0852C10.6659 19.6706 11.6181 19.4232 11.4705 18.8362C10.4507 14.7803 10.5304 10.1416 13.5045 6.81219C14.24 5.98878 15.1512 5.23277 16.2181 4.85527C16.3424 4.81939 16.4475 4.73962 16.5116 4.63242C16.5758 4.52521 16.5941 4.39874 16.5629 4.27907C16.5272 4.15984 16.4435 4.05873 16.3299 3.99755C16.2162 3.93638 16.0818 3.92004 15.9556 3.95208Z" fill="#211715"/>
<path d="M33.1772 3.84905C32.4217 2.85487 31.4559 2.02122 30.3415 1.4014C29.1497 0.768955 27.8427 0.355884 26.4892 0.183932C23.6842 -0.203604 20.6432 0.00229 17.9894 0.982754C16.3555 1.57999 14.8707 2.49355 13.6294 3.66523C13.1797 4.09207 13.8775 4.75458 14.3275 4.32757C16.3097 2.44659 18.9498 1.38601 21.7009 1.07391C24.2421 0.785725 27.0807 0.884239 29.3834 1.97576C30.5467 2.52487 31.5553 3.32906 32.3258 4.32172C32.3944 4.42625 32.5026 4.5019 32.6282 4.53315C32.7538 4.56441 32.8872 4.5489 33.0011 4.48981C33.1133 4.42636 33.1947 4.32359 33.2276 4.2037C33.2606 4.08381 33.2426 3.95642 33.1774 3.84905H33.1772Z" fill="#211715"/>
<path d="M15.6906 36.7679C14.2135 37.2596 12.8049 37.9271 11.3892 38.5575C9.94547 39.1876 8.54425 39.9018 7.19353 40.6961C6.31074 41.2129 5.46719 41.7878 4.6691 42.4165C3.63818 43.2756 2.77185 44.2976 2.10852 45.4372C1.83863 45.8828 1.58936 46.3404 1.32616 46.7886C0.850185 47.6002 0.482979 48.4632 0.0591843 49.2992C-0.00348454 49.4072 -0.0200437 49.5339 0.0129271 49.6531C0.0458979 49.7723 0.12588 49.875 0.236353 49.9399C0.349566 50.0016 0.483772 50.0186 0.610082 49.9873C0.736392 49.956 0.844706 49.879 0.911709 49.7727C1.27662 49.0525 1.59923 48.3132 1.986 47.603C2.22382 47.1663 2.47961 46.7364 2.72853 46.3049C3.37338 45.1843 4.1323 44.1306 5.13714 43.2699C5.272 43.1544 5.41074 43.0432 5.55159 42.9343C5.62528 42.8772 5.69967 42.8209 5.77477 42.7652L5.83859 42.7179C5.76313 42.7728 5.82378 42.7289 5.83859 42.7179C5.88495 42.6845 5.93114 42.651 5.97768 42.6176C6.4094 42.3103 6.85365 42.0189 7.30565 41.7394C8.57005 40.9627 9.88661 40.2652 11.2469 39.6514C12.7889 38.9506 14.3369 38.209 15.9524 37.6711C16.0768 37.6354 16.1821 37.5557 16.2462 37.4484C16.3104 37.3411 16.3286 37.2145 16.297 37.0949C16.2612 36.9757 16.1775 36.8747 16.0639 36.8135C15.9504 36.7524 15.816 36.736 15.6899 36.7679H15.6906Z" fill="#211715"/>
<path d="M34.0461 37.6711C35.4648 38.1434 36.8138 38.7897 38.1742 39.3938C39.5869 40.0112 40.9582 40.7106 42.2801 41.4882C42.7702 41.7804 43.252 42.0855 43.7211 42.4073C43.8159 42.4724 43.9099 42.5382 44.0031 42.6047C44.0443 42.6338 44.0854 42.6631 44.1265 42.6927L44.1942 42.7418C44.1151 42.6843 44.1921 42.7403 44.2083 42.7524C44.3553 42.8623 44.5013 42.9733 44.6441 43.0882C45.6213 43.9025 46.4407 44.8727 47.0654 45.955C47.3381 46.4083 47.5955 46.8708 47.8598 47.3287C48.3169 48.1205 48.6751 48.9586 49.0872 49.7715C49.1542 49.8778 49.2625 49.9549 49.3888 49.9862C49.5151 50.0174 49.6492 50.0004 49.7624 49.9388C49.8733 49.8742 49.9535 49.7714 49.9863 49.652C50.0192 49.5326 50.0021 49.4058 49.9387 49.298C48.7426 46.9382 47.6346 44.3671 45.5298 42.5811C44.8028 41.9814 44.0292 41.4346 43.2156 40.9453C41.9194 40.1477 40.5682 39.4333 39.1713 38.8071C37.576 38.0859 35.9771 37.3232 34.3073 36.7666C34.1812 36.7348 34.0469 36.7512 33.9334 36.8124C33.8198 36.8735 33.7361 36.9745 33.7002 37.0935C33.668 37.2132 33.686 37.3401 33.7502 37.4476C33.8145 37.555 33.9202 37.6346 34.045 37.6697L34.0461 37.6711Z" fill="#211715"/>
<path d="M13.6412 38.3713C16.2378 40.0531 19.2158 41.1299 22.3334 41.5145C25.4746 41.9106 28.6699 41.6017 31.6624 40.6126C33.3231 40.0667 34.8991 39.3118 36.3481 38.368C36.4585 38.303 36.5383 38.2003 36.5712 38.081C36.604 37.9618 36.5872 37.8351 36.5244 37.7272C36.4573 37.621 36.349 37.5439 36.2227 37.5126C36.0964 37.4814 35.9623 37.4984 35.849 37.56C33.3671 39.1772 30.5183 40.2165 27.5337 40.5934C24.5349 40.9669 21.4856 40.6698 18.6295 39.7258C17.0364 39.2008 15.5257 38.4734 14.1385 37.5633C14.0253 37.5017 13.8911 37.4848 13.7649 37.516C13.6386 37.5473 13.5303 37.6244 13.4632 37.7306C13.3997 37.8383 13.3825 37.9652 13.4154 38.0846C13.4482 38.2041 13.5285 38.3068 13.6395 38.3713H13.6412Z" fill="#211715"/>
<path d="M22.9605 28.534C23.67 28.8811 24.4601 29.0537 25.2582 29.0358C26.0691 29.0308 26.9021 28.8853 27.5535 28.4031C27.764 28.2475 27.7255 27.9041 27.5535 27.7407C27.4593 27.6558 27.3344 27.6084 27.2044 27.6084C27.0745 27.6084 26.9495 27.6558 26.8554 27.7407C26.9976 27.6357 26.8614 27.733 26.825 27.7553C26.7778 27.7841 26.729 27.8107 26.6793 27.8354C26.6503 27.8498 26.4887 27.9179 26.5975 27.876C26.5314 27.9015 26.4642 27.9247 26.3963 27.9453C26.0035 28.0602 25.5932 28.1122 25.1824 28.0992C24.7905 28.1059 24.3998 28.056 24.0237 27.9511C23.9502 27.9302 23.8782 27.9055 23.8056 27.8816C23.7818 27.8739 23.7589 27.864 23.7351 27.8556C23.8551 27.898 23.7481 27.8612 23.7257 27.8513C23.6355 27.8112 23.5466 27.7688 23.4585 27.7247C23.3449 27.6646 23.2112 27.6484 23.0854 27.6796C22.9595 27.7107 22.8513 27.7868 22.7831 27.8919C22.7184 27.9994 22.7006 28.1266 22.7336 28.2463C22.7665 28.3661 22.8476 28.4688 22.9594 28.5325L22.9605 28.534Z" fill="#211715"/>
<path d="M25.0616 23.3324C25.1703 23.7043 25.2573 24.0817 25.3221 24.4627L25.3045 24.3381C25.3122 24.3898 25.3137 24.4422 25.3089 24.4942L25.3265 24.3697C25.323 24.3936 25.3171 24.417 25.3089 24.4398L25.3588 24.3279C25.3515 24.3436 25.3427 24.3587 25.3327 24.3731L25.4097 24.2784C25.3982 24.2918 25.3852 24.304 25.3709 24.3147L25.4707 24.2414C25.4405 24.2593 25.409 24.2752 25.3764 24.2889L25.4943 24.2416C25.4435 24.2622 25.3902 24.2771 25.3357 24.2858L25.4668 24.269C25.4172 24.2745 25.3671 24.2745 25.3175 24.269L25.4489 24.2858C25.3925 24.2782 25.3373 24.2653 25.281 24.2582C25.1524 24.2297 25.0172 24.2465 24.9006 24.3053C24.7877 24.3681 24.7057 24.4709 24.6726 24.5911C24.6396 24.7112 24.6582 24.8389 24.7243 24.9461C24.7555 24.9991 24.7978 25.0455 24.8485 25.0825C24.8992 25.1195 24.9573 25.1463 25.0193 25.1613C25.137 25.1764 25.2513 25.2052 25.3708 25.21C25.5461 25.2114 25.7193 25.173 25.8758 25.098C25.973 25.0574 26.0592 24.9965 26.128 24.9198C26.1968 24.8431 26.2464 24.7527 26.2732 24.6552C26.3081 24.4936 26.3061 24.3267 26.2674 24.1658C26.2027 23.8017 26.1138 23.4409 26.0151 23.0837C25.9803 22.9639 25.8968 22.8622 25.7829 22.8008C25.669 22.7395 25.5341 22.7236 25.4079 22.7566C25.2816 22.7896 25.1744 22.8689 25.1098 22.9769C25.0451 23.085 25.0283 23.2129 25.0631 23.3327L25.0616 23.3324Z" fill="#211715"/>
<path d="M18.6494 20.1607C18.4504 20.7741 18.5801 22.1846 19.805 22.3052C21.4238 22.296 21.5098 20.5901 20.9649 19.7879C20.5187 19.1311 19.2068 18.858 18.6494 20.1607Z" fill="#211715"/>
<path d="M31.613 20.1607C31.8119 20.7741 31.6823 22.1846 30.4575 22.3052C28.8386 22.296 28.7524 20.5899 29.2973 19.7879C29.7435 19.1311 31.0554 18.858 31.613 20.1607Z" fill="#211715"/>
</g>
<defs>
<clipPath id="clip0_107_4202">
<rect width="50" height="50" fill="white"/>
</clipPath>
</defs>
</svg>
