<svg width="38" height="56" viewBox="0 0 38 56" fill="none" xmlns="http://www.w3.org/2000/svg">
<g clip-path="url(#clip0_108_5157)">
<path d="M4.50366 36.3022C5.27368 29.6323 6.30857 24.7691 8.80926 18.4796C7.86875 15.9674 7.28327 13.2763 7.46688 10.597C7.66484 8.05755 8.71148 5.65757 10.4395 3.78077C12.1493 1.89035 15.035 0.560059 19.0546 0.560059C22.8202 0.560059 25.8567 1.89035 27.5665 3.78077C29.2887 5.65944 30.3282 8.05977 30.5187 10.5972C30.7028 13.2856 30.1133 15.9856 29.167 18.505C31.6606 24.7831 32.6939 29.6417 33.463 36.3027C33.7206 39.1213 33.747 40.7151 33.5054 43.2966C33.3616 44.8318 33.0023 46.6216 32.2848 48.0375C31.9465 48.6985 31.501 49.2992 30.9663 49.8155C29.6288 51.082 28.0478 51.6762 26.2466 52.0522C25.6625 52.3253 21.4509 52.663 20.1691 52.6623C19.8792 52.6623 19.2462 52.6607 18.9563 52.6593C18.6663 52.6579 18.0333 52.6621 17.7434 52.6623C16.3682 52.6623 11.5235 52.2084 11.8301 52.0714C9.99098 51.6961 8.37928 51.1033 7.01934 49.8155C6.48458 49.2992 6.03909 48.6985 5.70084 48.0375C4.98328 46.6216 4.62357 44.8318 4.48024 43.2966C4.23856 40.7151 4.26479 39.1213 4.52263 36.3027" fill="white"/>
<path d="M16.0964 0.827188C13.5868 1.30563 11.6959 2.39087 10.4395 3.78067C8.71149 5.65753 7.66485 8.05761 7.46693 10.5971C7.43571 11.0401 7.42572 11.4835 7.43696 11.9274C7.40745 10.2321 8.26154 8.72446 9.00205 8.18861C10.2721 7.26931 12.4564 7.21446 14.0592 8.48571C15.835 9.89582 16.4549 11.1605 16.8423 13.2993C17.4615 12.8352 18.2181 12.5896 18.9929 12.6012C19.7675 12.5938 20.523 12.8404 21.1432 13.303C21.5298 11.1608 22.1502 9.89559 23.9268 8.48385C25.5296 7.2126 27.7136 7.26744 28.9837 8.18675C29.7223 8.72143 30.5743 10.2233 30.549 11.9137C30.5584 11.4749 30.5483 11.0358 30.5188 10.5962C30.328 8.05915 29.2885 5.65927 27.5666 3.78091C25.8568 1.89049 22.8202 0.560195 19.0547 0.560195C18.0623 0.556064 17.0718 0.645459 16.0964 0.827188Z" fill="#211715"/>
<path d="M33.0421 22.7446C31.9864 21.0313 30.7513 19.4344 29.3576 17.9807C29.296 18.1562 29.2324 18.3309 29.167 18.5047C31.6813 24.8338 32.7108 29.7216 33.482 36.4678C33.8219 37.2695 34.1189 38.0886 34.3719 38.9216C34.6318 39.7803 35.0723 40.838 35.9723 40.8499C36.4922 40.8594 36.9494 40.4638 37.1684 39.9938C37.3586 39.5114 37.4447 38.9946 37.4213 38.4768C37.4834 32.9256 35.965 27.4706 33.0421 22.7446Z" fill="#211715"/>
<path d="M4.50984 36.4489C4.16831 37.2574 3.86954 38.0831 3.61477 38.9228C3.35482 39.7814 2.9143 40.8391 2.01431 40.851C1.49441 40.8606 1.03727 40.465 0.818298 39.995C0.628026 39.5126 0.541924 38.9957 0.565606 38.478C0.480244 30.8613 3.37167 23.5104 8.62809 17.9805C8.68694 18.1479 8.74737 18.3143 8.80935 18.4797C6.30866 24.7692 5.27307 29.6324 4.50376 36.3023" fill="#211715"/>
<path d="M5.0658 36.3023C5.37583 33.4341 5.84248 30.585 6.46368 27.7674C7.10374 25.0044 7.93667 22.2893 8.9564 19.6419C9.10664 19.3116 9.23846 18.9733 9.35125 18.6285C9.37803 18.4203 9.33864 18.209 9.2386 18.0243C9.1646 17.8194 9.09325 17.6135 9.02455 17.4065C8.77076 16.6474 8.55781 15.8752 8.38662 15.0934C8.04688 13.5876 7.92855 12.0405 8.03533 10.5007C8.26033 7.88513 9.44589 5.44432 11.3648 3.64592C13.0779 2.07547 15.4383 1.35011 17.7236 1.17204C20.3184 0.969693 23.0474 1.34148 25.3139 2.6825C27.4312 3.93555 28.9071 6.14967 29.5778 8.48375C30.4094 11.3777 29.9108 14.5156 28.9881 17.3251C28.9257 17.5157 28.8609 17.7054 28.7938 17.8943C28.6984 18.0864 28.6347 18.2926 28.605 18.5048C28.6317 18.7003 28.6931 18.8894 28.7865 19.0633C28.8656 19.2656 28.9437 19.4679 29.0207 19.6701C29.2878 20.3712 29.5438 21.0763 29.7886 21.7853C30.2481 23.1193 30.6601 24.4682 31.0247 25.8319C31.7331 28.5588 32.2692 31.3273 32.6296 34.1211C32.7273 34.8471 32.8176 35.5741 32.9005 36.3021C32.9048 36.4493 32.9654 36.5893 33.0699 36.6934C33.1744 36.7975 33.3149 36.8579 33.4626 36.8622C33.6113 36.8612 33.7537 36.8019 33.8589 36.697C33.9641 36.5922 34.0236 36.4503 34.0246 36.3021C33.4762 31.5681 32.6516 26.8873 31.1626 22.3498C30.7211 21.0046 30.2314 19.6743 29.7092 18.3557V18.6535C30.9987 15.1994 31.72 11.2162 30.4898 7.64007C29.9335 6.01943 29.0404 4.53401 27.8687 3.2809C26.8757 2.26756 25.6755 1.47914 24.3495 0.969227C22.7931 0.358326 21.139 0.0320487 19.4664 0.00604732C17.7633 -0.0555484 16.0619 0.169074 14.4337 0.670494C13.0938 1.08756 11.851 1.76708 10.7782 2.6692C9.59425 3.71967 8.64481 5.00614 7.9913 6.44537C6.39178 9.87613 6.70326 13.7555 7.80746 17.2891C7.94798 17.7398 8.10325 18.186 8.26812 18.6285V18.3307C6.50921 22.7425 5.2502 27.3362 4.51451 32.0265C4.29273 33.4473 4.10772 34.8737 3.94238 36.3023C3.94324 36.4506 4.00274 36.5926 4.10796 36.6974C4.21318 36.8023 4.35564 36.8616 4.50444 36.8624C4.65242 36.859 4.79339 36.7989 4.89805 36.6946C5.00272 36.5902 5.06305 36.4498 5.0665 36.3023H5.0658Z" fill="#211715"/>
<path d="M11.0613 20.6856C12.0365 21.1766 13.0639 21.5568 14.1243 21.8192C15.1638 22.0489 16.2202 22.1944 17.2833 22.2542C19.2797 22.4135 21.2884 22.3115 23.2582 21.9508C24.452 21.7142 25.6104 21.3256 26.7048 20.7946C26.8325 20.7187 26.9252 20.5958 26.9629 20.4525C27.0006 20.3091 26.9803 20.1568 26.9064 20.0282C26.829 19.9023 26.7058 19.8111 26.5625 19.7737C26.4192 19.7363 26.267 19.7554 26.1376 19.8272C24.3366 20.6835 22.4352 21.0212 20.4584 21.1524C18.5907 21.2942 16.7124 21.1893 14.8723 20.8403C13.7465 20.6098 12.656 20.2332 11.6285 19.7201C10.9833 19.3987 10.4133 20.3647 11.0613 20.6875V20.6856Z" fill="#211715"/>
<path d="M18.9929 12.6011C17.8074 12.6011 16.6582 13.1288 16.0667 14.207C15.8636 14.5524 15.8271 15.061 16.0482 15.3366C16.1892 15.5142 16.3808 15.6451 16.5978 15.7121C17.3874 15.8587 18.1898 15.9256 18.9929 15.9116C19.796 15.928 20.5987 15.8611 21.3879 15.7119C21.605 15.645 21.7966 15.5142 21.9376 15.3366C22.1589 15.061 22.1221 14.5524 21.9191 14.207C21.3278 13.1288 20.1437 12.6011 18.9929 12.6011Z" fill="#FEBE69"/>
<path d="M18.9929 12.0409C18.405 12.0304 17.8222 12.1514 17.2875 12.3951C16.7527 12.6388 16.2797 12.999 15.9032 13.4492C15.5149 13.9423 15.228 14.5437 15.3751 15.1848C15.5199 15.815 16.1011 16.2003 16.71 16.3051C18.0602 16.5244 19.435 16.5479 20.7919 16.3751C21.4289 16.2979 22.0692 16.1735 22.4442 15.59C22.7844 15.06 22.6664 14.3631 22.362 13.848C21.6655 12.6697 20.3355 12.0552 18.9936 12.0407C18.2699 12.0328 18.2695 13.153 18.9936 13.1609C19.3767 13.1547 19.7572 13.2243 20.1131 13.3658C20.469 13.5073 20.7931 13.7179 21.0667 13.9852C21.2774 14.2023 21.6095 14.5895 21.5219 14.9218C21.4463 15.2084 20.9915 15.2299 20.7472 15.2602C19.6987 15.3806 18.6405 15.3919 17.5896 15.2938C17.2931 15.2686 16.758 15.2861 16.5423 15.0439C16.3266 14.8016 16.5746 14.4177 16.7365 14.1965C17.2557 13.4856 18.1379 13.1696 18.9936 13.1609C19.7158 13.1535 19.7189 12.0332 18.9929 12.0409Z" fill="#211715"/>
<path d="M23.8279 12.1721C23.7991 11.962 23.8166 11.7481 23.8792 11.5453C23.9418 11.3426 24.0479 11.1559 24.1902 10.9982C24.3941 10.7951 24.6687 10.6781 24.9569 10.6714C25.1499 10.6634 25.3419 10.7019 25.5168 10.7836C25.6917 10.8653 25.8442 10.9878 25.9614 11.1408C26.1366 11.3938 26.2277 11.6952 26.2221 12.0026C26.2165 12.3099 26.1143 12.6078 25.93 12.8543C25.7526 13.0832 25.4946 13.2365 25.2081 13.2831C24.9217 13.3297 24.6281 13.2661 24.3869 13.1052C24.2294 13.0015 24.0973 12.8638 24.0005 12.7022C23.9038 12.5407 23.8448 12.3595 23.8279 12.1721Z" fill="#211715"/>
<path d="M11.7748 12.1721C11.7462 11.962 11.7637 11.7481 11.8263 11.5454C11.8889 11.3427 11.9949 11.156 12.1371 10.9982C12.341 10.795 12.6156 10.678 12.9039 10.6715C13.0968 10.6634 13.2889 10.7019 13.4638 10.7835C13.6387 10.8652 13.7912 10.9877 13.9085 11.1406C14.0837 11.3936 14.1748 11.695 14.1692 12.0024C14.1635 12.3097 14.0613 12.6076 13.8769 12.8541C13.6996 13.0831 13.4415 13.2364 13.1551 13.2829C12.8686 13.3295 12.575 13.2659 12.3339 13.105C12.1764 13.0012 12.0444 12.8635 11.9477 12.702C11.8509 12.5406 11.7918 12.3594 11.7748 12.1721Z" fill="#211715"/>
<path d="M25.0732 52.2826L25.0709 52.2658C26.6545 52.0116 28.0886 51.6735 29.3565 50.9822L29.4816 51.2076C30.1315 51.7306 30.6127 52.2053 30.7427 53.0952C30.8158 53.5029 30.7352 53.9231 30.5165 54.2752C30.3385 54.5126 29.7392 55.0498 28.5359 55.2921C27.6297 55.4686 26.6994 55.4848 25.7875 55.3399C25.3659 55.2321 24.9593 55.0726 24.5769 54.8652C23.6371 54.2845 22.8448 53.4949 22.2622 52.5582C23.2226 52.4882 24.2814 52.3907 25.0732 52.2826Z" fill="#FEBE69"/>
<path d="M12.9125 52.285C13.6898 52.3783 14.7584 52.4794 15.7259 52.5536C15.1428 53.4926 14.3492 54.284 13.4074 54.8657C13.0244 55.0735 12.617 55.233 12.1945 55.3404C11.2834 55.4853 10.3538 55.4691 9.44839 55.2926C8.24512 55.0503 7.64512 54.5131 7.46784 54.2757C7.2491 53.9236 7.16854 53.5034 7.24161 53.0957C7.37159 52.2058 7.85051 51.7311 8.50273 51.2081L8.62778 50.9827C9.89616 51.6735 11.3303 52.0117 12.9135 52.2663L12.9125 52.285Z" fill="#FEBE69"/>
<path d="M8.10627 50.812C7.29878 51.4636 6.6777 52.274 6.65991 53.3543C6.64375 54.2967 7.17232 54.9499 7.97372 55.3684C9.01586 55.865 10.1711 56.0788 11.3226 55.988C12.1463 55.9713 12.9535 55.7554 13.6749 55.3588C14.7035 54.7231 15.5714 53.8597 16.2111 52.8357C16.6114 52.2327 15.6383 51.6709 15.2406 52.2702C14.7846 52.9886 14.1989 53.6166 13.5133 54.1224C13.0173 54.4905 12.4383 54.732 11.8271 54.8258C10.9004 54.9475 9.95852 54.8752 9.06153 54.6134C8.73606 54.5118 8.42881 54.3593 8.15123 54.1618C8.05756 54.0939 8.11798 54.1354 8.13695 54.1511C8.11353 54.1308 8.08683 54.1105 8.06388 54.0885C8.02875 54.0552 7.99362 54.0213 7.95943 53.9877C7.90018 53.9305 7.90299 53.9039 7.95358 53.9921C7.90142 53.9128 7.85904 53.8274 7.82735 53.738C7.55756 52.8381 8.26833 52.1136 8.90064 51.6034C9.00513 51.4979 9.06372 51.3556 9.06372 51.2074C9.06372 51.0591 9.00513 50.9169 8.90064 50.8113C8.79359 50.7094 8.65125 50.6526 8.50322 50.6526C8.35519 50.6526 8.21285 50.7094 8.1058 50.8113L8.10627 50.812Z" fill="#211715"/>
<path d="M29.0846 51.6041C29.6839 52.0895 30.2146 52.6209 30.2012 53.4434C30.1939 53.61 30.1522 53.7734 30.0787 53.9232C30.0127 54.0761 30.134 53.8906 30.0506 53.962C30.0057 54.0003 29.9645 54.0483 29.9214 54.0892C29.9043 54.1055 29.8853 54.1204 29.8673 54.1359C29.8024 54.1919 29.9319 54.0892 29.8567 54.1459C29.8008 54.1879 29.7422 54.2269 29.683 54.2644C29.5381 54.3569 29.3859 54.4374 29.2279 54.5051C28.3453 54.8363 27.397 54.9562 26.4593 54.8551C25.8641 54.8264 25.2861 54.6461 24.7807 54.3314C23.9655 53.7964 23.2728 53.0961 22.7476 52.2762C22.3495 51.6778 21.3758 52.2382 21.7769 52.8415C22.3562 53.743 23.1044 54.5247 23.9807 55.1438C24.6814 55.6206 25.4962 55.9042 26.3425 55.9658C27.4927 56.0916 28.6562 55.9321 29.7296 55.5014C30.4729 55.18 31.1525 54.6612 31.2865 53.8173C31.4855 52.5659 30.8108 51.5668 29.8795 50.8125C29.772 50.7114 29.6298 50.655 29.482 50.655C29.3343 50.655 29.1921 50.7114 29.0846 50.8125C28.9802 50.918 28.9217 51.0603 28.9217 51.2085C28.9217 51.3567 28.9802 51.499 29.0846 51.6046V51.6041Z" fill="#211715"/>
<path d="M7.94135 17.8904C3.57225 22.6188 0.845435 28.6225 0.163881 35.0143C0.0496788 36.0678 -0.0050519 37.1269 -5.23352e-05 38.1865C0.00580243 39.2834 0.0964341 40.567 1.16224 41.1803C2.23951 41.8009 3.29337 41.065 3.76901 40.0834C3.98733 39.5845 4.17182 39.0715 4.32123 38.548C4.53762 37.8883 4.78103 37.2383 5.05144 36.5981C5.09018 36.4548 5.07067 36.3021 4.99714 36.1732C4.92361 36.0442 4.802 35.9493 4.6587 35.9091C4.51511 35.8734 4.36326 35.8942 4.23458 35.967C4.10589 36.0398 4.01022 36.1591 3.96737 36.3003C3.56597 37.2557 3.2833 38.2434 2.92592 39.2131C2.74255 39.71 2.31562 40.595 1.69315 40.1908C1.33882 39.9604 1.2058 39.5254 1.15849 39.1268C1.11581 38.6379 1.10509 38.1467 1.1264 37.6565C1.14013 36.6932 1.20305 35.7313 1.31493 34.7744C1.7724 30.955 2.99118 27.2653 4.89968 23.922C5.97181 22.0343 7.25884 20.2762 8.73526 18.6825C9.22589 18.1539 8.43292 17.3597 7.94041 17.8904H7.94135Z" fill="#211715"/>
<path d="M29.2504 18.6826C31.8685 21.5124 33.8851 24.8407 35.179 28.4672C35.8337 30.2981 36.3049 32.1891 36.5858 34.1126C36.7198 35.0482 36.8049 35.9902 36.8406 36.9347C36.8598 37.4159 36.8664 37.8975 36.8605 38.3793C36.8548 38.8461 36.864 39.3616 36.6445 39.7887C36.4785 40.112 36.1293 40.3988 35.7727 40.2476C35.4979 40.1309 35.2869 39.7393 35.1542 39.4464C34.979 39.0036 34.8265 38.5523 34.6973 38.0941C34.4943 37.4873 34.2679 36.8893 34.0181 36.3001C33.9744 36.1595 33.8785 36.0408 33.7501 35.9682C33.6217 35.8955 33.4703 35.8743 33.3268 35.909C33.1835 35.9492 33.062 36.0441 32.9885 36.1731C32.915 36.302 32.8954 36.4547 32.934 36.5979C33.1682 37.1541 33.3827 37.7175 33.5776 38.2881C33.7415 38.7686 33.8689 39.2627 34.0626 39.7325C34.4097 40.5748 35.0307 41.4595 36.0579 41.408C37.3185 41.3443 37.8783 40.084 37.9626 38.9945C38.0228 37.9394 38.0014 36.8812 37.8984 35.8294C37.557 31.5715 36.3122 27.4345 34.2464 23.692C33.0875 21.5951 31.6764 19.647 30.0444 17.8905C29.5526 17.3602 28.7584 18.1537 29.2495 18.6826H29.2504Z" fill="#211715"/>
<path d="M8.00068 11.9853C7.9706 10.9577 8.27788 9.94851 8.87585 9.1109C9.10688 8.81921 9.39612 8.57845 9.7253 8.40387C10.0545 8.22928 10.4164 8.12466 10.7882 8.09661C12.6674 7.87022 14.3784 9.1235 15.3381 10.6508C15.8338 11.5138 16.1601 12.463 16.2997 13.4477C16.3402 13.5906 16.4356 13.7118 16.5651 13.7852C16.6947 13.8586 16.848 13.8782 16.992 13.8397C17.1339 13.7975 17.254 13.7023 17.3272 13.5739C17.4003 13.4455 17.4209 13.2939 17.3845 13.1508C17.2277 12.1195 16.8891 11.1239 16.3842 10.2101C15.8192 9.29635 15.0737 8.50647 14.1931 7.88843C12.5168 6.67483 9.65172 6.49909 8.19482 8.17713C7.30674 9.24576 6.83828 10.5994 6.87656 11.9864C6.89015 12.7064 8.01449 12.7088 8.00068 11.9864V11.9853Z" fill="#211715"/>
<path d="M31.1094 11.9852C31.1412 10.7462 30.7729 9.52975 30.0588 8.515C29.7657 8.11702 29.3965 7.7808 28.9723 7.52572C28.5482 7.27064 28.0776 7.10176 27.5877 7.02881C26.4154 6.83129 25.2106 7.04578 24.1795 7.63561C23.2298 8.20945 22.417 8.98271 21.7978 9.90154C21.1373 10.8703 20.8109 12.0097 20.6015 13.1498C20.5657 13.293 20.5864 13.4444 20.6594 13.5728C20.7324 13.7012 20.8521 13.7967 20.9938 13.8397C21.1377 13.8781 21.2911 13.8585 21.4206 13.7851C21.5502 13.7117 21.6455 13.5905 21.6861 13.4476C21.8142 12.5721 22.0831 11.7229 22.4823 10.9326C22.9336 10.158 23.5348 9.48038 24.2509 8.93906C24.994 8.35107 25.9224 8.04491 26.8708 8.07507C27.2993 8.0856 27.7222 8.17477 28.1183 8.3381C28.4385 8.46182 28.724 8.6606 28.9506 8.91759C29.6853 9.72814 30.0045 10.9161 29.9853 11.9861C29.9715 12.7073 31.0956 12.7073 31.1094 11.9861V11.9852Z" fill="#211715"/>
<path d="M3.96066 36.3023C3.75458 38.3061 3.71338 40.3234 3.83748 42.3339C3.9897 44.4174 4.27916 46.5827 5.28384 48.4502C6.22481 50.199 7.896 51.4695 9.74985 52.1333C11.3271 52.6979 13.0266 52.8801 14.6859 53.0311C17.4653 53.2858 20.2618 53.2946 23.0427 53.0575C23.772 52.9954 24.5006 52.9219 25.2261 52.8241C25.4868 52.7889 25.7476 52.7522 26.0055 52.7C26.0886 52.6832 26.1725 52.6656 26.2542 52.6418C26.2828 52.6334 26.3116 52.625 26.3397 52.6152C26.353 52.6106 26.3659 52.605 26.379 52.6001C26.5039 52.5223 26.5449 52.5083 26.502 52.5581C26.4786 52.5816 26.4905 52.5829 26.5378 52.5623C28.4888 52.1695 30.4553 51.3059 31.7766 49.7777C33.1968 48.1349 33.7438 45.9656 34.0061 43.8593C34.243 41.8999 34.2937 39.9225 34.1577 37.9535C34.1214 37.4027 34.075 36.8527 34.0251 36.3028C34.0213 36.1555 33.9608 36.0152 33.8562 35.911C33.7516 35.8068 33.6109 35.7465 33.4631 35.7427C33.3143 35.7437 33.172 35.8031 33.0668 35.9079C32.9616 36.0127 32.902 36.1546 32.901 36.3028C33.1001 38.2265 33.1471 40.1629 33.0415 42.094C32.912 44.0369 32.6788 46.0921 31.7551 47.8418C30.8488 49.5584 29.212 50.6373 27.3846 51.189C26.9191 51.329 26.4142 51.3932 25.9636 51.5687C26.1369 51.5013 25.9952 51.5515 25.9132 51.5732C25.8195 51.5984 25.7226 51.6173 25.6268 51.6355C25.5116 51.6572 25.3957 51.6761 25.2797 51.6938C25.1254 51.7172 25.0046 51.7337 24.931 51.7431C24.6075 51.7834 24.2837 51.8199 23.9596 51.8525C21.3421 52.1338 18.7053 52.1913 16.0779 52.0245C14.5536 51.9501 13.0367 51.7645 11.5395 51.4693C9.8351 51.0999 8.24846 50.3824 7.07141 49.0619C5.75784 47.5881 5.27892 45.486 5.07119 43.5758C4.86695 41.6923 4.8284 39.7947 4.95597 37.9045C4.99157 37.3701 5.03677 36.8363 5.08524 36.303C5.0842 36.1548 5.02465 36.0129 4.91947 35.9081C4.81429 35.8033 4.67193 35.7439 4.52319 35.7429C4.37508 35.7459 4.23388 35.8059 4.12913 35.9103C4.02438 36.0147 3.96418 36.1554 3.96113 36.303L3.96066 36.3023Z" fill="#211715"/>
</g>
<defs>
<clipPath id="clip0_108_5157">
<rect width="38" height="56" fill="white"/>
</clipPath>
</defs>
</svg>
