<svg width="60" height="60" viewBox="0 0 60 60" fill="none" xmlns="http://www.w3.org/2000/svg">
<path d="M12.3913 42.7992C12.4227 41.0087 12.7703 39.2414 13.4154 37.5928C14.7297 34.398 17.3382 30.1756 21.5445 29.2637C18.2229 26.1727 17.1132 20.3963 18.8001 15.9533C20.5925 11.231 25.5371 8.88062 30.0458 8.88062C34.9986 8.88062 39.5114 11.233 41.3031 15.9529C42.9644 20.33 41.9126 26.0013 38.7051 29.1236C40.9208 29.5849 42.7068 31.5774 42.7068 31.5774C44.393 33.2585 45.7307 35.3087 46.6311 37.5924C48.7607 42.7629 47.4978 50.8559 43.8781 54.4069C40.955 57.2747 37.1561 59.1553 29.9906 59.1553C22.9907 59.1553 19.1914 57.4091 16.1684 54.4069C13.6426 51.899 12.2576 47.1787 12.3913 42.7992Z" fill="white"/>
<path d="M44.4418 37.9881L50.9426 32.1519C51.0821 31.9983 51.1603 31.7915 51.1603 31.576C51.1603 31.3605 51.0821 31.1536 50.9426 31.0001C50.7997 30.8517 50.6094 30.7688 50.4114 30.7688C50.2135 30.7688 50.0232 30.8517 49.8802 31.0001L43.3798 36.8363C43.2402 36.9898 43.1619 37.1967 43.1619 37.4122C43.1619 37.6278 43.2402 37.8347 43.3798 37.9881C43.5227 38.1364 43.713 38.2192 43.9108 38.2192C44.1087 38.2192 44.2989 38.1364 44.4418 37.9881Z" fill="#211715"/>
<path d="M59.2471 27.868C59.2593 27.1224 59.0954 26.3857 58.7709 25.7281C58.4464 25.0705 57.9721 24.5138 57.3931 24.111C56.1118 23.2878 54.283 23.5183 53.331 24.7624C53.2304 23.9335 52.3768 23.3782 51.6126 23.4902C51.2333 23.572 50.8775 23.7504 50.5745 24.0108C50.2714 24.2712 50.0298 24.606 49.8697 24.9876C49.4834 25.8933 49.3359 26.8974 49.4439 27.8884C49.1104 28.2271 48.7262 28.7389 48.7206 29.1379C48.7135 29.6431 49.7961 30.8727 50.2393 31.3889C50.9528 32.2211 51.7361 33.0696 52.2296 33.0403C52.6241 32.9673 53.0097 32.8456 53.3787 32.6775L55.5312 31.7989C56.4954 31.4691 57.4031 30.9702 58.2182 30.3218C58.5196 30.0812 58.7673 29.7702 58.9428 29.4117C59.1183 29.0533 59.2172 28.6567 59.2321 28.2512C59.2415 28.1225 59.2468 27.9951 59.2471 27.868Z" fill="#F2635F"/>
<path d="M0.752101 29.4677C0.739884 28.722 0.903827 27.9854 1.22834 27.3278C1.55285 26.6702 2.02714 26.1135 2.6061 25.7107C3.88741 24.8875 5.71625 25.1183 6.66784 26.3601C6.76886 25.5316 7.62244 24.9758 8.38665 25.0878C8.76587 25.1697 9.12168 25.3482 9.42472 25.6085C9.72776 25.8689 9.96933 26.2037 10.1295 26.5852C10.516 27.4909 10.6635 28.495 10.5557 29.4861C10.8892 29.8252 11.2734 30.3365 11.279 30.7355C11.2861 31.2408 10.2035 32.4703 9.75996 32.9866C9.04646 33.8187 8.26347 34.6672 7.76965 34.6383C7.37511 34.565 6.98958 34.4432 6.62053 34.2751L4.46986 33.397C3.5051 33.0672 2.59678 32.5681 1.78106 31.9195C1.48158 31.6662 1.23227 31.3501 1.04802 30.99C0.887479 30.6333 0.792579 30.2461 0.768624 29.85C0.757609 29.7227 0.752101 29.5953 0.752101 29.4677Z" fill="#F2635F"/>
<path d="M59.9982 27.868C59.9749 25.9821 59.074 24.0185 57.4314 23.2193C56.664 22.8321 55.8034 22.7169 54.9721 22.8902C54.1408 23.0635 53.381 23.5164 52.8008 24.1846L54.0561 24.5437C53.7505 22.7637 51.7061 22.217 50.4255 23.1224C48.9921 24.1362 48.5479 26.1352 48.6936 27.8859L48.9133 27.3102C48.3946 27.857 47.8141 28.6399 48.0142 29.4806C48.2308 30.1039 48.5716 30.6676 49.0124 31.1315C49.463 31.6962 49.9339 32.2536 50.4327 32.7666C50.9419 33.2897 51.5761 33.9065 52.328 33.841C53.0937 33.7746 53.8639 33.3439 54.5729 33.0548C55.4182 32.71 56.274 32.3851 57.0991 31.9853C57.8772 31.6428 58.5798 31.1262 59.1611 30.4691C59.7225 29.741 60.0202 28.8163 59.9989 27.8676C60.0226 26.8192 58.5205 26.8196 58.4968 27.8676C58.5098 28.2275 58.4432 28.5856 58.3025 28.912C58.1619 29.2383 57.9513 29.5235 57.6883 29.7436C57.1066 30.2084 56.4631 30.5745 55.7798 30.8294C55.0261 31.1462 54.2668 31.4483 53.5105 31.7573C53.135 31.9104 52.444 32.3118 52.1383 32.1775C51.8477 31.9992 51.5887 31.766 51.3737 31.489C51.1274 31.2272 50.8927 30.9532 50.6576 30.68C50.3064 30.2949 49.9802 29.8839 49.6812 29.4501C49.6147 29.3475 49.564 29.2286 49.4934 29.1297C49.4514 29.0694 49.5051 29.058 49.4698 29.1358C49.609 28.8878 49.7782 28.6611 49.973 28.462C50.2734 28.0919 50.1608 27.6644 50.1638 27.2178C50.1644 26.8425 50.206 26.4686 50.2877 26.1039C50.4443 25.4227 50.7853 24.6695 51.4192 24.3801C51.5313 24.3171 51.6552 24.2827 51.7814 24.2798C51.9076 24.2768 52.0328 24.3052 52.1473 24.3628C52.2618 24.4204 52.3626 24.5058 52.442 24.6122C52.5213 24.7187 52.5771 24.8434 52.6051 24.9769C52.6411 25.1134 52.7092 25.2374 52.8027 25.3368C52.8962 25.4361 53.012 25.5074 53.1386 25.5436C53.2652 25.5799 53.3983 25.5798 53.5249 25.5434C53.6514 25.507 53.7671 25.4355 53.8605 25.336C54.2207 24.9035 54.6989 24.6071 55.2254 24.4899C55.7519 24.3727 56.2992 24.4409 56.7874 24.6846C57.9053 25.2371 58.4773 26.5936 58.4942 27.8692C58.5088 28.9159 60.011 28.918 59.9982 27.868Z" fill="#211715"/>
<path d="M16.6198 38.4359L10.1194 32.5996C9.97585 32.4524 9.78576 32.3704 9.58818 32.3704C9.39059 32.3704 9.20051 32.4524 9.05699 32.5996C8.91753 32.7532 8.83936 32.96 8.83936 33.1755C8.83936 33.391 8.91753 33.5979 9.05699 33.7514L15.5578 39.5877C15.7012 39.7349 15.8913 39.817 16.0888 39.817C16.2864 39.817 16.4764 39.7349 16.6198 39.5877C16.7593 39.4341 16.8374 39.2273 16.8374 39.0118C16.8374 38.7963 16.7593 38.5894 16.6198 38.4359Z" fill="#211715"/>
<path d="M1.50319 29.4677C1.51859 28.1917 2.09165 26.8356 3.20998 26.2831C3.69821 26.0394 4.24547 25.9712 4.77196 26.0884C5.29846 26.2056 5.77667 26.502 6.13687 26.9345C6.23028 27.034 6.34594 27.1055 6.4725 27.1419C6.59906 27.1783 6.73218 27.1784 6.85879 27.1421C6.9854 27.1059 7.10115 27.0346 7.19468 26.9353C7.28821 26.8359 7.3563 26.7119 7.39227 26.5754C7.41179 26.4646 7.45132 26.3592 7.5086 26.265C7.56588 26.1709 7.63978 26.0899 7.72603 26.0269C7.81228 25.9639 7.90919 25.9199 8.01116 25.8977C8.11314 25.8754 8.21817 25.8752 8.32021 25.8971C8.8974 25.9949 9.32663 26.5893 9.54331 27.1356C9.78068 27.8332 9.8745 28.5785 9.8182 29.3195C9.80619 29.8626 10.0435 30.0194 10.3263 30.4045C10.3938 30.498 10.4548 30.5968 10.5088 30.7001C10.5216 30.7237 10.5377 30.6594 10.5253 30.685C10.2719 31.1476 9.96665 31.5744 9.61654 31.9557C9.19372 32.4816 8.74321 32.9807 8.26726 33.4502C8.15837 33.5585 8.04002 33.6551 7.91388 33.7385C7.87821 33.7609 7.71185 33.8252 7.76931 33.8228C7.50761 33.7842 7.25373 33.6984 7.01824 33.5687C6.28671 33.2813 5.56081 32.9751 4.83265 32.6779C4.0298 32.3922 3.26089 32.0046 2.54191 31.5233C2.21672 31.3107 1.94929 31.0084 1.76684 30.6474C1.58438 30.2863 1.49341 29.8793 1.50319 29.4677C1.47954 28.4214 -0.022589 28.4177 0.00106947 29.4677C-0.0202412 30.4164 0.277551 31.3411 0.838879 32.0693C1.42016 32.7263 2.12283 33.243 2.90092 33.5854C3.72709 33.9852 4.5818 34.3101 5.42712 34.655C6.13575 34.9444 6.90633 35.3748 7.67204 35.4411C8.42311 35.5063 9.05813 34.8903 9.56735 34.3667C10.0661 33.8537 10.5385 33.2964 10.9876 32.7321C11.4283 32.2679 11.7691 31.7041 11.9858 31.0807C12.1859 30.24 11.6054 29.4571 11.0864 28.9103L11.3064 29.486C11.451 27.7353 11.006 25.7359 9.57448 24.7226C8.29392 23.8167 6.24953 24.3635 5.94385 26.1435L7.19925 25.7844C6.61901 25.1159 5.85916 24.6629 5.02775 24.4896C4.19634 24.3163 3.3357 24.4316 2.5682 24.8191C0.925627 25.6183 0.0243524 27.5814 0.00106947 29.4677C-0.0116986 30.5161 1.49043 30.5165 1.50319 29.4677Z" fill="#211715"/>
<path d="M34.5082 18.2344C34.3095 18.2336 34.1127 18.2761 33.9295 18.3595C33.7462 18.4428 33.5803 18.5652 33.4416 18.7195C33.3029 18.8737 33.1943 19.0566 33.1221 19.2573C33.0499 19.458 33.0157 19.6724 33.0215 19.8878C33.0081 20.1065 33.0369 20.3259 33.1061 20.532C33.1752 20.7381 33.2831 20.9263 33.4229 21.0847C33.5627 21.2431 33.7314 21.3682 33.9183 21.4521C34.1051 21.536 34.306 21.5769 34.5082 21.5721C34.711 21.5794 34.913 21.5403 35.1009 21.4573C35.2889 21.3742 35.4585 21.2492 35.5989 21.0902C35.7392 20.9313 35.847 20.742 35.9152 20.5348C35.9835 20.3276 36.0106 20.1071 35.9949 19.8878C36.0009 19.6724 35.9668 19.4579 35.8947 19.2571C35.8225 19.0564 35.7139 18.8734 35.5751 18.7191C35.4364 18.5648 35.2704 18.4424 35.0871 18.3591C34.9038 18.2758 34.707 18.2334 34.5082 18.2344Z" fill="#211715"/>
<path d="M25.8481 18.2344C25.6494 18.2336 25.4525 18.2761 25.2693 18.3595C25.0861 18.4428 24.9202 18.5652 24.7815 18.7195C24.6428 18.8737 24.5341 19.0566 24.4619 19.2573C24.3897 19.458 24.3555 19.6724 24.3613 19.8878C24.348 20.1065 24.3768 20.3259 24.4459 20.532C24.515 20.7381 24.6229 20.9263 24.7627 21.0847C24.9026 21.2431 25.0713 21.3682 25.2581 21.4521C25.445 21.536 25.6459 21.5769 25.8481 21.5721C26.0509 21.5794 26.2529 21.5403 26.4408 21.4573C26.6287 21.3742 26.7984 21.2492 26.9387 21.0902C27.079 20.9313 27.1868 20.742 27.2551 20.5348C27.3233 20.3276 27.3505 20.1071 27.3348 19.8878C27.3407 19.6724 27.3066 19.4579 27.2345 19.2571C27.1624 19.0564 27.0537 18.8734 26.915 18.7191C26.7762 18.5648 26.6103 18.4424 26.427 18.3591C26.2437 18.2758 26.0468 18.2334 25.8481 18.2344Z" fill="#211715"/>
<path d="M22.0485 28.6625C19.5246 26.258 18.4059 22.3837 18.8629 18.8099C19.0689 17.0258 19.7336 15.3406 20.7811 13.9467C21.8543 12.5969 23.2033 11.5374 24.7208 10.8525C30.5453 8.14466 39.1472 10.1005 40.9832 17.4611C41.9596 21.3809 40.8983 25.9498 38.0541 28.6572C37.3267 29.3493 38.392 30.4982 39.1164 29.8086C42.0133 27.0486 43.2304 22.5921 42.7069 18.5172C42.4454 16.5403 41.7211 14.6691 40.603 13.0819C39.485 11.4948 38.0105 10.2446 36.3202 9.45074C29.6733 6.26046 19.7079 8.65276 17.6563 17.1016C16.5793 21.5324 17.769 26.7477 20.9884 29.8138C21.7121 30.5031 22.7786 29.3558 22.0504 28.6625H22.0485Z" fill="#211715"/>
<path d="M20.6027 28.6716C17.7513 29.6223 15.5654 31.9499 14.011 34.6406C12.5529 37.0925 11.7334 39.9263 11.6392 42.8418C11.5407 45.8989 12.1438 48.9346 13.3944 51.6766C14.5354 54.0071 16.2718 55.9316 18.3957 57.2197C20.6644 58.5923 23.1703 59.4417 25.7561 59.7146C29.079 60.165 32.4449 60.0818 35.7453 59.4675C38.1607 59.0425 40.4659 58.0686 42.5097 56.6098C43.4359 55.9525 44.2845 55.1749 45.0367 54.2945C45.8917 53.2282 46.5809 52.0181 47.0773 50.7117C48.1874 47.8557 48.6209 44.744 48.3383 41.6599C47.9935 38.4793 46.8213 35.4707 44.9585 32.9852C44.4431 32.2683 43.8677 31.6044 43.2397 31.002C42.5172 30.3099 41.4507 31.4588 42.1777 32.1538C44.3051 34.1953 45.8257 36.8755 46.5467 39.8547C47.1191 42.5853 47.0446 45.4286 46.33 48.1195C45.7675 50.5742 44.508 52.7753 42.7294 54.4121C41.1225 55.8218 39.2605 56.85 37.2639 57.4302C34.3956 58.2913 31.3617 58.433 28.4014 58.3096C25.8102 58.2017 23.1646 57.8145 20.7642 56.7014C18.8238 55.8488 17.108 54.4892 15.7696 52.7437C14.2604 50.6344 13.4699 47.8858 13.2217 45.2561C12.9084 42.5785 13.289 39.8593 14.3208 37.403C15.4204 34.9411 16.977 32.5581 19.175 31.1274C19.7482 30.7533 20.3615 30.4566 21.0012 30.244C21.9223 29.9366 21.5295 28.3642 20.602 28.6737L20.6027 28.6716Z" fill="#211715"/>
<path d="M34.3712 34.2901C34.5304 36.4662 34.6258 38.2282 34.6078 40.6299C34.5992 40.7602 34.6376 40.8891 34.7148 40.9894C34.7725 41.0364 34.8385 41.0699 34.9087 41.0879C34.9789 41.1058 35.0517 41.1078 35.1227 41.0936C37.3396 40.9722 39.5448 40.6674 41.7189 40.1817C41.9303 40.1344 42.1808 40.0461 42.2296 39.8181C42.2354 39.6592 42.1927 39.5027 42.1083 39.3727C41.0145 36.8636 39.6928 34.4791 38.1626 32.2544" fill="#F2635F"/>
<path d="M33.6201 34.2901C33.7429 35.9814 33.8386 37.6734 33.8555 39.3699C33.8642 40.2314 33.6509 41.553 34.652 41.8534C35.043 41.9265 35.4425 41.929 35.8342 41.8608C36.2821 41.8282 36.7296 41.7882 37.1767 41.7407C38.0848 41.644 38.9897 41.5185 39.8914 41.3641C40.309 41.2927 40.7255 41.2149 41.1408 41.1308C41.5307 41.0796 41.9138 40.9796 42.2824 40.8328C42.458 40.7562 42.6128 40.6328 42.7325 40.474C42.8522 40.3152 42.9329 40.1262 42.967 39.9244C42.9777 39.4778 42.8595 39.0388 42.6291 38.6684C42.2948 37.9067 41.9396 37.1559 41.558 36.4207C40.7153 34.8432 39.7981 33.3141 38.8099 31.8392C38.7058 31.657 38.5412 31.5251 38.35 31.4707C38.1588 31.4164 37.9556 31.4436 37.7824 31.5469C37.6116 31.6571 37.4876 31.8357 37.4372 32.0442C37.3867 32.2527 37.4139 32.4743 37.5128 32.6612C38.2736 33.8264 39.0251 35.0006 39.7093 36.2212C40.0348 36.8031 40.3452 37.3948 40.6406 37.9963C40.7908 38.3043 40.9373 38.6146 41.08 38.927C41.1656 39.1137 41.2496 39.3014 41.332 39.49C41.3744 39.5873 41.4168 39.6842 41.4585 39.7815C41.5269 39.955 41.5312 39.9242 41.4717 39.6891L41.6647 39.3296C41.5595 39.477 41.7969 39.3504 41.6102 39.3703C41.4784 39.3854 41.3368 39.4338 41.2073 39.4615C40.8963 39.5288 40.5848 39.5921 40.2726 39.6513C39.6886 39.7628 39.1021 39.8626 38.514 39.946C37.9116 40.031 37.3078 40.1018 36.7024 40.1585C36.3867 40.1884 36.0707 40.2145 35.7542 40.2367C35.6224 40.2457 35.4913 40.2546 35.3588 40.2624L35.1214 40.2762C34.984 40.2762 34.9742 40.2791 35.0929 40.2831L35.3622 40.5754C35.3564 40.6569 35.3551 40.6449 35.3584 40.5396C35.3584 40.4529 35.3584 40.3666 35.3584 40.2799C35.3584 40.1671 35.3584 40.0539 35.3584 39.9411C35.3584 39.6426 35.356 39.344 35.3513 39.0454C35.343 38.5118 35.3284 37.9781 35.3073 37.4442C35.2653 36.3897 35.1947 35.3369 35.1196 34.2848C35.1147 34.0706 35.034 33.8665 34.8942 33.7149C34.7544 33.5633 34.5662 33.4759 34.3685 33.4706C34.1698 33.4722 33.9796 33.5585 33.839 33.7108C33.6985 33.8632 33.6189 34.0694 33.6174 34.2848L33.6201 34.2901Z" fill="#211715"/>
<path d="M19.7713 27.6697C26.1399 28.8044 32.6569 28.487 38.9061 26.7377C39.9576 26.4405 40.9219 26.9527 40.9997 28.0267C41.0437 28.4876 40.995 28.9534 40.8571 29.392C40.7191 29.8306 40.4951 30.2315 40.2005 30.5672C38.8951 32.1622 37.2121 33.3396 35.3336 33.9717C31.2486 35.2024 25.9694 34.4745 23.2629 33.2942C21.8735 32.688 20.353 32.0358 19.1235 31.0985C17.9601 30.2106 18.4254 28.1362 19.7713 27.6697Z" fill="#F2635F"/>
<path d="M19.5714 28.4548C23.254 29.1012 26.9926 29.2897 30.7146 29.0166C32.5758 28.8713 34.4274 28.6066 36.2597 28.2239C37.1576 28.0358 38.0476 27.8123 38.9353 27.5725C39.3417 27.4626 39.9748 27.3408 40.2016 27.8575C40.4547 28.4332 40.1502 29.2886 39.8404 29.7621C39.39 30.3969 38.8577 30.9581 38.2597 31.4284C36.9841 32.4884 35.4906 33.1976 33.907 33.4954C30.9279 34.0542 27.8721 33.8989 24.9543 33.0403C23.3652 32.5692 21.836 31.8865 20.4017 31.0079C19.8903 30.696 19.2102 30.3886 19.2124 29.6672C19.2127 29.4064 19.2851 29.1517 19.4204 28.9361C19.5556 28.7204 19.7474 28.5538 19.971 28.4576C20.8757 28.1099 20.4859 26.5359 19.5714 26.8873C18.2195 27.4076 17.3389 29.0516 17.856 30.5751C18.1534 31.4512 18.8546 31.9255 19.5718 32.3701C20.4555 32.8952 21.37 33.3568 22.3094 33.7519C25.4058 35.0908 28.7437 35.6437 32.0676 35.3683C33.8974 35.2935 35.6944 34.8189 37.351 33.973C38.202 33.4933 38.9975 32.9056 39.7206 32.2223C40.4016 31.6476 40.9688 30.9299 41.3883 30.1122C42.0849 28.5423 41.8517 26.2444 39.9853 25.8927C39.0608 25.7188 38.1366 26.1194 37.2439 26.3377C36.2383 26.5836 35.2255 26.7922 34.2055 26.9634C29.485 27.7329 24.6832 27.7061 19.9703 26.884C19.7782 26.8334 19.5756 26.8642 19.4038 26.9701C19.232 27.0761 19.1041 27.2492 19.0461 27.454C18.995 27.6622 19.0215 27.8838 19.1197 28.071C19.218 28.2582 19.3803 28.3961 19.5714 28.4548Z" fill="#211715"/>
<path d="M29.4893 9.34219C32.1484 11.544 35.7453 13.1924 39.0597 13.2608C39.1628 13.2624 39.2632 13.2248 39.3434 13.1545C39.4236 13.0842 39.4785 12.9857 39.4987 12.8761C39.887 10.7997 40.4709 6.10102 40.7128 3.71034C40.7226 3.61788 40.7072 3.52432 40.6685 3.44125C40.6298 3.35818 40.5695 3.28923 40.495 3.24295C38.6458 2.10614 36.6456 1.28599 34.5653 0.81156C34.4866 0.796638 34.4056 0.80528 34.331 0.836557C34.2564 0.867835 34.1911 0.920563 34.1421 0.98907C33.3877 2.02848 30.8025 6.21379 29.3841 8.7087C29.3262 8.80965 29.3048 8.93034 29.3243 9.04738C29.3437 9.16442 29.4025 9.26948 29.4893 9.34219Z" fill="#F2635F"/>
<path d="M29.11 10.0454C31.5339 12.0734 34.3901 13.4064 37.4148 13.9212C38.0555 14.019 39.0195 14.2755 39.6173 13.9212C40.1975 13.5776 40.2591 12.9205 40.3627 12.285C40.5734 10.9964 40.7473 9.70051 40.9137 8.4042C41.0887 7.04275 41.2543 5.67968 41.4018 4.31416C41.4818 3.56951 41.4721 2.95271 40.8224 2.5069C40.2428 2.13385 39.6389 1.80727 39.0153 1.52978C37.6525 0.876334 36.1579 0.202123 34.6659 0.00914292C33.6302 -0.124803 33.0313 1.24479 32.5254 2.03462C31.7481 3.25154 30.9917 4.48434 30.2459 5.72405C29.8704 6.35022 29.4979 6.97938 29.1284 7.61152C28.9358 7.89507 28.7737 8.20143 28.6451 8.52471C28.5683 8.76456 28.5569 9.02332 28.6123 9.26998C28.6678 9.51665 28.7876 9.74076 28.9575 9.91548C29.6297 10.6715 30.6913 9.51893 30.0199 8.7637L30.0826 8.83861L29.9804 9.25144C30.3161 8.54078 30.7045 7.86092 31.142 7.21863C31.5926 6.45865 32.0496 5.70356 32.513 4.95335C32.9246 4.28403 33.3406 3.6181 33.7609 2.95556C33.9224 2.70232 34.0851 2.45003 34.2491 2.1987C34.4074 2.00153 34.5494 1.78969 34.6735 1.56561C34.7129 1.47197 34.7906 1.50006 34.6735 1.56561C34.5375 1.64093 34.4275 1.56846 34.6648 1.65925C34.856 1.73213 35.0756 1.75655 35.2724 1.8107C35.7925 1.9532 36.3055 2.12664 36.8121 2.32002C37.6699 2.6488 38.5073 3.03706 39.3191 3.48238C39.4784 3.56951 39.6363 3.65894 39.7931 3.75068C39.8636 3.79936 39.937 3.84302 40.0128 3.88137C39.8603 3.8199 40.0184 3.59638 39.9474 3.86753C39.8815 4.23779 39.8411 4.61284 39.8265 4.98959C39.7341 5.81064 39.6363 6.63128 39.5332 7.45151C39.4115 8.41967 39.282 9.38675 39.1445 10.3527C39.0807 10.7962 39.0138 11.2392 38.944 11.6816C38.9147 11.8636 38.8847 12.046 38.8535 12.2276C38.8418 12.2939 38.8306 12.3607 38.8186 12.4271C38.8103 12.4743 38.8017 12.5215 38.793 12.5692C38.7671 12.699 38.7712 12.6913 38.8054 12.5411L39.1847 12.4299C38.388 12.477 37.5894 12.3866 36.8189 12.162C35.9626 11.9632 35.1223 11.691 34.3058 11.3478C32.7173 10.6744 31.2236 9.76319 29.8682 8.64075C29.6959 8.53294 29.4915 8.50313 29.2991 8.55779C29.1067 8.61244 28.942 8.74714 28.8407 8.93266C28.7454 9.12017 28.7202 9.34023 28.7703 9.54733C28.8204 9.75443 28.942 9.93272 29.11 10.0454Z" fill="#211715"/>
</svg>
