<svg width="50" height="50" viewBox="0 0 50 50" fill="none" xmlns="http://www.w3.org/2000/svg">
<g clip-path="url(#clip0_107_4180)">
<path d="M36.0582 38.5152C35.8276 38.4422 32.0498 36.8023 31.9712 36.7758C30.7774 36.3762 30.8239 35.6632 30.6737 34.8673C30.5553 34.2676 30.4753 33.6619 30.4343 33.0534C33.5364 31.831 36.0348 27.9538 36.4696 26.8584C36.535 26.6745 36.6677 26.3278 36.7862 25.9177C36.9453 25.8917 37.035 25.8789 37.035 25.8789C37.5658 25.7968 38.0645 25.5882 38.4825 25.2737C38.9969 24.8679 39.4108 24.3638 39.6959 23.796C40.3009 22.6724 40.5614 21.4162 40.4488 20.1646C40.4332 19.8447 40.3453 19.5314 40.1908 19.245C40.0574 19.0375 39.8757 18.8604 39.6589 18.7266C39.442 18.5929 39.1957 18.5059 38.9379 18.4721C38.6751 18.4364 38.4072 18.4537 38.1524 18.5229C37.8975 18.5921 37.6618 18.7115 37.4612 18.8729C37.4612 18.8729 38.5186 9.37354 24.8045 9.37354C11.9083 9.37354 12.6926 18.8727 12.6926 18.8727C12.492 18.7113 12.2563 18.5919 12.0015 18.5228C11.7466 18.4536 11.4787 18.4363 11.216 18.472C10.9581 18.5057 10.7117 18.5927 10.4949 18.7264C10.278 18.8602 10.0962 19.0373 9.96288 19.2448C9.80848 19.5312 9.72062 19.8445 9.70501 20.1644C9.59247 21.416 9.85293 22.6723 10.4579 23.7958C10.743 24.3637 11.1569 24.8678 11.6713 25.2735C12.0893 25.5881 12.588 25.7966 13.1188 25.8788C13.1188 25.8788 13.2975 25.9041 13.5904 25.9451C14.05 27.5303 14.8655 29.0074 15.9835 30.2796C17.0613 31.4765 18.2645 32.3945 19.573 32.9726C19.5347 33.608 19.453 34.2404 19.3285 34.8661C19.1779 35.6632 19.2251 36.375 18.0308 36.7758C17.9518 36.8021 14.1743 38.4416 13.9443 38.5143C13.9443 38.5143 14.4379 44.6455 25.4514 44.6455C36.4649 44.6455 36.0582 38.5152 36.0582 38.5152Z" fill="white"/>
<path d="M0.49231 49.5389C0.947118 48.6647 1.33491 47.7596 1.85852 46.9162C2.32173 46.1701 3.17505 44.3793 4.91441 42.9494C5.8351 42.1918 8.09789 40.6564 11.5467 39.1662C12.1686 38.8976 12.8692 38.5859 13.5763 38.2842L13.6081 38.3051C16.9536 40.4602 20.9295 41.6144 25.0022 41.6128C29.0749 41.6112 33.0497 40.4539 36.3932 38.2962L36.4159 38.2812C37.1268 38.5834 37.8304 38.8964 38.4546 39.1662C41.9037 40.6564 44.1663 42.1918 45.0871 42.9494C46.8254 44.3796 47.6784 46.1699 48.142 46.9162C48.665 47.7596 49.0525 48.6647 49.5076 49.5389" fill="white"/>
<path d="M14.9312 34.9682C16.663 34.7238 18.1336 33.9463 18.7864 33.0378L19.0134 32.7C17.8554 32.0677 16.8288 31.2481 15.9822 30.2801C14.8642 29.0079 14.0486 27.5307 13.5891 25.9455C13.2955 25.9043 13.1175 25.8792 13.1175 25.8792C12.5867 25.7971 12.0879 25.5886 11.67 25.274C11.4875 25.136 11.3192 24.9825 11.1673 24.8157C10.841 25.4125 10.6304 26.058 10.5452 26.7225C10.4908 27.1445 10.4676 27.5694 10.4757 27.9943C10.4773 28.0807 10.4808 28.1675 10.4858 28.2542C10.5395 29.1816 10.7737 30.1264 10.8232 31.0501C10.8733 32.0568 10.5909 33.0477 9.55622 33.3737C9.51529 33.3866 9.50707 33.5095 9.50815 33.5407C9.51487 33.6181 9.54354 33.6925 9.59124 33.7563C9.73135 33.9348 9.91261 34.0821 10.1218 34.1874C11.2764 34.8442 13.0519 35.2333 14.9312 34.9682Z" fill="#734E30"/>
<path d="M39.4077 11.3151C39.3611 11.0624 39.3134 10.8286 39.2671 10.6187C37.9836 4.77888 31.6447 0.143689 24.9973 0.482283C18.3495 0.143689 12.0111 4.77888 10.7276 10.6184C10.3798 12.1936 10.4215 14.888 10.7376 16.1453L11.374 18.4583C11.855 18.4303 12.3285 18.5792 12.692 18.8728C15.3189 17.1815 19.7755 14.2444 22.083 12.4034C21.8932 13.4963 21.2188 15.3549 22.0683 15.1639C25.6155 14.4011 29.015 12.865 31.0707 10.4672C31.5039 11.8829 32.22 13.7954 32.7461 14.6313C33.4904 15.814 35.6474 18.475 37.4605 18.8728C37.6611 18.7114 37.8968 18.592 38.1517 18.5228C38.4065 18.4536 38.6745 18.4363 38.9372 18.472C39.0149 18.4828 39.0918 18.4984 39.1674 18.5186C40.0911 16.5333 39.7801 13.3276 39.4077 11.3151Z" fill="#734E30"/>
<path d="M11.2131 16.0718C11.0638 15.3866 10.9885 14.6892 10.9881 13.9901C10.9595 13.1528 10.9924 12.3147 11.0866 11.4815C11.1852 10.7349 11.371 10.0004 11.6406 9.29095C11.9159 8.56312 12.2702 7.86311 12.698 7.20168C14.4681 4.47465 17.2485 2.43951 20.5189 1.47709C21.3383 1.23656 22.1816 1.07291 23.0362 0.988599C23.9118 0.907018 24.797 0.929568 25.6758 0.929071C27.3915 0.934854 29.0887 1.25768 30.6684 1.87869C33.8464 3.11537 36.4239 5.39242 37.911 8.27699C38.566 9.57533 38.903 11.0695 39.0887 12.4534C39.304 14.0573 39.4179 15.7674 39.0422 17.3406C38.9596 17.6945 38.843 18.0408 38.6939 18.3755C38.5894 18.6076 38.8065 18.8862 39.0433 18.9465C39.1712 18.9761 39.3064 18.9589 39.421 18.8986C39.5356 18.8382 39.6208 18.7392 39.6589 18.6222C39.985 17.842 40.1767 17.0189 40.2269 16.1834C40.2954 15.3222 40.2911 14.4573 40.214 13.5967C40.0889 12.0513 39.8584 10.4571 39.2996 8.99033C38.0844 5.80187 35.4752 3.13308 32.2644 1.55917C30.626 0.75135 28.8354 0.243411 26.9902 0.0630196C26.5322 0.0190415 26.0718 -0.00177143 25.6113 0.000673172C25.1478 0.0031604 24.6855 -0.0023115 24.2221 0.000673172C23.3016 0.00891907 22.3843 0.10336 21.4843 0.282559C17.8978 0.988267 14.6677 3.01768 12.5229 5.76158C11.4616 7.10938 10.7047 8.64221 10.2976 10.2681C10.11 11.0927 10.0073 11.9321 9.99094 12.7747C9.95686 13.6118 9.98498 14.4501 10.0751 15.2837C10.1107 15.6315 10.1684 15.9772 10.2481 16.3187C10.3911 16.9009 11.3561 16.6545 11.2131 16.0718Z" fill="#211715"/>
<path d="M30.6407 10.7621C30.8995 11.5837 31.1874 12.3982 31.5148 13.1986C31.7574 13.8421 32.0656 14.4626 32.4353 15.0517C33.1924 16.2093 34.1285 17.2574 35.2138 18.1626C35.8253 18.66 36.5252 19.1363 37.3277 19.3203C37.9532 19.4637 38.2197 18.5685 37.5938 18.4249C37.3264 18.368 37.0716 18.2687 36.8406 18.1314C36.5557 17.9765 36.2865 17.7978 36.0364 17.5977C35.4728 17.145 34.9536 16.6468 34.4849 16.109C34.0807 15.6558 33.7075 15.1795 33.3676 14.683C33.0434 14.1921 32.7715 13.673 32.5559 13.1331C32.1958 12.275 31.8847 11.3983 31.6064 10.5147C31.4263 9.94232 30.4602 10.1857 30.6414 10.7614L30.6407 10.7621Z" fill="#211715"/>
<path d="M30.7526 10.0969C29.5674 11.4861 28.0016 12.5252 26.2987 13.3049C25.3971 13.7134 24.4619 14.0545 23.5019 14.325C23.0321 14.4593 22.5578 14.5792 22.0789 14.6848C22.0199 14.6977 21.9611 14.7115 21.9016 14.7226C22.0151 14.7014 21.9806 14.7108 21.9436 14.713C22.0204 14.7085 22.0101 14.7077 22.0749 14.7461C22.1736 14.8055 22.1505 14.8043 22.1205 14.7781C22.2098 14.8559 22.1757 14.833 22.1427 14.7937C22.1821 14.8407 22.1873 14.8766 22.1637 14.8292C22.15 14.8017 22.1459 14.7009 22.1578 14.8319C22.1548 14.797 22.1516 14.7626 22.1505 14.7276C22.1511 14.3922 22.2001 14.0583 22.2963 13.735C22.3875 13.3324 22.4929 12.9321 22.5655 12.526C22.5909 12.428 22.5816 12.325 22.539 12.2322C22.4963 12.1395 22.4225 12.062 22.3286 12.0113C22.2346 11.9605 22.1256 11.9393 22.0176 11.9506C21.9096 11.962 21.8084 12.0054 21.7291 12.0744C19.4102 13.9212 16.8905 15.5625 14.3977 17.198C13.7465 17.6257 13.0937 18.0503 12.4394 18.4717C12.3274 18.536 12.2463 18.6378 12.2129 18.756C12.1794 18.8742 12.1962 18.9999 12.2598 19.1069C12.3278 19.2123 12.4376 19.2886 12.5656 19.3197C12.6936 19.3507 12.8297 19.3338 12.9444 19.2727C15.5418 17.6006 18.1225 15.8997 20.6183 14.0993C21.2343 13.6547 21.8446 13.2027 22.4368 12.731L21.6005 12.2793C21.4627 13.0545 21.1769 13.8235 21.1503 14.613C21.1401 14.9171 21.1927 15.2501 21.4486 15.4638C21.8417 15.7919 22.4045 15.5709 22.8459 15.4638C24.9744 14.9464 27.0714 14.1514 28.8776 12.9728C29.8491 12.3522 30.719 11.6046 31.4602 10.7533C31.5503 10.6644 31.6005 10.547 31.6005 10.425C31.6005 10.303 31.5503 10.1856 31.4602 10.0967C31.2862 9.93519 30.9211 9.89904 30.7526 10.0967V10.0969Z" fill="#211715"/>
<path d="M10.7341 24.5815C10.0303 25.8702 9.86768 27.3533 10.0332 28.7766C10.1225 29.545 10.291 30.3073 10.3246 31.0814C10.3473 31.6041 10.2966 32.1136 9.98992 32.5333C9.8599 32.697 9.68546 32.8258 9.48436 32.9066C9.2624 32.9984 9.11336 33.0747 9.03938 33.3063C8.98432 33.5012 9.00685 33.708 9.10282 33.8887C9.39179 34.4675 10.1767 34.7765 10.7769 35.0046C12.2265 35.5288 13.8076 35.6567 15.3331 35.3734C16.8033 35.1149 18.355 34.4513 19.2194 33.273C19.2864 33.1667 19.3051 33.04 19.2715 32.9209C19.2378 32.8017 19.1545 32.6999 19.0399 32.6377C18.9253 32.5755 18.7888 32.5582 18.6604 32.5894C18.532 32.6206 18.4222 32.6979 18.3552 32.8043C18.3047 32.8772 18.2475 32.946 18.1842 33.0099C18.0883 33.1108 17.9861 33.2064 17.8782 33.2962C17.6821 33.4583 17.4698 33.6027 17.2442 33.7273C16.6852 34.0376 16.0777 34.2656 15.4435 34.4034C14.102 34.7044 12.6959 34.6446 11.3897 34.2308C11.0928 34.1358 10.8056 34.0161 10.5319 33.8731C10.389 33.8052 10.2545 33.7232 10.1306 33.6285C10.0948 33.5987 10.0471 33.5176 10.0087 33.4982C9.93952 33.4634 10.0266 33.5589 10.0099 33.5284C9.99957 33.5083 9.9892 33.5922 10.019 33.5169L9.89038 33.7217L9.91147 33.7025L9.69076 33.8219C9.97607 33.7342 10.2395 33.5942 10.4655 33.4104C10.6914 33.2265 10.8753 33.0024 11.0062 32.7514C11.2478 32.2452 11.358 31.6935 11.3279 31.1406C11.3063 30.4263 11.1583 29.7204 11.0638 29.0129C10.9674 28.3221 10.9534 27.6235 11.0219 26.9298C11.087 26.2755 11.2824 25.6382 11.5981 25.0501C11.6621 24.9432 11.6792 24.8175 11.6459 24.6992C11.6126 24.581 11.5315 24.4791 11.4194 24.4149C11.3046 24.3538 11.1686 24.337 11.0406 24.368C10.9126 24.399 10.8028 24.4754 10.7348 24.5807L10.7341 24.5815Z" fill="#211715"/>
<path d="M37.8144 19.2013C38.0245 19.0407 38.2824 18.9436 38.5537 18.9228C38.825 18.9021 39.0966 18.9588 39.3322 19.0852C39.9256 19.4076 39.9644 20.0619 39.9735 20.6391C39.9943 21.9351 39.5931 23.3492 38.724 24.3842C38.2824 24.9359 37.6304 25.3104 36.9012 25.4311C36.7738 25.4647 36.6658 25.5434 36.6004 25.6502C36.535 25.7571 36.5176 25.8835 36.5518 26.0022C36.5897 26.1194 36.6748 26.2185 36.7895 26.2789C36.9041 26.3393 37.0395 26.3564 37.1673 26.3265C38.9964 26.042 40.0888 24.4497 40.6096 22.9273C40.8827 22.1293 41.004 21.2933 40.968 20.4567C40.9282 19.5892 40.6944 18.7515 39.8365 18.2845C39.4087 18.0588 38.9157 17.9626 38.4262 18.0093C37.9367 18.0561 37.4752 18.2435 37.106 18.5454C37.0132 18.633 36.9613 18.7509 36.9613 18.8737C36.9613 18.9965 37.0132 19.1144 37.106 19.202C37.2011 19.2869 37.3279 19.3343 37.4599 19.3343C37.5918 19.3343 37.7186 19.2869 37.8137 19.202L37.8144 19.2013Z" fill="#211715"/>
<path d="M36.5155 24.6039C36.4846 25.1131 36.3817 25.6163 36.2095 26.1006C36.1507 26.2815 36.0862 26.4606 36.0215 26.6396C36.0056 26.6837 35.9901 26.7278 35.9722 26.7723C35.9644 26.7917 35.9543 26.8108 35.9474 26.8305C35.9188 26.9086 36.0026 26.7172 35.9545 26.8147C35.7095 27.3036 35.4299 27.7768 35.1175 28.2313C34.2248 29.5452 33.1642 30.7693 31.8192 31.7452C31.1087 32.2832 30.2799 32.6705 29.391 32.8797C28.7634 33.0124 29.0289 33.9078 29.6569 33.7751C31.496 33.3858 33.0357 32.1502 34.2468 30.8636C35.2675 29.8154 36.1207 28.6367 36.7802 27.3634C37.2154 26.4967 37.4654 25.5598 37.5162 24.6047C37.5359 24.007 36.5351 24.0078 36.5155 24.6047V24.6039Z" fill="#211715"/>
<path d="M13.0456 18.5443C12.7197 18.2768 12.3203 18.0983 11.8916 18.0286C11.463 17.959 11.022 18.0009 10.6175 18.1497C10.2149 18.2998 9.86745 18.5543 9.61674 18.8829C9.36634 19.258 9.22515 19.6871 9.20697 20.128C9.0372 21.7421 9.51077 23.5453 10.5634 24.8529C11.1581 25.5919 11.9851 26.1711 12.9836 26.3265C13.1114 26.3555 13.2463 26.3381 13.3608 26.2778C13.4752 26.2175 13.5604 26.1189 13.599 26.0022C13.6333 25.8835 13.6158 25.757 13.5504 25.6502C13.485 25.5433 13.3769 25.4646 13.2495 25.4311C11.8481 25.2131 11.0244 24.054 10.5819 22.89C10.3394 22.2605 10.2038 21.5997 10.1802 20.9315C10.1623 20.3628 10.1311 19.5977 10.6468 19.1958C10.886 19.0156 11.1849 18.9177 11.493 18.9187C11.8011 18.9196 12.0993 19.0193 12.3372 19.2009C12.4326 19.2853 12.5593 19.3323 12.691 19.3323C12.8228 19.3323 12.9495 19.2853 13.0449 19.2009C13.1376 19.1133 13.1896 18.9954 13.1896 18.8726C13.1896 18.7498 13.1376 18.6319 13.0449 18.5443H13.0456Z" fill="#211715"/>
<path d="M12.7093 24.4258C13.0009 26.1352 13.6381 27.778 14.5875 29.2676C15.663 30.8981 17.2243 32.3717 19.0639 33.2558C20.022 33.7175 21.0657 34.0065 22.1398 34.1073C22.2723 34.1065 22.3991 34.0573 22.4927 33.9704C22.5864 33.8835 22.6394 33.7659 22.6402 33.643C22.6373 33.5207 22.5837 33.4041 22.4905 33.3176C22.3972 33.2311 22.2716 33.1814 22.1398 33.1787C20.3989 33.0129 18.801 32.2004 17.5211 31.11C16.0763 29.8789 14.9833 28.3343 14.3402 26.6148C14.0464 25.821 13.8235 25.0062 13.6736 24.1786C13.6374 24.0604 13.5526 23.9601 13.4374 23.8994C13.3222 23.8387 13.1859 23.8225 13.0579 23.8543C12.9316 23.8893 12.8248 23.9683 12.7597 24.0747C12.6946 24.1811 12.6763 24.3067 12.7086 24.4253L12.7093 24.4258Z" fill="#211715"/>
<path d="M15.9061 36.882C14.4087 37.3697 12.9808 38.0313 11.5457 38.6562C10.0822 39.2809 8.66173 39.989 7.29243 40.7763C6.39756 41.2887 5.54244 41.8587 4.73335 42.4819C3.68828 43.3336 2.81007 44.3468 2.13763 45.4765C1.86403 45.9182 1.61134 46.3711 1.34453 46.8163C0.862026 47.621 0.48978 48.4764 0.0601689 49.3052C-0.00336003 49.4122 -0.0201465 49.5379 0.0132768 49.6561C0.0467001 49.7743 0.12778 49.8761 0.239769 49.9404C0.354525 50.0016 0.490588 50.0185 0.618645 49.9875C0.746703 49.9565 0.856504 49.88 0.924395 49.7746C1.29432 49.0616 1.62135 48.3277 2.01343 47.6238C2.25451 47.1909 2.51381 46.7646 2.76615 46.3368C3.41986 45.2258 4.18919 44.1812 5.20782 43.328C5.34453 43.2136 5.48517 43.1032 5.62796 42.9953C5.70265 42.9387 5.77807 42.8828 5.8542 42.8278C5.87564 42.8121 5.89721 42.7964 5.91889 42.7809C5.8424 42.8352 5.90388 42.7916 5.91889 42.7809C5.96589 42.7477 6.01271 42.7145 6.05989 42.6814C6.49754 42.3768 6.94788 42.0879 7.40609 41.8108C8.68784 41.0408 10.0225 40.3493 11.4014 39.7408C12.9646 39.0459 14.5338 38.3107 16.1715 37.7774C16.2976 37.7421 16.4043 37.6631 16.4694 37.5568C16.5344 37.4504 16.5529 37.3249 16.5208 37.2063C16.4846 37.0882 16.3997 36.988 16.2846 36.9273C16.1695 36.8667 16.0333 36.8504 15.9054 36.882H15.9061Z" fill="#211715"/>
<path d="M33.8271 37.7773C35.2653 38.2458 36.6328 38.8863 38.0119 39.4852C39.4442 40.0972 40.8345 40.7907 42.1748 41.5616C42.6716 41.8514 43.16 42.1539 43.6356 42.4736C43.7317 42.5379 43.827 42.6031 43.9215 42.6691C43.9631 42.6979 44.0046 42.7273 44.0466 42.7563L44.1152 42.805C44.035 42.748 44.1131 42.8037 44.1295 42.8155C44.2786 42.9244 44.4265 43.0345 44.5713 43.1486C45.5619 43.9558 46.3926 44.9176 47.0258 45.9905C47.3023 46.4398 47.5632 46.8985 47.8311 47.3523C48.2945 48.1373 48.6576 48.9682 49.0754 49.7732C49.1433 49.8786 49.2531 49.955 49.3811 49.986C49.5091 50.017 49.6451 50.0002 49.7599 49.939C49.8724 49.8751 49.9539 49.7733 49.9873 49.6549C50.0208 49.5365 50.0037 49.4107 49.9395 49.3038C48.7269 46.9645 47.6038 44.4154 45.47 42.645C44.7331 42.0505 43.9489 41.5083 43.1241 41.0232C41.8101 40.2324 40.4404 39.5242 39.0242 38.9034C37.4071 38.1884 35.7862 37.4323 34.0935 36.8805C34.0302 36.8643 33.964 36.8598 33.8988 36.8673C33.8335 36.8749 33.7706 36.8942 33.7134 36.9244C33.6563 36.9545 33.6061 36.9947 33.5657 37.0429C33.5253 37.091 33.4955 37.146 33.4781 37.2048C33.4606 37.2636 33.4558 37.325 33.4639 37.3855C33.472 37.446 33.4929 37.5045 33.5254 37.5575C33.5578 37.6105 33.6012 37.6571 33.6531 37.6946C33.7049 37.732 33.7643 37.7597 33.8276 37.7759L33.8271 37.7773Z" fill="#211715"/>
<path d="M19.0694 33.0078C19.0374 33.5135 18.9763 34.0172 18.8862 34.5168C18.8267 34.8492 18.7872 35.19 18.7031 35.5178C18.6852 35.5886 18.6629 35.6579 18.638 35.7267C18.5912 35.857 18.6829 35.6516 18.6182 35.775C18.6046 35.8008 18.5905 35.8265 18.5753 35.8517C18.5524 35.89 18.5273 35.9272 18.5 35.963C18.5127 35.9464 18.5537 35.9055 18.4879 35.9753C18.4344 36.0327 18.3745 36.0847 18.3092 36.1303C18.1117 36.242 17.9035 36.3364 17.6871 36.4122C16.74 36.811 15.7987 37.2247 14.8532 37.6284C14.6001 37.7363 14.3468 37.8437 14.0933 37.9506C14.0085 37.9861 13.9235 38.0213 13.8383 38.0562C13.794 38.0745 13.663 38.1309 13.8576 38.0494C13.8419 38.0561 13.8256 38.0617 13.8095 38.067C13.6834 38.1023 13.5767 38.1813 13.5116 38.2877C13.4466 38.394 13.4281 38.5195 13.46 38.6381C13.4962 38.7562 13.5811 38.8564 13.6962 38.9171C13.8113 38.9778 13.9475 38.994 14.0754 38.9624C14.4436 38.8414 14.799 38.6684 15.1534 38.5175C15.7334 38.2707 16.3126 38.0224 16.8912 37.7725C17.3177 37.5891 17.7434 37.4039 18.1711 37.2228C18.2363 37.1953 18.354 37.1142 18.1598 37.2245C18.366 37.1076 18.6103 37.0618 18.8142 36.9318C19.17 36.7094 19.4405 36.388 19.5869 36.0139C19.7023 35.6548 19.7815 35.2866 19.8234 34.9139C19.9438 34.283 20.0261 33.6464 20.0698 33.007C20.0698 32.8839 20.0171 32.7658 19.9233 32.6787C19.8294 32.5916 19.7021 32.5427 19.5694 32.5427C19.4367 32.5427 19.3094 32.5916 19.2156 32.6787C19.1218 32.7658 19.0691 32.8839 19.0691 33.007L19.0694 33.0078Z" fill="#211715"/>
<path d="M29.9333 33.0532C29.9734 33.6256 30.0453 34.1956 30.1487 34.7611C30.2103 35.1083 30.2488 35.4668 30.3433 35.8081C30.435 36.169 30.6397 36.4967 30.9318 36.7499C31.1062 36.8942 31.3032 37.013 31.5162 37.1023C31.6267 37.1369 31.7348 37.1779 31.8398 37.2251C31.6911 37.1382 31.7086 37.1719 31.7658 37.1969C32.7192 37.6179 33.6823 38.0217 34.6414 38.4313C35.0631 38.6113 35.4861 38.8196 35.9245 38.9637C36.0524 38.9952 36.1886 38.9789 36.3037 38.9183C36.4189 38.8576 36.5038 38.7575 36.5401 38.6394C36.5727 38.5207 36.5546 38.3949 36.4894 38.2885C36.4242 38.182 36.3171 38.1031 36.1906 38.0683C36.0689 38.0283 36.3085 38.118 36.1949 38.0709C36.1202 38.0401 36.0453 38.0098 35.9706 37.9786C35.7638 37.8924 35.5576 37.8046 35.3514 37.7169C34.7981 37.4814 34.2455 37.2444 33.6935 37.0061C33.2625 36.8205 32.832 36.6342 32.4002 36.4501C32.2751 36.3967 32.1484 36.3496 32.0214 36.3009C31.8589 36.2416 31.7098 36.1546 31.5817 36.0445C31.5519 36.0172 31.5233 35.9888 31.4963 35.959C31.4395 35.8959 31.5512 36.0435 31.4734 35.9276C31.4527 35.8966 31.4323 35.8659 31.4138 35.8338C31.4036 35.8172 31.3423 35.6829 31.378 35.7684C31.2686 35.4348 31.1942 35.0921 31.1559 34.7452C31.0494 34.1855 30.9755 33.6209 30.9343 33.0539C30.9314 32.9316 30.8777 32.8151 30.7845 32.7286C30.6913 32.6421 30.5657 32.5923 30.4339 32.5896C30.3016 32.5907 30.175 32.6399 30.0814 32.7268C29.9878 32.8136 29.9347 32.9311 29.9335 33.0539L29.9333 33.0532Z" fill="#211715"/>
<path d="M13.3543 38.7063C16.0015 40.4131 19.05 41.5081 22.2458 41.9001C25.4743 42.3047 28.7602 41.9916 31.8327 40.9867C33.5417 40.4305 35.1607 39.6603 36.6449 38.6973C36.7568 38.6329 36.8377 38.531 36.8709 38.4128C36.9042 38.2946 36.8872 38.1691 36.8236 38.0621C36.7558 37.9567 36.646 37.8802 36.5179 37.8492C36.3898 37.8181 36.2538 37.8351 36.139 37.8963C33.5904 39.5515 30.6503 40.6139 27.5664 40.9937C24.4889 41.3674 21.3597 41.0603 18.4345 40.0975C16.8091 39.5634 15.2699 38.8258 13.8596 37.9052C13.7449 37.8441 13.6088 37.8272 13.4808 37.8582C13.3527 37.8893 13.2429 37.9657 13.175 38.0711C13.1107 38.1779 13.0934 38.3036 13.1267 38.422C13.16 38.5404 13.2413 38.6423 13.3537 38.7063H13.3543Z" fill="#211715"/>
<path d="M22.9527 28.0227C23.6701 28.3661 24.4688 28.5372 25.2759 28.5201C26.0963 28.5151 26.9379 28.3709 27.5973 27.8942C27.8107 27.7398 27.7717 27.3994 27.5973 27.2375C27.5019 27.1532 27.3752 27.1062 27.2434 27.1062C27.1117 27.1062 26.985 27.1532 26.8896 27.2375C27.0338 27.1332 26.896 27.2296 26.8592 27.2516C26.8116 27.28 26.7624 27.3064 26.7118 27.3307C26.6825 27.345 26.5188 27.4125 26.6294 27.3708C26.5626 27.396 26.4948 27.4189 26.426 27.4395C26.029 27.553 25.6144 27.6044 25.1992 27.5915C24.8031 27.5982 24.4082 27.5489 24.0282 27.4451C23.9536 27.4246 23.8811 27.4 23.8076 27.3765C23.7837 27.3687 23.7603 27.3589 23.7362 27.3508C23.858 27.3927 23.7499 27.3564 23.727 27.3465C23.6357 27.3068 23.546 27.2651 23.4568 27.2214C23.3417 27.1618 23.2062 27.1458 23.0786 27.1767C22.951 27.2076 22.8413 27.283 22.7722 27.3873C22.7066 27.4938 22.6886 27.62 22.722 27.7387C22.7554 27.8574 22.8376 27.9593 22.9509 28.0225L22.9527 28.0227Z" fill="#211715"/>
<path d="M25.0763 22.8785C25.1861 23.2463 25.274 23.6193 25.3395 23.996L25.3216 23.8726C25.3295 23.9237 25.331 23.9754 25.3261 24.0268L25.344 23.9034C25.3405 23.927 25.3345 23.9502 25.3261 23.9728L25.3765 23.8618C25.3692 23.8774 25.3604 23.8924 25.3502 23.9066L25.4283 23.8126C25.4167 23.8259 25.4035 23.8379 25.389 23.8486L25.4903 23.7759C25.4597 23.7936 25.4278 23.8092 25.3949 23.8229L25.5145 23.7759C25.463 23.7965 25.409 23.8111 25.3536 23.8195L25.4868 23.803C25.4366 23.8084 25.3859 23.8084 25.3358 23.803L25.4687 23.8195C25.4119 23.8122 25.356 23.7993 25.2991 23.7923C25.1687 23.764 25.0317 23.7807 24.9135 23.8391C24.799 23.9014 24.7159 24.0033 24.6824 24.1224C24.6488 24.2415 24.6677 24.3681 24.7348 24.4743C24.7664 24.5268 24.8093 24.5728 24.8607 24.6095C24.9121 24.6462 24.9709 24.6728 25.0338 24.6877C25.1529 24.7025 25.2686 24.731 25.3896 24.736C25.5671 24.7372 25.7423 24.6991 25.9008 24.6249C25.9992 24.5847 26.0865 24.5244 26.1561 24.4485C26.2258 24.3726 26.276 24.283 26.3031 24.1865C26.3386 24.0265 26.3366 23.8612 26.2974 23.702C26.2318 23.342 26.1421 22.9852 26.0424 22.632C26.0071 22.5132 25.9224 22.4124 25.807 22.3516C25.6915 22.2908 25.5548 22.275 25.4268 22.3077C25.2988 22.3405 25.1901 22.419 25.1246 22.5261C25.0591 22.6333 25.0421 22.7601 25.0774 22.8789L25.0763 22.8785Z" fill="#211715"/>
<path d="M18.5949 19.7427C18.3937 20.349 18.5249 21.7442 19.7631 21.8629C21.3997 21.8538 21.4868 20.1671 20.9358 19.374C20.4848 18.7247 19.1584 18.4551 18.5949 19.7427Z" fill="#211715"/>
<path d="M31.7009 19.7427C31.9022 20.3492 31.771 21.7442 30.5327 21.8629C28.8961 21.8538 28.8089 20.167 29.3599 19.374C29.8109 18.7247 31.1373 18.4551 31.7009 19.7427Z" fill="#211715"/>
</g>
<defs>
<clipPath id="clip0_107_4180">
<rect width="50" height="50" fill="white"/>
</clipPath>
</defs>
</svg>
